<svg width="16" height="192" viewBox="0 0 1792 21504" xmlns="http://www.w3.org/2000/svg" xmlns:xlink="http://www.w3.org/1999/xlink"><defs><path d="M1412 895q0-27-18-45l-362-362-91-91q-18-18-45-18t-45 18l-91 91-362 362q-18 18-18 45t18 45l91 91q18 18 45 18t45-18l189-189v502q0 26 19 45t45 19h128q26 0 45-19t19-45V842l189 189q19 19 45 19t45-19l91-91q18-18 18-45zm252 1q0 209-103 385.5T1281.5 1561 896 1664t-385.5-103T231 1281.5 128 896t103-385.5T510.5 231 896 128t385.5 103T1561 510.5 1664 896z" id="a"/><path d="M1412 897q0-27-18-45l-91-91q-18-18-45-18t-45 18l-189 189V448q0-26-19-45t-45-19H832q-26 0-45 19t-19 45v502L579 761q-19-19-45-19t-45 19l-91 91q-18 18-18 45t18 45l362 362 91 91q18 18 45 18t45-18l91-91 362-362q18-18 18-45zm252-1q0 209-103 385.5T1281.5 1561 896 1664t-385.5-103T231 1281.5 128 896t103-385.5T510.5 231 896 128t385.5 103T1561 510.5 1664 896z" id="b"/><path d="M1408 960V832q0-26-19-45t-45-19H842l189-189q19-19 19-45t-19-45l-91-91q-18-18-45-18t-45 18L488 760l-91 91q-18 18-18 45t18 45l91 91 362 362q18 18 45 18t45-18l91-91q18-18 18-45t-18-45l-189-189h502q26 0 45-19t19-45zm256-64q0 209-103 385.5T1281.5 1561 896 1664t-385.5-103T231 1281.5 128 896t103-385.5T510.5 231 896 128t385.5 103T1561 510.5 1664 896z" id="c"/><path d="M1413 896q0-27-18-45l-91-91-362-362q-18-18-45-18t-45 18l-91 91q-18 18-18 45t18 45l189 189H448q-26 0-45 19t-19 45v128q0 26 19 45t45 19h502l-189 189q-19 19-19 45t19 45l91 91q18 18 45 18t45-18l362-362 91-91q18-18 18-45zm251 0q0 209-103 385.5T1281.5 1561 896 1664t-385.5-103T231 1281.5 128 896t103-385.5T510.5 231 896 128t385.5 103T1561 510.5 1664 896z" id="d"/><path transform="matrix(.75 0 0 .75 336 336)" d="M1037 1395l102-102q19-19 19-45t-19-45L832 896l307-307q19-19 19-45t-19-45l-102-102q-19-19-45-19t-45 19L493 851q-19 19-19 45t19 45l454 454q19 19 45 19t45-19zm627-499q0 209-103 385.5T1281.5 1561 896 1664t-385.5-103T231 1281.5 128 896t103-385.5T510.5 231 896 128t385.5 103T1561 510.5 1664 896z" id="e"/><path transform="matrix(.75 0 0 .75 336 336)" d="M845 1395l454-454q19-19 19-45t-19-45L845 397q-19-19-45-19t-45 19L653 499q-19 19-19 45t19 45l307 307-307 307q-19 19-19 45t19 45l102 102q19 19 45 19t45-19zm819-499q0 209-103 385.5T1281.5 1561 896 1664t-385.5-103T231 1281.5 128 896t103-385.5T510.5 231 896 128t385.5 103T1561 510.5 1664 896z" id="f"/></defs><use xlink:href="#a" fill="#666"/><use xlink:href="#a" y="1792" fill="#447e9b"/><use xlink:href="#b" y="3584" fill="#666"/><use xlink:href="#b" y="5376" fill="#447e9b"/><use xlink:href="#c" y="7168" fill="#666"/><use xlink:href="#c" y="8960" fill="#447e9b"/><use xlink:href="#d" y="10752" fill="#666"/><use xlink:href="#d" y="12544" fill="#447e9b"/><use xlink:href="#e" y="14336" fill="#666"/><use xlink:href="#e" y="16128" fill="#447e9b"/><use xlink:href="#f" y="17920" fill="#666"/><use xlink:href="#f" y="19712" fill="#447e9b"/></svg>