<svg xmlns="http://www.w3.org/2000/svg"><defs><font id="icomoon" horiz-adv-x="1024"><font-face units-per-em="1024" ascent="960" descent="-64"/><glyph horiz-adv-x="512"/><glyph unicode="" glyph-name="error" d="M554 384.667v256h-84v-256h84zm0-172v86h-84v-86h84zm-42 640c236 0 426-190 426-426s-190-426-426-426-426 190-426 426 190 426 426 426z"/><glyph unicode="" glyph-name="error_outline" d="M512 84.667c188 0 342 154 342 342s-154 342-342 342-342-154-342-342 154-342 342-342zm0 768c236 0 426-190 426-426s-190-426-426-426-426 190-426 426 190 426 426 426zm-42-212h84v-256h-84v256zm0-342h84v-86h-84v86z"/><glyph unicode="" glyph-name="warning2" d="M554 340.667v172h-84v-172h84zm0-170v86h-84v-86h84zm-512-128l470 810 470-810H42z"/><glyph unicode="" glyph-name="add_alert" d="M682 382.667v86H554v128h-84v-128H342v-86h128v-128h84v128h128zm124-162l90-90v-46H128v46l90 90v248c0 138 96 256 226 286v30c0 38 30 68 68 68s68-30 68-68v-30c130-30 226-148 226-286v-248zm-378-178h168c0-46-38-86-84-86s-84 40-84 86z"/><glyph unicode="" glyph-name="album" d="M512 468.667c24 0 42-18 42-42s-18-42-42-42-42 18-42 42 18 42 42 42zm0-234c106 0 192 86 192 192s-86 192-192 192-192-86-192-192 86-192 192-192zm0 618c236 0 426-190 426-426s-190-426-426-426-426 190-426 426 190 426 426 426z"/><glyph unicode="" glyph-name="av_timer" d="M256 426.667c0 24 18 42 42 42s44-18 44-42-20-42-44-42-42 18-42 42zm512 0c0-24-18-42-42-42s-44 18-44 42 20 42 44 42 42-18 42-42zm-298 384h42c212 0 384-172 384-384s-172-384-384-384-384 172-384 384c0 126 60 236 154 306v2l290-290-60-60-232 230c-42-52-66-116-66-188 0-166 132-298 298-298s298 132 298 298c0 150-112 276-256 296v-82h-84v170zm0-598c0 24 18 44 42 44s42-20 42-44-18-42-42-42-42 18-42 42z"/><glyph unicode="" glyph-name="closed_caption" d="M768 468.667v44c0 24-18 42-42 42H598c-24 0-44-18-44-42v-172c0-24 20-42 44-42h128c24 0 42 18 42 42v44h-64v-22h-86v128h86v-22h64zm-298 0v44c0 24-20 42-44 42H298c-24 0-42-18-42-42v-172c0-24 18-42 42-42h128c24 0 44 18 44 42v44h-64v-22h-86v128h86v-22h64zm340 300c46 0 86-40 86-86v-512c0-46-40-86-86-86H214c-48 0-86 40-86 86v512c0 46 38 86 86 86h596z"/><glyph unicode="" glyph-name="equalizer" d="M682 554.667h172v-470H682v470zm-512-470v342h172v-342H170zm256 0v684h172v-684H426z"/><glyph unicode="" glyph-name="explicit" d="M640 554.667v86H384v-428h256v86H470v86h170v84H470v86h170zm170 256c46 0 86-40 86-86v-596c0-46-40-86-86-86H214c-46 0-86 40-86 86v596c0 46 40 86 86 86h596z"/><glyph unicode="" glyph-name="fast_forward" d="M554 682.667l364-256-364-256v512zm-384-512v512l364-256z"/><glyph unicode="" glyph-name="fast_rewind" d="M490 426.667l364 256v-512zm-20-256l-364 256 364 256v-512z"/><glyph unicode="" glyph-name="games" d="M704 554.667h234v-256H704l-128 128zm-320-320l128 128 128-128v-234H384v234zm-64 320l128-128-128-128H86v256h234zm320 64l-128-128-128 128v234h256v-234z"/><glyph unicode="" glyph-name="hearing" d="M490 554.667c0 58 50 106 108 106s106-48 106-106-48-106-106-106-108 48-108 106zm-164 272c-70-70-112-166-112-272s42-202 112-272l-60-60c-84 84-138 202-138 332s54 248 138 332zm400-742c46 0 84 40 84 86h86c0-94-76-170-170-170-24 0-48 4-70 14-58 30-92 74-118 152-14 42-38 62-72 88-38 28-84 64-122 134-30 54-46 112-46 166 0 168 132 298 300 298s298-130 298-298h-86c0 120-92 214-212 214s-214-94-214-214c0-40 12-86 34-126 30-56 66-82 100-108 40-30 80-62 102-128 22-64 42-84 72-100 8-4 22-8 34-8z"/><glyph unicode="" glyph-name="high_quality" d="M618 362.667v128h86v-128h-86zm150-22v172c0 24-18 42-42 42H598c-24 0-44-18-44-42v-172c0-24 20-42 44-42h32v-64h64v64h32c24 0 42 18 42 42zm-298-42v256h-64v-106h-86v106h-64v-256h64v86h86v-86h64zm340 470c46 0 86-40 86-86v-512c0-46-40-86-86-86H214c-48 0-86 40-86 86v512c0 46 38 86 86 86h596z"/><glyph unicode="" glyph-name="mic" d="M738 468.667h72c0-146-116-266-256-286v-140h-84v140c-140 20-256 140-256 286h72c0-128 108-216 226-216s226 88 226 216zm-226-128c-70 0-128 58-128 128v256c0 70 58 128 128 128s128-58 128-128v-256c0-70-58-128-128-128z"/><glyph unicode="" glyph-name="mic_none" d="M738 468.667h72c0-146-116-266-256-286v-140h-84v140c-140 20-256 140-256 286h72c0-128 108-216 226-216s226 88 226 216zm-278 260v-264c0-28 24-50 52-50s50 22 50 50l2 264c0 28-24 52-52 52s-52-24-52-52zm52-388c-70 0-128 58-128 128v256c0 70 58 128 128 128s128-58 128-128v-256c0-70-58-128-128-128z"/><glyph unicode="" glyph-name="mic_off" d="M182 810.667l714-714-54-54-178 178c-32-20-72-32-110-38v-140h-84v140c-140 20-256 140-256 286h72c0-128 108-216 226-216 34 0 68 8 98 22l-70 70c-8-2-18-4-28-4-70 0-128 58-128 128v32l-256 256zm458-348l-256 254v8c0 70 58 128 128 128s128-58 128-128v-262zm170 6c0-50-14-98-38-140l-52 54c12 26 18 54 18 86h72z"/><glyph unicode="" glyph-name="library_books" d="M810 640.667v84H384v-84h426zm-170-342v86H384v-86h256zm170 170v86H384v-86h426zm44 384c46 0 84-38 84-84v-512c0-46-38-86-84-86H342c-46 0-86 40-86 86v512c0 46 40 84 86 84h512zm-684-170v-598h598v-84H170c-46 0-84 38-84 84v598h84z"/><glyph unicode="" glyph-name="library_music" d="M170 682.667v-598h598v-84H170c-46 0-84 38-84 84v598h84zm598-42v84H598v-234c-18 14-40 22-64 22-58 0-108-50-108-108s50-106 108-106 106 48 106 106v236h128zm86 212c46 0 84-38 84-84v-512c0-46-38-86-84-86H342c-46 0-86 40-86 86v512c0 46 40 84 86 84h512z"/><glyph unicode="" glyph-name="new_releases" d="M554 384.667v256h-84v-256h84zm0-172v86h-84v-86h84zm428 214l-104-118 14-158-154-34-80-136-146 62-146-62-80 134-154 36 14 158-104 118 104 120-14 156 154 34 80 136 146-62 146 62 80-136 154-34-14-158z"/><glyph unicode="" glyph-name="not_interested" d="M782 216.667c46 58 72 132 72 210 0 188-154 342-342 342-78 0-152-26-210-72zm-270-132c78 0 152 26 210 72l-480 480c-46-58-72-132-72-210 0-188 154-342 342-342zm0 768c236 0 426-190 426-426s-190-426-426-426-426 190-426 426 190 426 426 426z"/><glyph unicode="" glyph-name="pause2" d="M598 724.667h170v-596H598v596zm-342-596v596h170v-596H256z"/><glyph unicode="" glyph-name="pause_circle_filled" d="M640 256.667v340h-86v-340h86zm-170 0v340h-86v-340h86zm42 596c236 0 426-190 426-426s-190-426-426-426-426 190-426 426 190 426 426 426z"/><glyph unicode="" glyph-name="pause_circle_outline" d="M554 256.667v340h86v-340h-86zm-42-172c188 0 342 154 342 342s-154 342-342 342-342-154-342-342 154-342 342-342zm0 768c236 0 426-190 426-426s-190-426-426-426-426 190-426 426 190 426 426 426zm-128-596v340h86v-340h-86z"/><glyph unicode="" glyph-name="play_arrow" d="M342 724.667l468-298-468-298v596z"/><glyph unicode="" glyph-name="play_circle_filled" d="M426 234.667l256 192-256 192v-384zm86 618c236 0 426-190 426-426s-190-426-426-426-426 190-426 426 190 426 426 426z"/><glyph unicode="" glyph-name="play_circle_outline" d="M512 84.667c188 0 342 154 342 342s-154 342-342 342-342-154-342-342 154-342 342-342zm0 768c236 0 426-190 426-426s-190-426-426-426-426 190-426 426 190 426 426 426zm-86-618v384l256-192z"/><glyph unicode="" glyph-name="playlist_add" d="M86 256.667v84h340v-84H86zm682 84h170v-84H768v-172h-86v172H512v84h170v172h86v-172zm-170 342v-86H86v86h512zm0-170v-86H86v86h512z"/><glyph unicode="" glyph-name="queue" d="M810 468.667v86H640v170h-86v-170H384v-86h170v-170h86v170h170zm44 384c46 0 84-38 84-84v-512c0-46-38-86-84-86H342c-46 0-86 40-86 86v512c0 46 40 84 86 84h512zm-684-170v-598h598v-84H170c-46 0-84 38-84 84v598h84z"/><glyph unicode="" glyph-name="queue_music" d="M726 682.667h212v-86H810v-384c0-70-58-128-128-128s-128 58-128 128 58 128 128 128c14 0 30-4 44-8v350zm-598-426v84h342v-84H128zm512 256v-86H128v86h512zm0 170v-86H128v86h512z"/><glyph unicode="" glyph-name="radio" d="M854 426.667v170H170v-170h512v86h86v-86h86zm-556-342c70 0 128 58 128 128s-58 128-128 128-128-58-128-128 58-128 128-128zm-160 592l540 220 28-72-352-142h500c48 0 84-38 84-86v-512c0-46-36-84-84-84H170c-48 0-84 38-84 84v512c0 36 20 68 52 80z"/><glyph unicode="" glyph-name="recent_actors" d="M534 212.667v32c0 64-128 96-192 96s-192-32-192-96v-32h384zm-192 396c-52 0-96-44-96-96s44-96 96-96 96 44 96 96-44 96-96 96zm256 116c24 0 42-18 42-42v-512c0-24-18-42-42-42H86c-24 0-44 18-44 42v512c0 24 20 42 44 42h512zm128-596v596h84v-596h-84zm170 596h86v-596h-86v596z"/><glyph unicode="" glyph-name="repeat2" d="M726 212.667v172h84v-256H298v-128l-170 170 170 170v-128h428zm-428 428v-172h-84v256h512v128l170-170-170-170v128H298z"/><glyph unicode="" glyph-name="repeat_one" d="M554 298.667h-64v170h-64v44l86 42h42v-256zm172-86v172h84v-256H298v-128l-170 170 170 170v-128h428zm-428 428v-172h-84v256h512v128l170-170-170-170v128H298z"/><glyph unicode="" glyph-name="replay" d="M512 724.667c188 0 342-152 342-340s-154-342-342-342-342 154-342 342h86c0-142 114-256 256-256s256 114 256 256-114 256-256 256v-172l-214 214 214 214v-172z"/><glyph unicode="" glyph-name="shuffle" d="M632 366.667l134-134 88 88v-236H618l88 88-134 134zm-14 402h236v-236l-88 88-536-536-60 60 536 536zm-166-222l-60-60-222 222 60 60z"/><glyph unicode="" glyph-name="skip_next" d="M682 682.667h86v-512h-86v512zm-426-512v512l362-256z"/><glyph unicode="" glyph-name="skip_previous" d="M406 426.667l362 256v-512zm-150 256h86v-512h-86v512z"/><glyph unicode="" glyph-name="snooze" d="M384 468.667v86h256v-76l-154-180h154v-86H384v78l154 178H384zm128-384c166 0 298 134 298 300s-132 298-298 298-298-132-298-298 132-300 298-300zm0 684c212 0 384-172 384-384s-172-384-384-384-384 172-384 384 172 384 384 384zm426-74l-54-66-196 166 54 64zm-602 100l-196-164-54 64 196 164z"/><glyph unicode="" glyph-name="stop2" d="M256 682.667h512v-512H256v512z"/><glyph unicode="" glyph-name="subtitles" d="M854 340.667v86H426v-86h428zm0-170v86H682v-86h172zm-256 0v86H170v-86h428zm-428 256v-86h172v86H170zm684 342c46 0 84-40 84-86v-512c0-46-38-86-84-86H170c-46 0-84 40-84 86v512c0 46 38 86 84 86h684z"/><glyph unicode="" glyph-name="surround_sound" d="M512 512.667c46 0 86-40 86-86s-40-86-86-86-86 40-86 86 40 86 86 86zm242-328c66 66 100 154 100 242s-34 176-100 242l-62-62c50-50 76-114 76-180s-24-132-74-182zm-242 72c94 0 170 76 170 170s-76 170-170 170-170-76-170-170 76-170 170-170zm-180-10c-50 50-76 114-76 180s24 132 74 182l-60 60c-66-66-100-154-100-242s34-176 100-242zm522 522c46 0 84-40 84-86v-512c0-46-38-86-84-86H170c-46 0-84 40-84 86v512c0 46 38 86 84 86h684z"/><glyph unicode="" glyph-name="video_library" d="M512 320.667l256 192-256 192v-384zm342 532c46 0 84-38 84-84v-512c0-46-38-86-84-86H342c-46 0-86 40-86 86v512c0 46 40 84 86 84h512zm-684-170v-598h598v-84H170c-46 0-84 38-84 84v598h84z"/><glyph unicode="" glyph-name="videocam" d="M726 490.667l170 170v-468l-170 170v-150c0-24-20-42-44-42H170c-24 0-42 18-42 42v428c0 24 18 42 42 42h512c24 0 44-18 44-42v-150z"/><glyph unicode="" glyph-name="videocam_off" d="M140 852.667l756-756-54-54-136 136c-6-4-16-8-24-8H170c-24 0-42 18-42 42v428c0 24 18 42 42 42h32l-116 116zm756-192v-456l-478 478h264c24 0 44-18 44-42v-150z"/><glyph unicode="" glyph-name="volume_down" d="M214 554.667h170l214 214v-684l-214 214H214v256zm576-128c0-76-44-140-108-172v344c64-32 108-96 108-172z"/><glyph unicode="" glyph-name="volume_mute" d="M298 554.667h172l212 214v-684l-212 214H298v256z"/><glyph unicode="" glyph-name="volume_off" d="M512 768.667v-180l-90 90zm-330 42l714-714-54-54-88 88c-46-36-98-64-156-78v88c36 10 68 28 96 50l-182 182v-288l-214 214H128v256h202l-202 202zm628-384c0 136-88 250-212 286v88c172-38 298-192 298-374 0-64-16-126-44-178l-64 66c14 34 22 72 22 112zm-106 0c0-10 0-18-2-26l-104 104v94c64-32 106-96 106-172z"/><glyph unicode="" glyph-name="volume_up" d="M598 800.667c172-38 298-192 298-374s-126-336-298-374v88c124 36 212 150 212 286s-88 250-212 286v88zm106-374c0-76-42-140-106-172v344c64-32 106-96 106-172zm-576 128h170l214 214v-684l-214 214H128v256z"/><glyph unicode="" glyph-name="web" d="M854 170.667v384H682v-384h172zm-214 214v170H170v-170h470zm0-214v170H170v-170h470zm214 598c46 0 84-40 84-86v-512c0-46-38-86-84-86H170c-46 0-84 40-84 86v512c0 46 38 86 84 86h684z"/><glyph unicode="" glyph-name="hd" d="M618 362.667v128h86v-128h-86zm-64 192v-256h172c24 0 42 18 42 42v172c0 24-18 42-42 42H554zm-84-256v256h-64v-106h-86v106h-64v-256h64v86h86v-86h64zm340 512c46 0 86-40 86-86v-596c0-46-40-86-86-86H214c-48 0-86 40-86 86v596c0 46 38 86 86 86h596z"/><glyph unicode="" glyph-name="sort_by_alpha" d="M672 250.667h260v-68H568v54l252 366H570v68h354v-54zm-460 106h166l-84 222zm48 314h70l192-488h-78l-40 104H186l-40-104H68zm178-558h198l-100-100zm200 628H436l100 100z"/><glyph unicode="" glyph-name="airplay" d="M896 810.667c46 0 86-40 86-86v-512c0-46-40-84-86-84H726v84h170v512H128v-512h170v-84H128c-46 0-86 38-86 84v512c0 46 40 86 86 86h768zm-640-810l256 256 256-256H256z"/><glyph unicode="" glyph-name="forward_10" d="M564 290.667c0-6.531 12.65-14 20-14 4 0 10 0 14 4l8 10s4 8 4 12v86s-4 8-4 12c0 5.505-16.424 14-22 14-4 0-8-2-12-6l-8-8s-6-8-6-12v-86s6-8 6-12zm80 42c0-12 0-26-4-34l-12-26s-14-12-22-12-18-4-26-4-18 0-26 4-12 8-20 12c-13.488 6.744-18 39.492-18 60v30c0 12 0 26 4 34l14 26s12 12 20 12 18 4 26 4 18 0 26-4 14-8 22-12 8-14 12-26 4-22 4-34v-30zm-178-76h-40v140l-42-12v30l76 24h6v-182zm-296 128c0 188 154 340 342 340v172l214-214-214-214v172c-140 0-256-116-256-256s116-256 256-256 256 116 256 256h86c0-188-154-342-342-342s-342 154-342 342z"/><glyph unicode="" glyph-name="forward_30" d="M170 384.667c0 188 154 340 342 340v172l214-214-214-214v172c-140 0-256-116-256-256s116-256 256-256 256 116 256 256h86c0-188-154-342-342-342s-342 154-342 342zm398-94c0-6.531 12.65-14 20-14 4 0 10 0 14 4l8 10s4 8 4 12v86s-4 8-4 12c0 5.505-16.424 14-22 14-4 0-8-2-12-6l-8-8s-4-8-4-12v-86s4-8 4-12zm84 42c0-12 0-26-4-34l-12-26s-14-12-22-12-18-4-26-4c-20.252 0-32.299 9.149-46 16-8 4-8 14-12 26s-6 22-6 34v30c0 12 2 26 6 34l12 26s14 12 22 12 16 4 24 4 18 0 26-4 14-8 22-12 8-14 12-26 4-22 4-34v-30zm-226 30c16.239 0 30 9.918 30 26v8s-4 4-4 8-4 4-8 4h-22s-4-4-8-4-4-4-4-8v-8h-44c0 19.788 17.639 46 36 46 4 0 16 4 20 4 17.345 0 35.264-5.632 48-12 10.13-5.065 16-24.218 16-38v-14s-4-8-4-12-4-8-8-8-10-6-14-10c8-4 18-8 22-16s8-18 8-26 0-18-4-22-8-12-12-16-14-8-22-8-18-4-26-4-16 0-20 4-14 4-22 8c-11.162 5.581-18 27.017-18 42h36v-8s4-4 4-8 4-4 8-4h22s4 4 8 4 4 4 4 8v22s-4 4-4 8-4 4-8 4h-26v30h16z"/><glyph unicode="" glyph-name="forward_5" d="M500 358.667c-3.584-1.434-14-4.805-14-8 0-4-4-6-4-6h-26l10 94h102v-30h-74l-4-38s4 0 4 4 6 2 6 6 4 0 8 0h8c8 0 18-2 22-6s12-8 16-12c8.873-8.873 18-27.257 18-46 0-8 0-18-4-22s-6-14-14-22c-11.246-11.246-26.59-16-46-16-8 0-18 0-22 4s-12 4-20 8c-11.191 5.596-18 22.554-18 38h34c0-14.809 10.59-20 26-20 4 0 8 0 12 4l10 8s4 8 4 12v26l-4 8-10 10s-8 4-12 4h-8zm-330 26c0 188 154 340 342 340v172l214-214-214-214v172c-140 0-256-116-256-256s116-256 256-256 256 116 256 256h86c0-188-154-342-342-342s-342 154-342 342z"/><glyph unicode="" glyph-name="replay_10" d="M564 290.667c0-6.531 12.65-14 20-14 4 0 10 0 14 4l8 10s4 8 4 12v86s-4 8-4 12c0 5.505-16.424 14-22 14-4 0-8-2-12-6l-8-8s-6-8-6-12v-86s6-8 6-12zm84 42c0-12 0-26-4-34l-12-26s-14-12-22-12-18-4-26-4-18 0-26 4-12 8-20 12c-13.488 6.744-18 39.492-18 60v30c0 12 0 26 4 34l14 26s12 12 20 12 18 4 26 4 18 0 26-4 14-8 22-12 8-14 12-26 4-22 4-34v-30zm-182-76h-40v140l-42-12v30l76 24h6v-182zm46 468c188 0 342-152 342-340s-154-342-342-342-342 154-342 342h86c0-140 116-256 256-256s256 116 256 256-116 256-256 256v-172l-214 214 214 214v-172z"/><glyph unicode="" glyph-name="replay_30" d="M572 290.667c0-7.531 13.843-14 22-14 4 0 8 0 12 4l8 10s4 8 4 12v86c0 4-4 8-4 12 0 4.671-15.121 14-20 14-4 0-10-2-14-6l-8-8s-4-8-4-12v-86s4-8 4-12zm80 42c0-12 0-26-4-34l-12-26s-14-12-22-12-18-4-26-4c-20.252 0-32.299 9.149-46 16-8 4-8 14-12 26s-6 22-6 34v30c0 12 2 26 6 34l12 26s14 12 22 12 16 4 24 4 18 0 26-4 14-8 22-12 8-14 12-26 4-22 4-34v-30zm-226 30c16.239 0 30 9.918 30 26v8s-4 4-4 8-4 4-8 4h-22s-4-4-8-4-4-4-4-8v-8h-44c0 19.788 17.639 46 36 46 4 0 16 4 20 4 17.345 0 35.264-5.632 48-12 10.13-5.065 16-24.218 16-38v-14s-4-8-4-12-4-8-8-8-10-6-14-10c8-4 18-8 22-16s8-18 8-26 0-18-4-22-8-12-12-16-14-8-22-8-18-4-26-4-16 0-20 4-14 4-22 8c-11.162 5.581-18 27.017-18 42h36v-8s4-4 4-8 4-4 8-4h22s4 4 8 4 4 4 4 8v22s-4 4-4 8-4 4-8 4h-26v30h16zm86 362c188 0 342-152 342-340s-154-342-342-342-342 154-342 342h86c0-140 116-256 256-256s256 116 256 256-116 256-256 256v-172l-214 214 214 214v-172z"/><glyph unicode="" glyph-name="replay_5" d="M504 358.667c-3.584-1.434-14-4.805-14-8 0-4-4-6-4-6h-30l10 94h102v-30h-74l-4-38s4 0 4 4 6 2 6 6 4 0 8 0h8c8 0 18-2 22-6s12-8 16-12c8.873-8.873 18-27.257 18-46 0-8 0-18-4-22s-6-14-14-22-12-8-16-12-18-4-26-4-18 0-22 4-12 4-20 8c-11.191 5.596-18 22.554-18 38h34c0-14.809 10.59-20 26-20 4 0 8 0 12 4l10 8s4 8 4 12v26l-4 8-10 10s-8 4-12 4h-8zm8 366c188 0 342-152 342-340s-154-342-342-342-342 154-342 342h86c0-140 116-256 256-256s256 116 256 256-116 256-256 256v-172l-214 214 214 214v-172z"/><glyph unicode="" glyph-name="add_to_queue" d="M682 512.667v-86H554v-128h-84v128H342v86h128v128h84v-128h128zm214-300v512H128v-512h768zm0 598c46 0 86-38 86-86l-2-512c0-46-38-84-84-84H682v-86H342v86H128c-48 0-86 38-86 84v512c0 48 38 86 86 86h768z"/><glyph unicode="" glyph-name="fiber_dvr" d="M896 448.667v42c0 36-28 64-64 64H682v-256h64v86h50l36-86h64l-38 90c22 10 38 34 38 60zm-358-150l76 256h-64l-44-146-42 146h-64l74-256h64zm-196 64v128c0 36-28 64-64 64H128v-256h150c36 0 64 28 64 64zm554 448c48 0 86-38 86-86v-596c0-46-38-86-86-86H128c-48 0-86 40-86 86v596c0 48 38 86 86 86h768zm-704-320h86v-128h-86v128zm554 0h86v-42h-86v42z"/><glyph unicode="" glyph-name="fiber_new" d="M874 340.667v214h-52v-192h-48v150h-54v-150h-48v192h-54v-214c0-24 20-42 44-42h170c24 0 42 18 42 42zm-298 160v54H406v-256h170v54H470v46h106v54H470v48h106zm-214-202v256h-52v-150l-108 150h-52v-256h52v150l110-150h50zm492 470c48 0 84-38 84-86v-512c0-48-36-86-84-86H170c-48 0-84 38-84 86v512c0 48 36 86 84 86h684z"/><glyph unicode="" glyph-name="playlist_play" d="M726 384.667l212-128-212-128v256zm-640-86v86h554v-86H86zm724 426v-84H86v84h724zm0-170v-86H86v86h724z"/><glyph unicode="" glyph-name="art_track" d="M448 298.667l-96 128-74-96-54 64-74-96h298zm64 256v-256c0-46-40-86-86-86H170c-46 0-84 40-84 86v256c0 46 38 86 84 86h256c46 0 86-40 86-86zm86-342v86h340v-86H598zm340 428v-86H598v86h340zm0-256H598v84h340v-84z"/><glyph unicode="" glyph-name="fiber_manual_record" d="M170 426.667c0 188 154 342 342 342s342-154 342-342-154-342-342-342-342 154-342 342z"/><glyph unicode="" glyph-name="fiber_smart_record" d="M726 756.667c148-38 256-170 256-330s-108-292-256-330v88c100 34 170 130 170 242s-70 208-170 242v88zm-684-330c0 188 154 342 342 342s342-154 342-342-154-342-342-342-342 154-342 342z"/><glyph unicode="" glyph-name="music_video" d="M342 298.667c0 70 58 128 128 128 14 0 28-4 42-8v264h214v-86H598v-300c0-70-58-126-128-126s-128 58-128 128zm554-170v596H128v-596h768zm0 682c46 0 86-40 86-86v-596c0-46-40-86-86-86H128c-46 0-86 40-86 86v596c0 46 40 86 86 86h768z"/><glyph unicode="" glyph-name="subscriptions" d="M682 256.667l-256 138v-278zm256 170v-342c0-46-38-84-84-84H170c-46 0-84 38-84 84v342c0 46 38 86 84 86h684c46 0 84-40 84-86zm-170 426v-84H256v84h512zm86-256H170v86h684v-86z"/><glyph unicode="" glyph-name="playlist_add_check" d="M918 448.667l64-64-298-300-194 192 64 64 130-128zm-832-192v84h340v-84H86zm512 426v-86H86v86h512zm0-170v-86H86v86h512z"/><glyph unicode="" glyph-name="queue_play_next" d="M1024 170.667l-192-192-64 64 128 128-128 128 64 64zm-470 342h128v-86H554v-128h-84v128H342v86h128v128h84v-128zm342 298c46 0 86-38 86-86v-340h-86v340H128v-512h640v-84h-86v-86H342v86H128c-48 0-86 38-86 84v512c0 48 38 86 86 86h768z"/><glyph unicode="" glyph-name="remove_from_queue" d="M682 512.667v-86H342v86h340zm214-300v512H128v-512h768zm0 598c46 0 86-38 86-86l-2-512c0-46-38-84-84-84H682v-86H342v86H128c-48 0-86 38-86 84v512c0 48 38 86 86 86h768z"/><glyph unicode="" glyph-name="slow_motion_video" d="M938 426.667c0-220-168-402-382-424v86c168 22 298 166 298 338s-130 316-298 338v86c214-22 382-204 382-424zm-696-330l60 60c48-36 106-60 168-68v-86c-86 8-164 42-228 94zm-68 288c8-62 32-120 68-166l-60-62c-52 64-86 142-94 228h86zm68 252c-36-48-60-106-68-168H88c8 86 42 164 94 228zm228 128c-62-8-120-32-168-68l-60 60c64 52 142 86 228 94v-86zm86-244l126-94c-85.639-63.694-170.958-127.709-256-192z"/><glyph unicode="" glyph-name="web_asset" d="M810 170.667v426H214v-426h596zm0 598c48 0 86-40 86-86v-512c0-46-40-86-86-86H214c-48 0-86 40-86 86v512c0 46 38 86 86 86h596z"/><glyph unicode="" glyph-name="fiber_pin" d="M854 298.667v256h-54v-150l-106 150h-54v-256h54v150l108-150h52zm-320 0v256h-64v-256h64zm-150 150v42c0 36-28 64-64 64H170v-256h64v86h86c36 0 64 28 64 64zm470 320c48 0 84-38 84-86v-512c0-48-36-86-84-86H170c-48 0-84 38-84 86v512c0 48 36 86 84 86h684zm-620-278h86v-42h-86v42z"/><glyph unicode="" glyph-name="branding_watermark" d="M896 128.667v256H512v-256h384zm0 682c46 0 86-40 86-86v-596c0-46-40-86-86-86H128c-46 0-86 40-86 86v596c0 46 40 86 86 86h768z"/><glyph unicode="" glyph-name="call_to_action" d="M896 128.667v128H128v-128h768zm0 682c46 0 86-40 86-86v-596c0-46-40-86-86-86H128c-46 0-86 40-86 86v596c0 46 40 86 86 86h768z"/><glyph unicode="" glyph-name="featured_play_list" d="M512 640.667v84H128v-84h384zm0-172v86H128v-86h384zm384 342c46 0 86-40 86-86v-596c0-46-40-86-86-86H128c-46 0-86 40-86 86v596c0 46 40 86 86 86h768z"/><glyph unicode="" glyph-name="featured_video" d="M512 426.667v298H128v-298h384zm384 384c46 0 86-40 86-86v-596c0-46-40-86-86-86H128c-46 0-86 40-86 86v596c0 46 40 86 86 86h768z"/><glyph unicode="" glyph-name="note" d="M640 704.667v-236h234zm298-192v-342c0-46-38-84-84-84l-684-2c-46 0-84 40-84 86v512c0 46 38 86 84 86h512z"/><glyph unicode="" glyph-name="video_call" d="M598 384.667v84H470v128h-86v-128H256v-84h128v-128h86v128h128zm128 106l170 170v-468l-170 170v-150c0-24-20-42-44-42H170c-24 0-42 18-42 42v428c0 24 18 42 42 42h512c24 0 44-18 44-42v-150z"/><glyph unicode="" glyph-name="video_label" d="M896 256.667v468H128v-468h768zm0 554c46 0 86-40 86-86v-596c0-46-40-86-86-86H128c-46 0-86 40-86 86v596c0 46 40 86 86 86h768z"/><glyph unicode="" glyph-name="call_end" d="M512 554.667c-68 0-134-10-196-30v-132c0-16-10-34-24-40-42-20-80-46-114-78-8-8-18-12-30-12s-22 4-30 12l-106 106c-8 8-12 18-12 30s4 22 12 30c130 124 306 200 500 200s370-76 500-200c8-8 12-18 12-30s-4-22-12-30l-106-106c-8-8-18-12-30-12s-22 4-30 12c-34 32-72 58-114 78-14 6-24 20-24 38v132c-62 20-128 32-196 32z"/><glyph unicode="" glyph-name="call_made" d="M384 724.667h426v-426h-84v282l-496-496-60 60 496 496H384v84z"/><glyph unicode="" glyph-name="call_missed" d="M836 640.667l60-60-384-384-298 298v-196h-86v342h342v-86H274l238-238z"/><glyph unicode="" glyph-name="call_received" d="M854 708.667l-496-496h282v-84H214v426h84v-282l496 496z"/><glyph unicode="" glyph-name="call_split" d="M426 768.667l-98-98 226-226v-360h-84v324l-202 202-98-98v256h256zm172 0h256v-256l-98 98-124-124-60 60 124 124z"/><glyph unicode="" glyph-name="chat" d="M768 596.667v86H256v-86h512zm-170-256v86H256v-86h342zm-342 214v-86h512v86H256zm598 298c46 0 84-38 84-84v-512c0-46-38-86-84-86H256L86 .667v768c0 46 38 84 84 84h684z"/><glyph unicode="" glyph-name="clear_all" d="M298 640.667h598v-86H298v86zm-170-428v86h598v-86H128zm86 172v84h596v-84H214z"/><glyph unicode="" glyph-name="comment2" d="M768 596.667v86H256v-86h512zm0-128v86H256v-86h512zm0-128v86H256v-86h512zm170 428v-768l-170 170H170c-46 0-84 40-84 86v512c0 46 38 84 84 84h684c46 0 84-38 84-84z"/><glyph unicode="" glyph-name="contacts" d="M726 212.667v64c0 72-142 108-214 108s-214-36-214-108v-64h428zm-214 438c-52 0-96-44-96-96s44-96 96-96 96 44 96 96-44 96-96 96zm342 118c46 0 84-40 84-86v-512c0-46-38-86-84-86H170c-46 0-84 40-84 86v512c0 46 38 86 84 86h684zm-684-854v86h684v-86H170zm684 1024v-86H170v86h684z"/><glyph unicode="" glyph-name="dialer_sip" d="M854 276.667c24 0 42-18 42-42v-150c0-24-18-42-42-42-400 0-726 326-726 726 0 24 18 42 42 42h150c24 0 42-18 42-42 0-54 8-104 24-152 4-14 2-32-10-44l-94-94c62-122 162-220 282-282l94 94c12 12 30 14 44 10 48-16 98-24 152-24zm0 448v44h-44v-44h44zm-86 86h128v-128h-86v-86h-42v214zm-128-86v-128H512v44h86v42h-86v128h128v-42h-86v-44h86zm86 86v-214h-44v214h44z"/><glyph unicode="" glyph-name="dialpad" d="M512 896.667c46 0 86-40 86-86s-40-86-86-86-86 40-86 86 40 86 86 86zm0-256c46 0 86-40 86-86s-40-86-86-86-86 40-86 86 40 86 86 86zm256 0c46 0 86-40 86-86s-40-86-86-86-86 40-86 86 40 86 86 86zm0-256c46 0 86-40 86-86s-40-86-86-86-86 40-86 86 40 86 86 86zm-256 0c46 0 86-40 86-86s-40-86-86-86-86 40-86 86 40 86 86 86zm256 340c-46 0-86 40-86 86s40 86 86 86 86-40 86-86-40-86-86-86zm-512-340c46 0 86-40 86-86s-40-86-86-86-86 40-86 86 40 86 86 86zm0 256c46 0 86-40 86-86s-40-86-86-86-86 40-86 86 40 86 86 86zm0 256c46 0 86-40 86-86s-40-86-86-86-86 40-86 86 40 86 86 86zm256-768c46 0 86-40 86-86s-40-86-86-86-86 40-86 86 40 86 86 86z"/><glyph unicode="" glyph-name="import_export" d="M682 212.667h128l-170-170-170 170h128v300h84v-300zm-298 598l170-170H426v-300h-84v300H214z"/><glyph unicode="" glyph-name="invert_colors_off" d="M512 720.667l-98-96-60 60 158 158 242-242c104-104 126-258 68-384l-310 308v196zm0-618v206l-204 204c-34-44-52-98-52-154 0-137.583 118.4-256 256-256zm370-54l14-16-54-54-116 116c-62-50-138-76-214-76-88 0-176 34-242 100-124 126-132 322-24 456l-118 118 54 54c232.99-232.99 464.706-467.32 700-698z"/><glyph unicode="" glyph-name="live_help" d="M642 500.667c24 24 40 58 40 96 0 94-76 172-170 172s-170-78-170-172h84c0 46 40 86 86 86s86-40 86-86c0-24-10-44-26-60l-52-54c-30-32-50-74-50-120v-22h84c0 64 20 90 50 122zm-88-330v86h-84v-86h84zm256 682c46 0 86-38 86-84v-598c0-46-40-86-86-86H640l-128-128-128 128H214c-48 0-86 40-86 86v598c0 46 38 84 86 84h596z"/><glyph unicode="" glyph-name="location_off" d="M500 448.667c118.353-116.98 236.568-234.098 354-352l-54-54-144 142c-72-106-144-184-144-184s-298 330-298 554c0 22 4 44 8 66l-136 136 54 54 356-356zm12 212c-32 0-58-14-78-36l-138 136c54 56 132 92 216 92 166 0 298-132 298-298 0-72-30-154-72-234l-154 156c22 20 34 46 34 78 0 58-48 106-106 106z"/><glyph unicode="" glyph-name="message" d="M768 596.667v86H256v-86h512zm0-128v86H256v-86h512zm0-128v86H256v-86h512zm86 512c46 0 84-38 84-84v-512c0-46-38-86-84-86H256L86 .667v768c0 46 38 84 84 84h684z"/><glyph unicode="" glyph-name="chat_bubble" d="M854 852.667c46 0 84-38 84-84v-512c0-46-38-86-84-86H256L86 .667v768c0 46 38 84 84 84h684z"/><glyph unicode="" glyph-name="chat_bubble_outline" d="M854 256.667v512H170v-598l86 86h598zm0 596c46 0 84-38 84-84v-512c0-46-38-86-84-86H256L86 .667v768c0 46 38 84 84 84h684z"/><glyph unicode="" glyph-name="phone2" d="M282 478.667c62-120 162-220 282-282l94 94c12 12 30 16 44 10 48-16 100-24 152-24 24 0 42-18 42-42v-150c0-24-18-42-42-42-400 0-726 326-726 726 0 24 18 42 42 42h150c24 0 42-18 42-42 0-54 8-104 24-152 4-14 2-32-10-44z"/><glyph unicode="" glyph-name="portable_wifi_off" d="M140 832.667l42-44 714-714-54-54-320 322h-2l-8-2c-46 0-86 40-86 86l2 8-68 68c-12-24-18-48-18-76 0-64 34-118 84-148l-42-74c-76 44-128 128-128 222 0 52 14 98 40 138l-60 62c-40-56-66-124-66-200 0-126 68-236 170-296l-42-74c-128 74-212 212-212 370 0 98 32 190 88 262l-88 90zm372-64c-58 0-112-14-160-40l-62 62c64 40 140 62 222 62 236 0 426-190 426-426 0-82-22-158-62-222l-64 62c26 48 42 102 42 160 0 188-154 342-342 342zm238-438l-70 70c2 8 2 18 2 26 0 94-76 170-170 170-8 0-18 0-26-2l-70 70c30 12 62 18 96 18 142 0 256-114 256-256 0-34-6-66-18-96z"/><glyph unicode="" glyph-name="contact_phone" d="M762 340.667c-10 26-16 56-16 86s6 60 16 86h70l64 84-84 86c-56-42-98-100-118-170-8-28-12-56-12-86s4-58 12-86c20-68 62-128 118-170l84 86-64 84h-70zm-164-170v42c0 86-170 132-256 132s-256-46-256-132v-42h512zm-256 512c-70 0-128-58-128-128s58-128 128-128 128 58 128 128-58 128-128 128zm596 128c46 0 86-40 86-86v-596c0-46-40-86-86-86H86c-46 0-86 40-86 86v596c0 46 40 86 86 86h852z"/><glyph unicode="" glyph-name="contact_mail" d="M938 426.667v256H598v-256h340zm-340-256v42c0 86-170 132-256 132s-256-46-256-132v-42h512zm-256 512c-70 0-128-58-128-128s58-128 128-128 128 58 128 128-58 128-128 128zm596 128c46 0 86-40 86-86v-596c0-46-40-86-86-86H86c-46 0-86 40-86 86v596c0 46 40 86 86 86h852zm-42-214l-128-84-128 84v44l128-86 128 86v-44z"/><glyph unicode="" glyph-name="ring_volume" d="M274 520.667s-148 148-152 150l60 62 152-152zm280 332v-212h-84v212h84zm348-182c-4-2-152-150-152-150l-60 60 152 152zm110-444c8-8 12-18 12-30s-4-22-12-30l-106-106c-8-8-18-12-30-12s-22 4-30 12c-34 32-72 60-114 80-14 6-24 22-24 38v132c-62 20-128 30-196 30s-134-10-196-30v-132c0-18-10-34-24-40-42-20-80-46-114-78-8-8-18-12-30-12s-22 4-30 12l-106 106c-8 8-12 18-12 30s4 22 12 30c130 124 306 200 500 200s370-76 500-200z"/><glyph unicode="" glyph-name="speaker_phone" d="M640 84.667v342H384v-342h256zm-6 426c26 0 48-22 48-48v-414c0-26-22-48-48-48H390c-26 0-48 22-48 48v414c0 26 22 50 48 50zm-122 386c128 0 246-54 330-138l-60-60c-70 70-164 112-270 112s-200-42-270-112l-60 60c84 84 202 138 330 138zm-214-260c54 54 130 88 214 88s160-34 214-88l-62-60c-38 38-92 62-152 62s-114-24-152-62z"/><glyph unicode="" glyph-name="stay_primary_landscape" d="M810 640.667H214v-428h596v428zm-766 0c0 46 38 84 84 84h768c46 0 86-38 86-84v-428c0-46-40-84-86-84H128c-46 0-86 38-86 84z"/><glyph unicode="" glyph-name="stay_primary_portrait" d="M726 128.667v596H298v-596h428zm0 766c46 0 84-38 84-84v-768c0-46-38-86-84-86H298c-46 0-84 40-84 86v768c0 46 38 86 84 86z"/><glyph unicode="" glyph-name="swap_calls" d="M768 768.667l170-172H810v-298c0-94-76-170-170-170s-170 76-170 170v298c0 46-40 86-86 86s-86-40-86-86v-298h128l-170-170-170 170h128v298c0 94 76 172 170 172s170-78 170-172v-298c0-46 40-86 86-86s86 40 86 86v298H598z"/><glyph unicode="" glyph-name="textsms" d="M726 468.667v86h-86v-86h86zm-172 0v86h-84v-86h84zm-170 0v86h-86v-86h86zm470 384c46 0 84-38 84-84v-512c0-46-38-86-84-86H256L86 .667v768c0 46 38 84 84 84h684z"/><glyph unicode="" glyph-name="voicemail" d="M790 298.667c82 0 148 68 148 150s-66 148-148 148-150-66-150-148 68-150 150-150zm-556 0c82 0 150 68 150 150s-68 148-150 148-148-66-148-148 66-150 148-150zm556 384c130 0 234-104 234-234s-104-236-234-236H234c-130 0-234 106-234 236s104 234 234 234 236-104 236-234c0-56-20-110-54-150h192c-34 40-54 94-54 150 0 130 106 234 236 234z"/><glyph unicode="" glyph-name="vpn_key" d="M298 340.667c46 0 86 40 86 86s-40 86-86 86-84-40-84-86 38-86 84-86zm242 172h442v-172h-86v-170H726v170H540c-34-100-130-170-242-170-142 0-256 114-256 256s114 256 256 256c112 0 208-70 242-170z"/><glyph unicode="" glyph-name="phonelink_erase" d="M810 896.667c46 0 86-40 86-86v-768c0-46-40-86-86-86H384c-46 0-86 40-86 86v128h86v-86h426v684H384v-86h-86v128c0 46 40 86 86 86h426zm-256-308l-170-170 170-172-42-42-170 170-172-170-42 42 170 172-170 170 42 42 172-170 170 170z"/><glyph unicode="" glyph-name="phonelink_lock" d="M406 468.667v64c0 34-30 56-64 56s-64-22-64-56v-64h128zm54 0c26 0 52-24 52-54v-150c0-26-26-52-56-52H222c-26 0-52 26-52 56v150c0 26 26 50 52 50v64c0 60 60 108 120 108s118-48 118-108v-64zm350 428c46 0 86-40 86-86v-768c0-46-40-86-86-86H384c-46 0-86 40-86 86v128h86v-86h426v684H384v-86h-86v128c0 46 40 86 86 86h426z"/><glyph unicode="" glyph-name="phonelink_ring" d="M598 84.667v684H170v-684h428zm0 812c46 0 84-40 84-86v-768c0-46-38-86-84-86H170c-46 0-84 40-84 86v768c0 46 38 86 84 86h428zm170-376c52-56 52-132 0-184l-42 44c22 30 22 68 0 98zm90 90c106-102 106-266 0-364l-44 44c76 82 76 200 0 276z"/><glyph unicode="" glyph-name="phonelink_setup" d="M810 896.667c46 0 86-40 86-86v-768c0-46-40-86-86-86H384c-46 0-86 40-86 86v128h86v-86h426v684H384v-86h-86v128c0 46 40 86 86 86h426zm-468-556c46 0 84 40 84 86s-38 86-84 86-86-40-86-86 40-86 86-86zm162 64l46-38c4-4 8-8 4-12l-42-74c-4-4-8-4-12-4l-56 22c-12-8-26-18-38-22l-10-54c-4-4-8-10-12-10h-86c-4 0-12 6-8 10l-8 54c-12 4-26 14-38 22l-60-18c-4-4-10 2-14 6l-42 72c0 4 0 8 4 16l48 34v44l-48 34c-4 4-8 8-4 12l42 74c4 4 10 4 14 4l54-22c12 8 28 18 40 22l8 54c4 4 8 10 12 10h86c8 0 12-6 12-10l10-54c12-4 26-14 38-22l56 18c4 4 8-2 12-6l42-72c0-4 0-8-4-12l-46-34v-44z"/><glyph unicode="" glyph-name="present_to_all" d="M426 426.667h-84l170 170 170-170h-84v-170H426v170zm470-300v600H128v-600h768zm0 684c48 0 86-38 86-86v-596c0-48-38-86-86-86H128c-48 0-86 38-86 86v596c0 48 38 86 86 86h768z"/><glyph unicode="" glyph-name="import_contacts" d="M896 148.667v492c-46 14-98 20-150 20-72 0-176-28-234-64v-490c58 36 162 64 234 64 52 0 104-8 150-22zm-150 598c88.409 0 181.498-22.075 236-64v-622c0-10-12-22-22-22-4 0-6 0-10 2-60 32-134 44-204 44-72 0-176-28-234-64-62 46-150 64-234 64-62 0-146-18-204-46-4 0-6-2-10-2-10 0-22 10-22 20v626c62 46 152 64 236 64s172-18 234-64c62 46 150 64 234 64z"/><glyph unicode="" glyph-name="mail_outline" d="M512 468.667l342 214H170zm342-298v426l-342-212-342 212v-426h684zm0 598c46 0 84-40 84-86v-512c0-46-38-86-84-86H170c-46 0-84 40-84 86v512c0 46 38 86 84 86h684z"/><glyph unicode="" glyph-name="screen_share" d="M554 320.667l172 160-172 160v-92c-166-24-232-136-256-250 60 80 138 116 256 116v-94zm300-150h170v-86H0v86h170c-48 0-84 40-84 86v426c0 48 36 86 84 86h684c46 0 84-38 84-86v-426c0-46-38-86-84-86z"/><glyph unicode="" glyph-name="stop_screen_share" d="M298 298.667c40 56 90 88 156 104l-68 68c-50-48-74-108-88-172zm-196 566l842-842-54-54-116 116H0v86h170c-48 0-84 38-84 84v428c0 26 10 46 28 62l-66 66zm836-610c0-32-18-60-44-74l-236 236 68 64-172 158v-90c-8-2-14-2-22-4l-224 222h546c46 0 84-36 84-84v-428zm-32-84h118v-86h-34z"/><glyph unicode="" glyph-name="call_missed_outgoing" d="M128 580.667l60 60 324-324 238 238H554v86h342v-342h-86v196l-298-298z"/><glyph unicode="" glyph-name="rss_feed" d="M170 508.667c234 0 424-190 424-424H472c0 166-136 302-302 302v122zm0 240c366 0 664-298 664-664H714c0 300-244 544-544 544v120zm0-570c0 52 42 92 94 92s92-40 92-92-40-94-92-94-94 42-94 94z"/><glyph unicode="" glyph-name="add" d="M810 384.667H554v-256h-84v256H214v84h256v256h84v-256h256v-84z"/><glyph unicode="" glyph-name="add_box" d="M726 384.667v84H554v172h-84v-172H298v-84h172v-172h84v172h172zm84 426c46 0 86-40 86-86v-596c0-46-40-86-86-86H214c-48 0-86 40-86 86v596c0 46 38 86 86 86h596z"/><glyph unicode="" glyph-name="add_circle" d="M726 384.667v84H554v172h-84v-172H298v-84h172v-172h84v172h172zm-214 468c236 0 426-190 426-426s-190-426-426-426-426 190-426 426 190 426 426 426z"/><glyph unicode="" glyph-name="archive2" d="M218 724.667h588l-40 44H254zm294-532l234 234H598v86H426v-86H278zm364 522c12-14 20-34 20-54v-532c0-46-40-86-86-86H214c-46 0-86 40-86 86v532c0 20 8 40 20 54l58 72c12 14 30 24 50 24h512c20 0 38-10 50-24z"/><glyph unicode="" glyph-name="backspace" d="M810 272.667l-152 154 152 154-60 60-152-154-154 154-60-60 154-154-154-154 60-60 154 154 152-154zm128 538c46 0 86-40 86-86v-596c0-46-40-86-86-86H298c-30 0-52 16-68 38l-230 346 230 346c16 22 38 38 68 38h640z"/><glyph unicode="" glyph-name="block" d="M512 84.667c188 0 342 154 342 342 0 78-26 152-72 210l-480-480c58-46 132-72 210-72zm-342 342c0-78 26-152 72-210l480 480c-58 46-132 72-210 72-188 0-342-154-342-342zm342 426c236 0 426-190 426-426s-190-426-426-426-426 190-426 426 190 426 426 426z"/><glyph unicode="" glyph-name="content_copy" d="M810 42.667v598H342v-598h468zm0 682c46 0 86-38 86-84v-598c0-46-40-86-86-86H342c-46 0-86 40-86 86v598c0 46 40 84 86 84h468zm-128 172v-86H170v-598H86v598c0 46 38 86 84 86h512z"/><glyph unicode="" glyph-name="content_cut" d="M810 810.667h128v-42l-298-300-86 86zm-298-406c12 0 22 10 22 22s-10 22-22 22-22-10-22-22 10-22 22-22zm-256-320c46 0 86 38 86 86s-40 86-86 86-86-38-86-86 40-86 86-86zm0 512c46 0 86 38 86 86s-40 86-86 86-86-38-86-86 40-86 86-86zm156 16l526-528v-42H810l-298 298-100-100c10-22 14-44 14-70 0-94-76-170-170-170s-170 76-170 170 76 170 170 170c26 0 48-4 70-14l100 100-100 100c-22-10-44-14-70-14-94 0-170 76-170 170s76 170 170 170 170-76 170-170c0-26-4-48-14-70z"/><glyph unicode="" glyph-name="content_paste" d="M810 84.667v684h-84v-128H298v128h-84v-684h596zm-298 768c-24 0-42-18-42-42s18-42 42-42 42 18 42 42-18 42-42 42zm298 0c46 0 86-38 86-84v-684c0-46-40-84-86-84H214c-46 0-86 38-86 84v684c0 46 40 84 86 84h178c18 50 64 86 120 86s102-36 120-86h178z"/><glyph unicode="" glyph-name="drafts" d="M512 384.667l352 220-352 206-352-206zm426 212v-426c0-46-38-86-84-86H170c-46 0-84 40-84 86v426c0 30 16 60 40 74l386 226 386-226c24-14 40-44 40-74z"/><glyph unicode="" glyph-name="filter_list" d="M256 384.667v84h512v-84H256zm-128 298h768v-86H128v86zm298-512v86h172v-86H426z"/><glyph unicode="" glyph-name="flag2" d="M614 682.667h240v-426H554l-16 84H298v-298h-84v726h384z"/><glyph unicode="" glyph-name="forward2" d="M512 596.667v172l342-342-342-342v172H170v340h342z"/><glyph unicode="" glyph-name="gesture" d="M592 146.667c30 0 80 36 92 150-92-24-124-92-124-118 0-20 18-32 32-32zm-396 498l-74 72c10 12 20 24 36 40 10 10 60 54 116 54 38 0 108-30 108-122 0-58-22-92-56-140-20-28-64-104-78-150-16-46-6-82 14-82 18 0 38 24 48 36 10 10 74 84 98 116 32 40 114 120 210 120 126 0 166-108 172-178h106v-106H792c-18-204-132-262-202-262-76 0-136 60-136 132s68 202 230 230c-4 34-6 76-76 76-54 0-122-82-174-146-48-58-84-104-130-118-99.552-31.437-170 56.487-170 146 0 104 112 252 122 270 12 20 34 56 12 64-14 6-42-22-72-52z"/><glyph unicode="" glyph-name="inbox2" d="M810 298.667v426H212v-426h172c0-70 58-128 128-128s128 58 128 128h170zm0 512c46 0 86-38 86-86v-596c0-46-40-86-86-86H212c-48 0-84 40-84 86v596c0 48 36 86 84 86h598z"/><glyph unicode="" glyph-name="link2" d="M726 640.667c118 0 212-96 212-214s-94-214-212-214H554v82h172c72 0 132 60 132 132s-60 132-132 132H554v82h172zm-384-256v84h340v-84H342zm-176 42c0-72 60-132 132-132h172v-82H298c-118 0-212 96-212 214s94 214 212 214h172v-82H298c-72 0-132-60-132-132z"/><glyph unicode="" glyph-name="markunread" d="M854 596.667v86l-342-214-342 214v-86l342-212zm0 172c46 0 84-40 84-86v-512c0-46-38-86-84-86H170c-46 0-84 40-84 86v512c0 46 38 86 84 86h684z"/><glyph unicode="" glyph-name="redo" d="M786 486.667l152 154v-384H554l156 154c-60 50-136 80-220 80-152 0-280-98-324-234l-100 32c58 178 226 308 424 308 114 0 218-42 296-110z"/><glyph unicode="" glyph-name="remove2" d="M810 384.667H214v84h596v-84z"/><glyph unicode="" glyph-name="remove_circle" d="M726 384.667v84H298v-84h428zm-214 468c236 0 426-190 426-426s-190-426-426-426-426 190-426 426 190 426 426 426z"/><glyph unicode="" glyph-name="remove_circle_outline" d="M512 84.667c188 0 342 154 342 342s-154 342-342 342-342-154-342-342 154-342 342-342zm0 768c236 0 426-190 426-426s-190-426-426-426-426 190-426 426 190 426 426 426zm-214-384h428v-84H298v84z"/><glyph unicode="" glyph-name="reply2" d="M426 554.667c298-42 428-256 470-470-106 150-256 218-470 218v-174l-298 298 298 298v-170z"/><glyph unicode="" glyph-name="reply_all" d="M554 554.667c298-42 428-256 470-470-106 150-256 218-470 218v-174l-298 298 298 298v-170zm-256 42l-170-170 170-170v-128l-298 298 298 298v-128z"/><glyph unicode="" glyph-name="report" d="M554 384.667v256h-84v-256h84zm-42-184c30 0 56 26 56 56s-26 54-56 54-56-24-56-54 26-56 56-56zm160 610l224-224v-320l-224-224H352l-224 224v320l224 224h320z"/><glyph unicode="" glyph-name="save2" d="M640 554.667v170H214v-170h426zm-128-426c70 0 128 58 128 128s-58 128-128 128-128-58-128-128 58-128 128-128zm214 682l170-170v-512c0-46-40-86-86-86H214c-48 0-86 40-86 86v596c0 46 38 86 86 86h512z"/><glyph unicode="" glyph-name="select_all" d="M384 554.667v-256h256v256H384zm-86-342v428h428v-428H298zm342 512v86h86v-86h-86zm0-682v86h86v-86h-86zm170 170v86h86v-86h-86zm0 342v86h86v-86h-86zm0-512v86h86c0-46-40-86-86-86zm0 342v84h86v-84h-86zm-340-342v86h84v-86h-84zm-86 768v-86h-86v86h86zm-256-598v86h86v-86h-86zm86-170c-46 0-86 40-86 86h86v-86zm596 768c46 0 86-40 86-86h-86v86zm-256 0v-86h-84v86h84zm-426-256v86h86v-86h-86zm170-512v86h86v-86h-86zm-170 342v84h86v-84h-86zm0 340c0 46 40 86 86 86v-86h-86z"/><glyph unicode="" glyph-name="send2" d="M86 42.667v298l640 86-640 86v298l896-384z"/><glyph unicode="" glyph-name="sort2" d="M128 384.667v84h512v-84H128zm0 298h768v-86H128v86zm0-512v86h256v-86H128z"/><glyph unicode="" glyph-name="text_format" d="M512 682.667l-80-214h160zm-106-290l-40-94h-88l202 470h64l202-470h-88l-40 94H406zm-192-180h596v-84H214v84z"/><glyph unicode="" glyph-name="undo2" d="M534 596.667c198 0 364-130 424-308l-100-32c-44 136-172 234-324 234-84 0-160-30-220-80l156-154H86v384l152-154c78 68 182 110 296 110z"/><glyph unicode="" glyph-name="font_download" d="M680 148.667h90l-218 556h-80l-218-556h90l48 128h240zm174 704c46 0 84-38 84-84v-684c0-46-38-84-84-84H170c-46 0-84 38-84 84v684c0 46 38 84 84 84h684zm-430-490l88 236 88-236H424z"/><glyph unicode="" glyph-name="move_to_inbox" d="M682 512.667l-170-172-170 172h84v128h172v-128h84zm128-214v426H212v-426h172c0-70 58-128 128-128s128 58 128 128h170zm0 512c46 0 86-40 86-86v-596c0-46-40-86-86-86H212c-48 0-84 40-84 86v596c0 46 36 86 84 86h598z"/><glyph unicode="" glyph-name="unarchive" d="M218 724.667h588l-40 44H254zm294-192l-234-234h148v-86h172v86h148zm364 184c12-14 20-36 20-56v-532c0-46-40-86-86-86H214c-48 0-86 40-86 86v532c0 20 8 42 20 56l58 70c12 14 30 24 50 24h512c20 0 38-10 50-24z"/><glyph unicode="" glyph-name="next_week" d="M470 148.667l170 172-170 170-44-42 128-128-128-128zm-44 576v-84h172v84H426zm172 86c46.645 0 84-38.997 84-86v-84h172c46 0 84-40 84-86v-470c0-46-38-84-84-84H170c-46 0-84 38-84 84v470c0 46 38 86 84 86h172v84c0 46 38 86 84 86h172z"/><glyph unicode="" glyph-name="weekend" d="M768 724.667c46 0 86-38 86-84v-92c-50-18-86-64-86-120v-88H256v88c0 56-36 102-86 120v92c0 46 40 84 86 84h512zm128-212c46 0 86-40 86-86v-214c0-46-40-84-86-84H128c-46 0-86 38-86 84v214c0 46 40 86 86 86s86-40 86-86v-128h596v128c0 46 40 86 86 86z"/><glyph unicode="" glyph-name="delete_sweep" d="M598 724.667v-84H86v84h128l42 44h170l44-44h128zm-470-554v426h426v-426c0-46-38-86-84-86H214c-46 0-86 40-86 86zm512 256h256v-86H640v86zm0 170h298v-84H640v84zm0-340h170v-86H640v86z"/><glyph unicode="" glyph-name="low_priority" d="M86 448.667c0 152 124 276 276 276h150v-84H362c-106 0-192-86-192-192s86-192 192-192h22v84l128-128-128-128v86h-22c-152 0-276 126-276 278zm512-192h340v-86H598v86zm0 234h340v-86H598v86zm0 234h340v-84H598v84z"/><glyph unicode="" glyph-name="access_alarms" d="M512 84.667c166 0 298 134 298 300s-132 298-298 298-298-132-298-298 132-300 298-300zm0 684c214 0 384-170 384-384s-170-384-384-384-384 170-384 384 170 384 384 384zm22-172v-226l170-102-34-52-200 124v256h64zm-196 196l-198-162-54 64 196 162zm600-98l-54-64-198 168 56 64z"/><glyph unicode="" glyph-name="airplanemode_inactive" d="M128 714.667l54 54 672-672-54-54-246 244v-158l86-64v-64l-150 42-148-42v64l84 64v234l-340-106v84l254 160zm426-160l342-214v-84l-136 42-334 334v156c0 36 28 64 64 64s64-28 64-64v-234z"/><glyph unicode="" glyph-name="battery_alert" d="M554 340.667v214h-84v-214h84zm0-170v86h-84v-86h84zm114 598c32 0 58-26 58-58v-654c0-32-26-56-58-56H356c-32 0-58 24-58 56v654c0 32 26 58 58 58h70v84h172v-84h70z"/><glyph unicode="" glyph-name="battery_charging_full" d="M470 84.667l170 320h-86v236l-170-320h86v-236zm198 684c32 0 58-26 58-58v-654c0-32-26-56-58-56H356c-32 0-58 24-58 56v654c0 32 26 58 58 58h70v84h172v-84h70z"/><glyph unicode="" glyph-name="battery_std" d="M668 768.667c32 0 58-26 58-58v-654c0-32-26-56-58-56H356c-32 0-58 24-58 56v654c0 32 26 58 58 58h70v84h172v-84h70z"/><glyph unicode="" glyph-name="battery_unknown" d="M610 396.667c18 18 30 44 30 72 0 70-58 128-128 128s-128-58-128-128h64c0 36 28 64 64 64s64-28 64-64c0-18-6-32-18-44l-40-40c-20-20-40-50-40-86h68c0 20 16 48 36 68 12 12 28 30 28 30zm-58-224v82h-80v-82h80zm116 596c32 0 58-26 58-58v-654c0-32-26-56-58-56H356c-32 0-58 24-58 56v654c0 32 26 58 58 58h70v84h172v-84h70z"/><glyph unicode="" glyph-name="bluetooth2" d="M634 242.667l-80 82v-162zm-80 448v-162l80 82zm202-80l-184-184 184-184-244-242h-42v324l-196-196-60 60 238 238-238 238 60 60 196-196v324h42z"/><glyph unicode="" glyph-name="bluetooth_connected" d="M810 512.667l86-86-86-86-84 86zm-176-270l-80 82v-162zm-80 448v-162l80 82zm202-80l-184-184 184-184-244-242h-42v324l-196-196-60 60 238 238-238 238 60 60 196-196v324h42zm-458-184l-84-86-86 86 86 86z"/><glyph unicode="" glyph-name="bluetooth_disabled" d="M554 162.667l80 80-80 82v-162zm-324 606l624-624-60-60-98 98-184-182h-42v324l-196-196-60 60 238 238-282 282zm324-78v-138l-84 86v214h42l244-242-130-130-60 60 68 70z"/><glyph unicode="" glyph-name="bluetooth_searching" d="M550 242.667l-80 82v-162zm-80 448v-162l80 82zm200-80l-184-184 184-184-244-242h-42v324l-196-196-60 60 238 238-238 238 60 60 196-196v324h42zm164 42c40-64 62-142 62-222 0-84-24-160-66-226l-50 50c26 52 42 110 42 172s-16 120-42 172zm-226-226l98 98c12-30 20-64 20-98s-8-70-20-100z"/><glyph unicode="" glyph-name="brightness_auto" d="M610 256.667h82l-138 384h-84l-138-384h82l30 84h136zm244 312l140-142-140-142v-200H654l-142-140-142 140H170v200l-140 142 140 142v200h200l142 140 142-140h200v-200zm-392-170l50 156 50-156H462z"/><glyph unicode="" glyph-name="brightness_high" d="M512 596.667c94 0 170-76 170-170s-76-170-170-170-170 76-170 170 76 170 170 170zm0-426c142 0 256 114 256 256s-114 256-256 256-256-114-256-256 114-256 256-256zm342 398l140-142-140-142v-200H654l-142-140-142 140H170v200l-140 142 140 142v200h200l142 140 142-140h200v-200z"/><glyph unicode="" glyph-name="brightness_low" d="M512 170.667c142 0 256 114 256 256s-114 256-256 256-256-114-256-256 114-256 256-256zm342 114v-200H654l-142-140-142 140H170v200l-140 142 140 142v200h200l142 140 142-140h200v-200l140-142z"/><glyph unicode="" glyph-name="brightness_medium" d="M512 170.667c142 0 256 114 256 256s-114 256-256 256v-512zm342 114v-200H654l-142-140-142 140H170v200l-140 142 140 142v200h200l142 140 142-140h200v-200l140-142z"/><glyph unicode="" glyph-name="data_usage" d="M512 128.667c94 0 178 44 232 112l112-66c-78-106-202-174-344-174-236 0-426 190-426 426 0 222 168 402 384 424v-128c-144-20-256-146-256-296 0-166 132-298 298-298zm42 722c216-22 384-202 384-424 0-62-12-122-36-174l-112 66c12 34 20 70 20 108 0 150-112 276-256 296v128z"/><glyph unicode="" glyph-name="developer_mode" d="M726 128.667v84h84v-170c0-46-38-86-84-86H298c-46 0-84 40-84 86v170h84v-84h428zm-300 162l-60-60-196 196 196 196 60-60-134-136zm232-60l-60 60 134 136-134 136 60 60 196-196zm-360 494v-84h-84v170c0 46 38 86 84 86l428-2c46 0 84-38 84-84v-170h-84v84H298z"/><glyph unicode="" glyph-name="dvr" d="M298 426.667v-86h-84v86h84zm0 170v-84h-84v84h84zm512-170v-86H342v86h468zm0 170v-84H342v84h468zm86-384v512H128v-512h768zm0 598c46 0 86-40 86-86l-2-512c0-46-38-84-84-84H682v-86H342v86H128c-46 0-86 38-86 84v512c0 46 40 86 86 86h768z"/><glyph unicode="" glyph-name="location_disabled" d="M694 190.667l-418 418c-38-50-62-114-62-182 0-166 132-298 298-298 68 0 132 24 182 62zm-566 566l54 54 714-714-54-54-88 88c-56-46-124-78-200-86v-88h-84v88c-178 20-320 162-340 340H42v84h88c8 76 40 144 86 200zm766-288h88v-84h-88c-6-48-20-96-42-136l-64 64c14 34 22 74 22 114 0 166-132 298-298 298-40 0-80-8-114-22l-64 64c42 22 88 36 136 42v88h84v-88c178-20 320-162 340-340z"/><glyph unicode="" glyph-name="location_searching" d="M512 128.667c166 0 298 132 298 298s-132 298-298 298-298-132-298-298 132-298 298-298zm382 340h88v-84h-88c-20-178-162-320-340-340v-88h-84v88c-178 20-320 162-340 340H42v84h88c20 178 162 320 340 340v88h84v-88c178-20 320-162 340-340z"/><glyph unicode="" glyph-name="graphic_eq" d="M810 512.667h86v-172h-86v172zm-170-342v512h86v-512h-86zm-512 170v172h86v-172h-86zm342-340v852h84v-852h-84zm-172 170v512h86v-512h-86z"/><glyph unicode="" glyph-name="network_cell" d="M938 .667H86l852 852v-852z"/><glyph unicode="" glyph-name="network_wifi" d="M872.5 471.839c.568-.445 1.068-.837 1.5-1.172l-362-448-362 448c.431.335.931.727 1.5 1.172L16 640.667c20 14 210 170 496 170s476-156 496-170z"/><glyph unicode="" glyph-name="nfc" d="M768 682.667v-512H256v512h170v-86h-84v-340h340v340H554v-96c26-14 44-42 44-74 0-46-40-86-86-86s-86 40-86 86c0 32 18 60 44 74v96c0 46 38 86 84 86h214zm86-598v684H170v-684h684zm0 768c46 0 84-38 84-84v-684c0-46-38-84-84-84H170c-46 0-84 38-84 84v684c0 46 38 84 84 84h684z"/><glyph unicode="" glyph-name="wallpaper" d="M170 384.667v-300h300v-84H170c-46 0-84 38-84 84v300h84zm684-300v300h84v-300c0-46-38-84-84-84H554v84h300zm0 768c46 0 84-38 84-84v-300h-84v300H554v84h300zm-128-276c0-36-28-64-64-64s-64 28-64 64 28 64 64 64 64-28 64-64zm-300-192l128-158 86 114 128-170H256zm-256 384v-300H86v300c0 46 38 84 84 84h300v-84H170z"/><glyph unicode="" glyph-name="widgets" d="M710 866.667l242-242-242-240h186v-342H554v342h156l-240 240v-156H128v342h342v-186zm-582-824v342h342v-342H128z"/><glyph unicode="" glyph-name="screen_lock_landscape" d="M460 512.667v-44h104v44c0 28-24 50-52 50s-52-22-52-50zm-34-256c-24 0-42 18-42 42v128c0 24 18 42 42 42v44c0 46 38 84 86 84 46 0 86-36 86-84v-44c24 0 42-18 42-42v-128c0-24-18-42-42-42H426zm384-44v428H214v-428h596zm86 512c46 0 86-38 86-84v-428c0-46-40-84-86-84H128c-46 0-86 38-86 84v428c0 46 40 84 86 84h768z"/><glyph unicode="" glyph-name="screen_lock_portrait" d="M726 128.667v596H298v-596h428zm0 768c46 0 84-40 84-86v-768c0-46-38-86-84-86H298c-46 0-84 40-84 86v768c0 46 38 86 84 86h428zm-266-384v-44h104v44c0 28-24 50-52 50s-52-22-52-50zm-34-256c-24 0-42 18-42 42v128c0 24 18 42 42 42v44c0 46 38 84 86 84 46 0 86-36 86-84v-44c24 0 42-18 42-42v-128c0-24-18-42-42-42H426z"/><glyph unicode="" glyph-name="screen_lock_rotation" d="M716 832.667v-22h146v22c0 40-32 72-72 72s-74-32-74-72zm-34-278c-24 0-42 18-42 42v172c0 24 18 42 42 42v22c0 58 50 106 108 106s106-48 106-106v-22c24 0 42-18 42-42v-172c0-24-18-42-42-42H682zm-320-490l56 56 162-162-28-2c-268 0-488 208-510 470h64c16-160 116-296 256-362zm630 330c26-24 26-66 0-92l-272-270c-24-26-64-26-90 0l-512 512c-26 24-26 64 0 90l270 272c24 26 66 26 92 0l104-104-60-60-90 88-242-240 484-484 240 242-94 94 60 60z"/><glyph unicode="" glyph-name="screen_rotation" d="M320 22.667l58 56 162-162-28-2c-268 0-488 208-510 470h64c16-160 114-296 254-362zm312 12l272 272-512 512-272-272zm-196 830l514-514c26-24 26-64 0-90l-272-272c-24-26-64-26-90 0l-514 514c-26 24-26 64 0 90l272 272c24 26 64 26 90 0zm268-34l-58-56-162 162 28 2c268 0 488-208 510-470h-64c-16 160-114 296-254 362z"/><glyph unicode="" glyph-name="sd_storage" d="M768 596.667v172h-86v-172h86zm-128 0v172h-86v-172h86zm-128 0v172h-86v-172h86zm256 256c46 0 86-38 86-84v-684c0-46-40-84-86-84H256c-46 0-86 38-86 84l2 512 254 256h342z"/><glyph unicode="" glyph-name="settings_system_daydream" d="M896 126.667v600H128v-600h768zm0 684c46 0 86-40 86-86v-596c0-46-40-86-86-86H128c-46 0-86 40-86 86v596c0 46 40 86 86 86h768zm-512-554c-70 0-128 58-128 128 0 66 50 120 114 126h8c24 50 74 86 134 86 76 0 138-56 148-128h2c58 0 106-48 106-106s-48-106-106-106H384z"/><glyph unicode="" glyph-name="signal_cellular_4_bar" d="M86 .667l852 852v-852H86z"/><glyph unicode="" glyph-name="signal_cellular_connected_no_internet_4_bar" d="M86 .667l852 852v-256H768v-596H86zm768 0v84h84v-84h-84zm0 170v342h84v-342h-84z"/><glyph unicode="" glyph-name="signal_cellular_no_sim" d="M156 772.667l746-744-56-56-80 82c-12-6-26-12-40-12H298c-46 0-84 40-84 86v478l-112 112zm654-48v-498l-484 484 100 100h300c46 0 84-40 84-86z"/><glyph unicode="" glyph-name="signal_cellular_null" d="M938 852.667v-852H86zm-84-206l-562-562h562v562z"/><glyph unicode="" glyph-name="signal_cellular_off" d="M204 746.667l734-736-54-54-84 86H42l378 378-270 272zm692 150v-734l-366 366z"/><glyph unicode="" glyph-name="signal_wifi_4_bar" d="M512 22.667l-496 618c20 14 210 170 496 170s476-156 496-170z"/><glyph unicode="" glyph-name="signal_wifi_4_bar_lock" d="M662 320.667v-112l-150-188-494 620c18 12 208 170 494 170s476-158 494-170l-88-112c-12 4-26 4-44 4-120 0-212-92-212-212zm276-64v64c0 34-30 64-64 64s-64-30-64-64v-64h128zm44 0c22 0 42-22 42-44v-170c0-22-20-42-42-42H768c-22 0-42 20-42 42v170c0 22 20 44 42 44v64c0 60 46 106 106 106s108-46 108-106v-64z"/><glyph unicode="" glyph-name="signal_wifi_off" d="M140 876.667c244.604-245.396 490.948-489.052 734-736l-54-54-142 142-166-206-496 618c10 8 64 52 156 94l-86 88zm868-236l-232-290-442 440c54 12 114 20 178 20 286 0 476-156 496-170z"/><glyph unicode="" glyph-name="storage" d="M170 468.667v-84h86v84h-86zm-84-128v172h852v-172H86zm170 300v84h-86v-84h86zm-170 128h852v-172H86v172zm84-556v-84h86v84h-86zm-84-128v172h852v-172H86z"/><glyph unicode="" glyph-name="usb2" d="M640 640.667h170v-172h-42v-84c0-48-38-86-86-86H554v-130c30-16 52-48 52-84 0-52-42-94-94-94s-94 42-94 94c0 36 22 68 52 84v130H342c-48 0-86 38-86 86v88c-30 16-52 46-52 82 0 52 42 94 94 94s94-42 94-94c0-36-20-66-50-82v-88h128v340h-86l128 172 128-172h-86v-340h128v84h-42v172z"/><glyph unicode="" glyph-name="wifi_lock" d="M938 256.667v64c0 36-28 64-64 64s-64-28-64-64v-64h128zm44 0c24 0 42-20 42-44v-170c0-24-18-42-42-42H768c-24 0-42 18-42 42v170c0 24 18 44 42 44v64c0 58 48 106 106 106s108-48 108-106v-64zm-108 276c-118 0-212-94-212-212v-122l-150-198-512 682c142 108 320 170 512 170s370-62 512-170l-114-152c-12 2-24 2-36 2z"/><glyph unicode="" glyph-name="wifi_tethering" d="M512 810.667c236 0 426-190 426-426 0-158-84-296-212-370l-44 74c102 60 172 170 172 296 0 188-154 340-342 340s-342-152-342-340c0-126 68-236 170-296l-42-74c-128 74-212 212-212 370 0 236 190 426 426 426zm256-426c0-94-52-178-128-222l-42 74c50 30 84 84 84 148 0 94-76 170-170 170s-170-76-170-170c0-64 34-118 84-148l-42-74c-76 44-128 128-128 222 0 142 114 256 256 256s256-114 256-256zm-256 84c46 0 86-38 86-84s-40-86-86-86-86 40-86 86 40 84 86 84z"/><glyph unicode="" glyph-name="attach_file" d="M704 682.667h64v-490c0-130-104-236-234-236s-236 106-236 236v532c0 94 78 172 172 172s170-78 170-172v-448c0-58-48-106-106-106s-108 48-108 106v406h64v-406c0-24 20-42 44-42s42 18 42 42v448c0 58-48 108-106 108s-108-50-108-108v-532c0-94 78-172 172-172s170 78 170 172v490z"/><glyph unicode="" glyph-name="attach_money" d="M504 472.667c96-26 200-64 200-186 0-88-66-136-150-152v-92H426v92c-82 18-150 70-156 164h94c4-50 38-90 126-90 94 0 116 46 116 76 0 40-22 78-128 104-120 28-200 78-200 176 0 82 66 136 148 154v92h128v-94c90-22 136-88 138-162h-94c-2 54-32 90-108 90-72 0-114-34-114-80 0-40 32-66 128-92z"/><glyph unicode="" glyph-name="border_all" d="M810 468.667v256H554v-256h256zm0-340v256H554v-256h256zm-340 340v256H214v-256h256zm0-340v256H214v-256h256zm-342 682h768v-768H128v768z"/><glyph unicode="" glyph-name="border_bottom" d="M214 298.667v-86h-86v86h86zm-86-256v86h768v-86H128zm86 426v-84h-86v84h86zm596 86v86h86v-86h-86zm0 256h86v-86h-86v86zm-596-170v-86h-86v86h86zm596-428v86h86v-86h-86zm0 172v84h86v-84h-86zm-84 426v-86h-86v86h86zm-172 0v-86h-84v86h84zm172-342v-84h-86v84h86zm-172 172v-86h-84v86h84zm-340 170v-86h-86v86h86zm340-342v-84h-84v84h84zm-170 342v-86h-86v86h86zm170-512v-86h-84v86h84zm-170 170v-84h-86v84h86z"/><glyph unicode="" glyph-name="border_clear" d="M640 724.667v86h86v-86h-86zm0-340v84h86v-84h-86zm0-342v86h86v-86h-86zm-170 682v86h84v-86h-84zm340 86h86v-86h-86v86zm-340-256v86h84v-86h-84zm340 0v86h86v-86h-86zm0-512v86h86v-86h-86zm0 342v84h86v-84h-86zm0-172v86h86v-86h-86zm-340 172v84h84v-84h-84zm-342 340v86h86v-86h-86zm0-170v86h86v-86h-86zm0-170v84h86v-84h-86zm0-172v86h86v-86h-86zm0-170v86h86v-86h-86zm342 0v86h84v-86h-84zm0 170v86h84v-86h-84zm-172-170v86h86v-86h-86zm0 342v84h86v-84h-86zm0 340v86h86v-86h-86z"/><glyph unicode="" glyph-name="border_color" d="M0 84.667h1024v-170H0v170zm884 682l-84-84-160 160 84 84c16 16 44 16 60 0l100-100c16-16 16-44 0-60zm-126-126l-428-428H170v160l428 428z"/><glyph unicode="" glyph-name="border_horizontal" d="M810 42.667v86h86v-86h-86zm-170 0v86h86v-86h-86zm-170 170v86h84v-86h-84zm340 342v86h86v-86h-86zm0 256h86v-86h-86v86zm-682-426v84h768v-84H128zm342-342v86h84v-86h-84zm340 170v86h86v-86h-86zm-256 598v-86h-84v86h84zm0-170v-86h-84v86h84zm172 170v-86h-86v86h86zm-342 0v-86h-86v86h86zm-170 0v-86h-86v86h86zm84-768v86h86v-86h-86zm-170 170v86h86v-86h-86zm86 428v-86h-86v86h86zm-86-598v86h86v-86h-86z"/><glyph unicode="" glyph-name="border_inner" d="M810 212.667v86h86v-86h-86zm0-170v86h86v-86h-86zm-256 768v-342h342v-84H554v-342h-84v342H128v84h342v342h84zm86-768v86h86v-86h-86zm170 768h86v-86h-86v86zm0-256v86h86v-86h-86zm-84 256v-86h-86v86h86zm-512 0v-86h-86v86h86zm170 0v-86h-86v86h86zm-256-598v86h86v-86h-86zm86 428v-86h-86v86h86zm84-598v86h86v-86h-86zm-170 0v86h86v-86h-86z"/><glyph unicode="" glyph-name="border_left" d="M640 724.667v86h86v-86h-86zm0-340v84h86v-84h-86zm170-342v86h86v-86h-86zm0 342v84h86v-84h-86zm0 426h86v-86h-86v86zm0-598v86h86v-86h-86zm-170-170v86h86v-86h-86zm170 512v86h86v-86h-86zm-682-512v768h86v-768h-86zm170 342v84h86v-84h-86zm0 340v86h86v-86h-86zm0-682v86h86v-86h-86zm172 342v84h84v-84h-84zm0 170v86h84v-86h-84zm0 170v86h84v-86h-84zm0-512v86h84v-86h-84zm0-170v86h84v-86h-84z"/><glyph unicode="" glyph-name="border_outer" d="M384 468.667v-84h-86v84h86zm170-170v-86h-84v86h84zm256-170v596H214v-596h596zm-682 682h768v-768H128v768zm598-342v-84h-86v84h86zm-172 0v-84h-84v84h84zm0 172v-86h-84v86h84z"/><glyph unicode="" glyph-name="border_right" d="M470 554.667v86h84v-86h-84zm0 170v86h84v-86h-84zm0-340v84h84v-84h-84zm170 340v86h86v-86h-86zm0-682v86h86v-86h-86zm170 768h86v-768h-86v768zm-170-426v84h86v-84h-86zm-170-172v86h84v-86h-84zm-342 342v86h86v-86h-86zm0-342v86h86v-86h-86zm0 172v84h86v-84h-86zm342-342v86h84v-86h-84zm-342 0v86h86v-86h-86zm170 342v84h86v-84h-86zm0 340v86h86v-86h-86zm-170 0v86h86v-86h-86zm170-682v86h86v-86h-86z"/><glyph unicode="" glyph-name="border_style" d="M810 554.667v86h86v-86h-86zm-682 256h768v-86H214v-682h-86v768zm682-426v84h86v-84h-86zm0-172v86h86v-86h-86zm-340-170v86h84v-86h-84zm-172 0v86h86v-86h-86zm512 0v86h86v-86h-86zm-170 0v86h86v-86h-86z"/><glyph unicode="" glyph-name="border_top" d="M640 384.667v84h86v-84h-86zm170-342v86h86v-86h-86zm-340 512v86h84v-86h-84zm170-512v86h86v-86h-86zm170 170v86h86v-86h-86zm-682 598h768v-86H128v86zm682-426v84h86v-84h-86zm0 170v86h86v-86h-86zm-340-342v86h84v-86h-84zm-342 342v86h86v-86h-86zm0-170v84h86v-84h-86zm0-342v86h86v-86h-86zm0 170v86h86v-86h-86zm342-170v86h84v-86h-84zm0 342v84h84v-84h-84zm-172 0v84h86v-84h-86zm0-342v86h86v-86h-86z"/><glyph unicode="" glyph-name="border_vertical" d="M640 384.667v84h86v-84h-86zm0-342v86h86v-86h-86zm0 682v86h86v-86h-86zm170-170v86h86v-86h-86zm0 256h86v-86h-86v86zm0-426v84h86v-84h-86zm0-342v86h86v-86h-86zm-340 0v768h84v-768h-84zm340 170v86h86v-86h-86zm-512 512v86h86v-86h-86zm-170-512v86h86v-86h-86zm0-170v86h86v-86h-86zm0 342v84h86v-84h-86zm170 0v84h86v-84h-86zm0-342v86h86v-86h-86zm-170 682v86h86v-86h-86zm0-170v86h86v-86h-86z"/><glyph unicode="" glyph-name="format_align_center" d="M128 810.667h768v-86H128v86zm170-170h428v-86H298v86zm-170-256v84h768v-84H128zm0-342v86h768v-86H128zm170 256h428v-86H298v86z"/><glyph unicode="" glyph-name="format_align_justify" d="M128 810.667h768v-86H128v86zm0-256v86h768v-86H128zm0-170v84h768v-84H128zm0-172v86h768v-86H128zm0-170v86h768v-86H128z"/><glyph unicode="" glyph-name="format_align_left" d="M128 810.667h768v-86H128v86zm0-768v86h768v-86H128zm0 342v84h768v-84H128zm512 256v-86H128v86h512zm0-342v-86H128v86h512z"/><glyph unicode="" glyph-name="format_align_right" d="M128 810.667h768v-86H128v86zm256-256v86h512v-86H384zm-256-170v84h768v-84H128zm256-172v86h512v-86H384zm-256-170v86h768v-86H128z"/><glyph unicode="" glyph-name="format_bold" d="M576 276.667c36 0 64 28 64 64s-28 64-64 64H426v-128h150zm-150 384v-128h128c36 0 64 28 64 64s-28 64-64 64H426zm240-182c56-26 92-82 92-146 0-90-68-162-158-162H298v598h268c96 0 170-76 170-172 0-44-28-90-70-118z"/><glyph unicode="" glyph-name="format_clear" d="M256 724.667h598v-128H606l-68-160-90 88 30 72H376l-120 120v8zm-116 0l12-10 616-618-54-54-242 242-66-156H278l104 246-296 296z"/><glyph unicode="" glyph-name="format_color_fill" d="M0 84.667h1024v-170H0v170zm810 364s86-94 86-150c0-46-40-86-86-86s-84 40-84 86c0 56 84 150 84 150zm-588 64h410l-206 204zm484 44c26-26 26-66 0-90l-234-234c-12-12-30-20-46-20s-32 8-44 20l-236 234c-26 24-26 64 0 90l220 220-102 102 62 60z"/><glyph unicode="" glyph-name="format_color_reset" d="M224 714.667l624-624-54-54-114 112c-46-40-104-64-168-64-142 0-256 114-256 256 0 52 24 114 56 176l-142 142zm544-374c0-20-2-38-6-56l-366 368c60 86 116 150 116 150s256-292 256-462z"/><glyph unicode="" glyph-name="format_color_text" d="M410 426.667h204l-102 270zm60 384h84l234-598h-96l-46 128H378l-48-128h-96zm-470-726h1024v-170H0v170z"/><glyph unicode="" glyph-name="format_indent_decrease" d="M470 384.667v84h426v-84H470zm0 170v86h426v-86H470zm-342 256h768v-86H128v86zm0-768v86h768v-86H128zm0 384l170 170v-340zm342-214v86h426v-86H470z"/><glyph unicode="" glyph-name="format_indent_increase" d="M470 384.667v84h426v-84H470zm0 170v86h426v-86H470zm-342 256h768v-86H128v86zm342-598v86h426v-86H470zm-342 384l170-170-170-170v340zm0-554v86h768v-86H128z"/><glyph unicode="" glyph-name="format_italic" d="M426 768.667h342v-128H648l-144-342h94v-128H256v128h120l144 342h-94v128z"/><glyph unicode="" glyph-name="format_line_spacing" d="M426 384.667v84h512v-84H426zm0-256v84h512v-84H426zm0 596h512v-84H426v84zm-170-84v-428h106l-148-148-150 148h106v428H64l150 148 148-148H256z"/><glyph unicode="" glyph-name="format_list_bulleted" d="M298 724.667h598v-84H298v84zm0-340v84h598v-84H298zm0-256v84h598v-84H298zm-128 106c36 0 64-30 64-64s-30-64-64-64-64 30-64 64 28 64 64 64zm0 512c36 0 64-28 64-64s-28-64-64-64-64 28-64 64 28 64 64 64zm0-256c36 0 64-28 64-64s-28-64-64-64-64 28-64 64 28 64 64 64z"/><glyph unicode="" glyph-name="format_list_numbered" d="M298 384.667v84h598v-84H298zm0-256v84h598v-84H298zm0 596h598v-84H298v84zm-212-256v44h128v-40l-78-88h78v-44H86v40l76 88H86zm42 128v128H86v44h84v-172h-42zm-42-384v44h128v-172H86v44h84v20h-42v44h42v20H86z"/><glyph unicode="" glyph-name="format_paint" d="M768 768.667h128v-342H554v-384c0-24-18-42-42-42h-86c-24 0-42 18-42 42v470h426v170h-42v-42c0-24-18-44-42-44H214c-24 0-44 20-44 44v170c0 24 20 42 44 42h512c24 0 42-18 42-42v-42z"/><glyph unicode="" glyph-name="format_quote" d="M598 212.667l84 172H554v256h256v-256l-84-172H598zm-342 0l86 172H214v256h256v-256l-86-172H256z"/><glyph unicode="" glyph-name="format_size" d="M128 426.667v128h384v-128H384v-298H256v298H128zm256 342h554v-128H726v-512H598v512H384v128z"/><glyph unicode="" glyph-name="format_strikethrough" d="M128 340.667v86h768v-86H128zm86 428h596v-128H598v-128H426v128H214v128zm212-640v128h172v-128H426z"/><glyph unicode="" glyph-name="format_textdirection_l_to_r" d="M896 170.667l-170-170v128H214v84h512v128zm-512 342c-94 0-170 76-170 170s76 170 170 170h342v-84h-86v-470h-86v470h-84v-470h-86v214z"/><glyph unicode="" glyph-name="format_textdirection_r_to_l" d="M342 212.667h512v-84H342v-128l-172 170 172 170v-128zm84 300c-94 0-170 76-170 170s76 170 170 170h342v-84h-86v-470h-84v470h-86v-470h-86v214z"/><glyph unicode="" glyph-name="format_underlined" d="M214 128.667h596v-86H214v86zm298 84c-142 0-256 114-256 256v342h106v-342c0-82 68-148 150-148s150 66 150 148v342h106v-342c0-142-114-256-256-256z"/><glyph unicode="" glyph-name="functions" d="M768 768.667v-128H470l212-214-212-214h298v-128H256v86l278 256-278 256v86h512z"/><glyph unicode="" glyph-name="insert_comment" d="M768 596.667v86H256v-86h512zm0-128v86H256v-86h512zm0-128v86H256v-86h512zm86 512c46 0 84-38 84-84v-768l-170 170H170c-46 0-84 40-84 86v512c0 46 38 84 84 84h684z"/><glyph unicode="" glyph-name="insert_drive_file" d="M554 554.667h236l-236 234v-234zm-298 298h342l256-256v-512c0-46-40-84-86-84H256c-46 0-86 38-86 84l2 684c0 46 38 84 84 84z"/><glyph unicode="" glyph-name="insert_invitation" d="M810 128.667v468H214v-468h596zm-128 768h86v-86h42c46 0 86-40 86-86v-596c0-46-40-86-86-86H214c-48 0-86 40-86 86v596c0 46 38 86 86 86h42v86h86v-86h340v86zm44-470v-214H512v214h214z"/><glyph unicode="" glyph-name="merge_type" d="M320 596.667l192 192 192-192H554v-272l-256-256-60 60 232 230v238H320zm406-528l-146 144 60 60 146-144z"/><glyph unicode="" glyph-name="mode_comment" d="M938 768.667v-768l-170 170H170c-46 0-84 40-84 86v512c0 46 38 84 84 84h684c46 0 84-38 84-84z"/><glyph unicode="" glyph-name="mode_edit" d="M884 638.667l-78-78-160 160 78 78c16 16 44 16 60 0l100-100c16-16 16-44 0-60zm-756-436l472 472 160-160-472-472H128v160z"/><glyph unicode="" glyph-name="publish" d="M214 340.667l298 300 298-300H640v-256H384v256H214zm0 428h596v-86H214v86z"/><glyph unicode="" glyph-name="space_bar" d="M768 554.667h86v-256H170v256h86v-170h512v170z"/><glyph unicode="" glyph-name="strikethrough_s" d="M400 378.667c0-76.243 48.309-108 124-108 52.313 0 98 21.34 98 72 0 47.832-25.37 58.685-60 76-6 2-16 6-24 8H128v86h768v-86H730c2-4 6-10 8-14 8-20 14-44 14-70 0-92.509-60.376-138.965-134-160-28-8-58-12-92-12-20 0-42 2-62 6-43.831 8.766-81.207 20.905-112 44-45.673 34.254-78 79.826-78 158h126zm222 240c0 61.554-39.204 90-102 90-45.146 0-79.257-14.514-94-44-4-8-6-18-6-28 0-20 12-38 32-52 16-10 32-20 60-30H316c-2 4-6 6-8 10-12 20-16 44-16 72 0 57.483 29.861 98.689 64 126 41.082 28.758 95.625 48 166 48 70.131 0 128.265-20.039 166-54 35.121-31.608 62-75.894 62-138H622z"/><glyph unicode="" glyph-name="vertical_align_bottom" d="M170 128.667h684v-86H170v86zm512 256l-170-172-170 172h128v426h84v-426h128z"/><glyph unicode="" glyph-name="vertical_align_center" d="M170 468.667h684v-84H170v84zm512 256l-170-170-170 170h128v172h84v-172h128zm-340-596l170 170 170-170H554v-172h-84v172H342z"/><glyph unicode="" glyph-name="vertical_align_top" d="M170 810.667h684v-86H170v86zm172-342l170 172 170-172H554v-426h-84v426H342z"/><glyph unicode="" glyph-name="wrap_text" d="M726 468.667c94 0 170-76 170-170s-76-170-170-170h-86v-86l-128 128 128 128v-86h96c46 0 86 40 86 86s-40 86-86 86H170v84h556zm128 256v-84H170v84h684zm-684-596v84h256v-84H170z"/><glyph unicode="" glyph-name="money_off" d="M228 764.667l622-624-54-54-94 96c-26-24-64-40-104-48v-92H470v92c-82 18-152 70-158 164h94c4-50 40-90 128-90 58 0 88 20 102 40l-150 148c-100 30-166 80-166 168l-146 146zm306-120c-26 0-48-4-66-12l-62 62c20 10 42 18 64 24v92h128v-94c90-22 134-88 136-162h-94c-2 54-30 90-106 90z"/><glyph unicode="" glyph-name="drag_handle" d="M170 298.667v86h684v-86H170zm684 256v-86H170v86h684z"/><glyph unicode="" glyph-name="format_shapes" d="M456 394.667h112l-56 164zm130-54H436l-30-84h-70l146 384h60l144-384h-68zm224 384h86v86h-86v-86zm86-682v86h-86v-86h86zm-170 86v84h84v428h-84v84H298v-84h-84v-428h84v-84h428zm-512-86v86h-86v-86h86zm-86 768v-86h86v86h-86zm854-170h-86v-428h86v-256H726v86H298v-86H42v256h86v428H42v256h256v-86h428v86h256v-256z"/><glyph unicode="" glyph-name="highlight" d="M724 658.667l90 90 60-60-90-92zm-574 30l60 60 90-90-60-62zm320 164h84v-128h-84v128zm-214-512v214h512v-214l-128-128v-212H384v212z"/><glyph unicode="" glyph-name="linear_scale" d="M832 532.667c58 0 106-48 106-106s-48-106-106-106c-44 0-82 26-98 64H610c-16-38-54-64-98-64s-82 26-98 64H290c-16-38-54-64-98-64-58 0-106 48-106 106s48 106 106 106c44 0 82-26 98-64h124c16 38 54 64 98 64s82-26 98-64h124c16 38 54 64 98 64z"/><glyph unicode="" glyph-name="short_text" d="M170 384.667h428v-86H170v86zm0 170h684v-86H170v86z"/><glyph unicode="" glyph-name="text_fields" d="M918 554.667v-128H790v-298H662v298H534v128h384zm-812 214h556v-128H448v-512H320v512H106v128z"/><glyph unicode="" glyph-name="monetization_on" d="M572 166.667c74 14 134 56 134 134 0 108-94 146-180 168s-112 46-112 82c0 40 38 70 102 70 68 0 92-32 94-80h84c-2 66-42 124-122 144v84H458v-84c-74-16-132-62-132-136 0-88 72-130 178-156 96-22 114-56 114-92 0-26-18-68-102-68-78 0-110 36-114 80h-84c4-82 68-128 140-144v-84h114v82zm-60 686c236 0 426-190 426-426s-190-426-426-426-426 190-426 426 190 426 426 426z"/><glyph unicode="" glyph-name="title" d="M214 768.667h596v-128H576v-512H448v512H214v128z"/><glyph unicode="" glyph-name="attachment" d="M86 404.667c0 130 104 236 234 236h448c94 0 170-78 170-172s-76-170-170-170H406c-58 0-108 48-108 106s50 108 108 108h320v-86H402c-24 0-24-42 0-42h366c46 0 86 38 86 84s-40 86-86 86H320c-82 0-150-68-150-150s68-148 150-148h406v-86H320c-130 0-234 104-234 234z"/><glyph unicode="" glyph-name="cloud_circle" d="M704 256.667c58 0 106 48 106 106s-48 106-106 106h-22c0 94-76 172-170 172-80 0-146-56-164-130l-6 2c-70 0-128-58-128-128s58-128 128-128h362zm-192 596c236 0 426-190 426-426s-190-426-426-426-426 190-426 426 190 426 426 426z"/><glyph unicode="" glyph-name="cloud_done" d="M426 212.667l282 282-60 60-222-220-88 88-60-60zm400 298c110-8 198-100 198-212 0-118-96-214-214-214H256c-142 0-256 114-256 256 0 132 100 240 228 254 54 102 160 174 284 174 156 0 284-110 314-258z"/><glyph unicode="" glyph-name="cloud_download" d="M726 384.667H598v170H426v-170H298l214-214zm100 126c110-8 198-100 198-212 0-118-96-214-214-214H256c-142 0-256 114-256 256 0 132 100 240 228 254 54 102 160 174 284 174 156 0 284-110 314-258z"/><glyph unicode="" glyph-name="cloud_off" d="M330 512.667h-74c-94 0-170-78-170-172s76-170 170-170h416zm-202 202l54 54 714-714-54-54-86 84H256c-142 0-256 114-256 256 0 138 110 250 246 256zm698-204c110-8 198-100 198-212 0-72-36-136-90-174l-62 62c40 22 66 64 66 112 0 70-58 128-128 128h-64v22c0 130-104 234-234 234-40 0-76-8-108-26l-64 62c50 32 108 50 172 50 156 0 284-110 314-258z"/><glyph unicode="" glyph-name="cloud_queue" d="M810 170.667c70 0 128 58 128 128s-58 128-128 128h-64v22c0 130-104 234-234 234-108 0-198-72-226-170h-30c-94 0-170-78-170-172s76-170 170-170h554zm16 340c110-8 198-100 198-212 0-118-96-214-214-214H256c-142 0-256 114-256 256 0 132 100 240 228 254 54 102 160 174 284 174 156 0 284-110 314-258z"/><glyph unicode="" glyph-name="cloud_upload" d="M598 384.667h128l-214 212-214-212h128v-172h172v172zm228 126c110-8 198-100 198-212 0-118-96-214-214-214H256c-142 0-256 114-256 256 0 132 100 240 228 254 54 102 160 174 284 174 156 0 284-110 314-258z"/><glyph unicode="" glyph-name="file_upload" d="M214 170.667h596v-86H214v86zm170 86v256H214l298 298 298-298H640v-256H384z"/><glyph unicode="" glyph-name="folder2" d="M426 768.667l86-86h342c46 0 84-40 84-86v-426c0-46-38-86-84-86H170c-46 0-84 40-84 86v512c0 46 38 86 84 86h256z"/><glyph unicode="" glyph-name="folder_open" d="M854 170.667v426H170v-426h684zm0 512c46 0 84-40 84-86v-426c0-46-38-86-84-86H170c-46 0-84 40-84 86v512c0 46 38 86 84 86h256l86-86h342z"/><glyph unicode="" glyph-name="folder_shared" d="M810 212.667v44c0 56-114 84-170 84s-170-28-170-84v-44h340zm-170 342c-46 0-86-40-86-86s40-84 86-84 86 38 86 84-40 86-86 86zm214 128c46 0 84-40 84-86v-426c0-46-38-86-84-86H170c-46 0-84 40-84 86v512c0 46 38 86 84 86h256l86-86h342z"/><glyph unicode="" glyph-name="create_new_folder" d="M810 340.667v86H682v128h-84v-128H470v-86h128v-128h84v128h128zm44 342c48 0 84-38 84-86v-426c0-48-36-86-84-86H170c-48 0-84 38-84 86v512c0 48 36 86 84 86h256l86-86h342z"/><glyph unicode="" glyph-name="cast" d="M42 512.667c258 0 470-210 470-470h-86c0 212-172 384-384 384v86zm0-172c166 0 300-132 300-298h-86c0 118-96 214-214 214v84zm0-170c70 0 128-58 128-128H42v128zm854 640c46 0 86-40 86-86v-596c0-46-40-86-86-86H598v86h298v596H128v-128H42v128c0 46 40 86 86 86h768z"/><glyph unicode="" glyph-name="cast_connected" d="M896 810.667c46 0 86-40 86-86v-596c0-46-40-86-86-86H598v86h298v596H128v-128H42v128c0 46 40 86 86 86h768zm-854-298c258 0 470-210 470-470h-86c0 212-172 384-384 384v86zm768 128v-428H570c-54 168-188 304-356 358v70h596zm-768-300c166 0 300-132 300-298h-86c0 118-96 214-214 214v84zm0-170c70 0 128-58 128-128H42v128z"/><glyph unicode="" glyph-name="desktop_mac" d="M896 340.667v428H128v-428h768zm0 512c46 0 86-38 86-84v-512c0-46-40-86-86-86H598l84-128v-42H342v42l84 128H128c-46 0-86 40-86 86v512c0 46 40 84 86 84h768z"/><glyph unicode="" glyph-name="desktop_windows" d="M896 256.667v512H128v-512h768zm0 596c46 0 86-38 86-84v-512c0-46-40-86-86-86H598v-86h84v-84H342v84h84v86H128c-46 0-86 40-86 86v512c0 46 40 84 86 84h768z"/><glyph unicode="" glyph-name="developer_board" d="M512 468.667h170v-256H512v256zm-256 172h214v-214H256v214zm256 0h170v-128H512v128zm-256-256h214v-172H256v172zm512-256v596H170v-596h598zm170 426h-84v-86h84v-84h-84v-86h84v-86h-84v-84c0-46-40-86-86-86H170c-46 0-84 40-84 86v596c0 46 38 86 84 86h598c46 0 86-40 86-86v-84h84v-86z"/><glyph unicode="" glyph-name="dock" d="M682 298.667v426H342v-426h340zm0 596c46 0 86-38 86-84v-598c0-46-40-84-86-84H342c-46 0-86 38-86 84v598c0 46 40 86 86 86zm-340-938v86h340v-86H342z"/><glyph unicode="" glyph-name="headset" d="M512 896.667c212 0 384-172 384-384v-300c0-70-58-128-128-128H640v342h170v86c0 166-132 298-298 298s-298-132-298-298v-86h170v-342H256c-70 0-128 58-128 128v300c0 212 172 384 384 384z"/><glyph unicode="" glyph-name="headset_mic" d="M512 896.667c212 0 384-172 384-384v-428c0-70-58-128-128-128H512v86h298v42H640v342h170v86c0 166-132 298-298 298s-298-132-298-298v-86h170v-342H256c-70 0-128 58-128 128v300c0 212 172 384 384 384z"/><glyph unicode="" glyph-name="keyboard" d="M810 512.667v84h-84v-84h84zm0-128v84h-84v-84h84zm-128 128v84h-84v-84h84zm0-128v84h-84v-84h84zm0-172v86H342v-86h340zm-384 300v84h-84v-84h84zm0-128v84h-84v-84h84zm44 84v-84h84v84h-84zm0 128v-84h84v84h-84zm128-128v-84h84v84h-84zm0 128v-84h84v84h-84zm384 128c46 0 84-38 84-84v-428c0-46-38-84-84-84H170c-46 0-84 38-84 84v428c0 46 38 84 84 84h684z"/><glyph unicode="" glyph-name="keyboard_arrow_down" d="M316 604.667l196-196 196 196 60-60-256-256-256 256z"/><glyph unicode="" glyph-name="keyboard_arrow_left" d="M658 252.667l-60-60-256 256 256 256 60-60-196-196z"/><glyph unicode="" glyph-name="keyboard_arrow_right" d="M366 240.667l196 196-196 196 60 60 256-256-256-256z"/><glyph unicode="" glyph-name="keyboard_arrow_up" d="M316 280.667l-60 60 256 256 256-256-60-60-196 196z"/><glyph unicode="" glyph-name="keyboard_backspace" d="M896 468.667v-84H292l152-154-60-60-256 256 256 256 60-60-152-154h604z"/><glyph unicode="" glyph-name="keyboard_capslock" d="M256 170.667v86h512v-86H256zm256 410l-196-196-60 60 256 256 256-256-60-60z"/><glyph unicode="" glyph-name="keyboard_hide" d="M512-43.333l-170 172h340zm298 640v86h-84v-86h84zm0-128v86h-84v-86h84zm-128 128v86h-84v-86h84zm0-128v86h-84v-86h84zm0-170v86H342v-86h340zm-384 298v86h-84v-86h84zm0-128v86h-84v-86h84zm44 86v-86h84v86h-84zm0 128v-86h84v86h-84zm128-128v-86h84v86h-84zm0 128v-86h84v86h-84zm384 128c46 0 84-40 84-86v-426c0-46-38-86-84-86H170c-46 0-84 40-84 86v426c0 46 38 86 84 86h684z"/><glyph unicode="" glyph-name="keyboard_return" d="M810 640.667h86v-256H248l154-154-60-60-256 256 256 256 60-60-154-154h562v172z"/><glyph unicode="" glyph-name="keyboard_tab" d="M854 682.667h84v-512h-84v512zm-360-60l60 60 256-256-256-256-60 60 154 154H42v84h606z"/><glyph unicode="" glyph-name="keyboard_voice" d="M738 426.667h72c0-146-116-266-256-286v-140h-84v140c-140 20-256 140-256 286h72c0-128 108-218 226-218s226 90 226 218zm-226-128c-70 0-128 58-128 128v256c0 70 58 128 128 128s128-58 128-128v-256c0-70-58-128-128-128z"/><glyph unicode="" glyph-name="laptop2" d="M170 682.667v-426h684v426H170zm684-512h170v-86H0v86h170c-46 0-84 40-84 86v426c0 46 38 86 84 86h684c46 0 84-40 84-86v-426c0-46-38-86-84-86z"/><glyph unicode="" glyph-name="laptop_chromebook" d="M854 298.667v426H170v-426h684zm-256-128v42H426v-42h172zm340 0h86v-86H0v86h86v640h852v-640z"/><glyph unicode="" glyph-name="laptop_mac" d="M512 128.667c24 0 42 18 42 42s-18 42-42 42-42-18-42-42 18-42 42-42zm-342 596v-468h684v468H170zm684-554h170c0-46-40-86-86-86H86c-46 0-86 40-86 86h170c-46 0-84 40-84 86v468c0 46 38 86 84 86h684c46 0 84-40 84-86v-468c0-46-38-86-84-86z"/><glyph unicode="" glyph-name="laptop_windows" d="M170 724.667v-426h684v426H170zm684-554h170v-86H0v86h170v42c-46 0-84 40-84 86v426c0 46 38 86 84 86h684c46 0 84-40 84-86v-426c0-46-38-86-84-86v-42z"/><glyph unicode="" glyph-name="memory" d="M726 212.667v428H298v-428h428zm170 256h-86v-84h86v-86h-86v-86c0-46-38-84-84-84h-86v-86h-86v86h-84v-86h-86v86h-86c-46 0-84 38-84 84v86h-86v86h86v84h-86v86h86v86c0 46 38 84 84 84h86v86h86v-86h84v86h86v-86h86c46 0 84-38 84-84v-86h86v-86zm-342-84v84h-84v-84h84zm86 170v-256H384v256h256z"/><glyph unicode="" glyph-name="mouse" d="M470 892.667v-338H170c0 174 132 318 300 338zm-300-594v170h684v-170c0-188-154-342-342-342s-342 154-342 342zm384 594c168-20 300-164 300-338H554v338z"/><glyph unicode="" glyph-name="phone_android" d="M736 170.667v598H288v-598h448zm-138-128v42H426v-42h172zm84 854c70 0 128-58 128-128v-684c0-70-58-128-128-128H342c-70 0-128 58-128 128v684c0 70 58 128 128 128h340z"/><glyph unicode="" glyph-name="phone_iphone" d="M682 170.667v598H298v-598h384zm-192-170c36 0 64 28 64 64s-28 64-64 64-64-28-64-64 28-64 64-64zm172 896c58 0 106-50 106-108v-724c0-58-48-108-106-108H320c-58 0-106 50-106 108v724c0 58 48 108 106 108h342z"/><glyph unicode="" glyph-name="phonelink" d="M938 212.667v300H768v-300h170zm44 384c24 0 42-18 42-42v-426c0-24-18-44-42-44H726c-24 0-44 20-44 44v426c0 24 20 42 44 42h256zm-812 86v-470h428v-128H0v128h86v470c0 46 38 86 84 86h768v-86H170z"/><glyph unicode="" glyph-name="phonelink_off" d="M982 596.667c24 0 42-18 42-42v-426c0-24-18-44-42-44h-8l-128 128h92v300H768v-222l-86 86v178c0 24 20 42 44 42h256zm-812 74v-458h458zm-88 198c276.214-276.452 551.97-553.364 828-830l-54-54-100 100H0v128h86v470c0 20 8 40 20 54l-78 78zm856-186H376l-86 86h648v-86z"/><glyph unicode="" glyph-name="router" d="M640 170.667v86h-86v-86h86zm-150 0v86h-84v-86h84zm-148 0v86h-86v-86h86zm468 214c46 0 86-40 86-86v-170c0-46-40-86-86-86H214c-46 0-86 40-86 86v170c0 46 40 86 86 86h426v170h86v-170h84zm14 268l-34-34c-30 30-70 42-108 42s-76-12-106-42l-34 34c38 38 88 60 140 60s104-22 142-60zm38 34c-52 46-116 72-180 72s-126-26-178-72l-34 34c60 60 136 90 212 90s154-30 214-90z"/><glyph unicode="" glyph-name="scanner" d="M810 212.667v86H384v-86h426zm-512 0v86h-84v-86h84zm546 270c30-8 52-44 52-78v-234c0-46-40-86-86-86H214c-46 0-86 40-86 86v170c0 46 40 86 86 86h536l-600 218 30 80z"/><glyph unicode="" glyph-name="security" d="M512 896.667l384-172v-256c0-236-164-458-384-512-220 54-384 276-384 512v256zm0-470v-382c158 50 276 206 298 382H512zm0 0v376l-298-132v-244h298z"/><glyph unicode="" glyph-name="sim_card" d="M726 298.667v170h-86v-170h86zm-172 86v84h-84v-84h84zm0-256v170h-84v-170h84zm-170 170v170h-86v-170h86zm342-170v84h-86v-84h86zm-342 0v84h-86v-84h86zm468 640l2-684c0-46-40-84-86-84H256c-46 0-86 38-86 84v512l256 256h342c46 0 84-38 84-84z"/><glyph unicode="" glyph-name="speaker" d="M512 426.667c70 0 128-58 128-128s-58-128-128-128-128 58-128 128 58 128 128 128zm0-342c118 0 214 96 214 214s-96 214-214 214-214-96-214-214 96-214 214-214zm0 684c-48 0-86-40-86-86s38-86 86-86c46 0 86 40 86 86s-40 86-86 86zm214 84c46 0 84-38 84-84v-684c0-46-38-84-84-84H298c-46 0-84 38-84 84v684c0 46 38 84 84 84h428z"/><glyph unicode="" glyph-name="speaker_group" d="M256 724.667v-682h426v-86H256c-48 0-86 40-86 86v682h86zm234-320c0 58 50 108 108 108s106-50 106-108-48-106-106-106-108 48-108 106zm108-170c94 0 170 76 170 170s-76 172-170 172-172-78-172-172 78-170 172-170zm0 576c-46 0-86-38-86-86s40-84 86-84 84 36 84 84-38 86-84 86zm178 86c42 0 78-36 78-78v-614c0-42-36-76-78-76H418c-42 0-76 34-76 76v614c0 42 34 78 76 78h358z"/><glyph unicode="" glyph-name="tablet2" d="M810 170.667v512H214v-512h596zm86 598c46 0 86-40 86-86l-2-512c0-46-38-86-84-86H128c-46 0-86 40-86 86v512c0 46 40 86 86 86h768z"/><glyph unicode="" glyph-name="tablet_android" d="M822 128.667v682H202v-682h620zm-224-128v42H426v-42h172zm170 938c70 0 128-58 128-128v-768c0-70-58-128-128-128H256c-70 0-128 58-128 128v768c0 70 58 128 128 128h512z"/><glyph unicode="" glyph-name="tablet_mac" d="M810 128.667v682H170v-682h640zm-320-172c36 0 64 28 64 64s-28 64-64 64-64-28-64-64 28-64 64-64zm300 982c58 0 106-48 106-106v-812c0-58-48-106-106-106H192c-58 0-106 48-106 106v812c0 58 48 106 106 106h598z"/><glyph unicode="" glyph-name="toys" d="M512 426.667c0-128-106-234-234-234s-236 106-236 234h470zm0 0c-128 0-234 106-234 234s106 236 234 236v-470zm0 0c128 0 234-106 234-234s-106-236-234-236v470zm0 0c0 128 106 234 234 234s236-106 236-234H512z"/><glyph unicode="" glyph-name="tv2" d="M896 212.667v512H128v-512h768zm0 598c46 0 86-40 86-86l-2-512c0-46-38-84-84-84H682v-86H342v86H128c-46 0-86 38-86 84v512c0 46 40 86 86 86h768z"/><glyph unicode="" glyph-name="watch" d="M256 426.667c0-142 114-256 256-256s256 114 256 256-114 256-256 256-256-114-256-256zm598 0c0-108-52-206-130-268l-42-244H342l-42 244c-80 62-130 160-130 268s50 206 130 268l42 244h340l42-244c78-62 130-160 130-268z"/><glyph unicode="" glyph-name="device_hub" d="M726 256.667h170v-214H682v130l-170 180-170-180v-130H128v214h170l172 170v136c-50 18-86 64-86 120 0 70 58 128 128 128s128-58 128-128c0-56-36-102-86-120v-136z"/><glyph unicode="" glyph-name="power_input" d="M682 298.667v86h214v-86H682zm-298 0v86h214v-86H384zm-298 0v86h212v-86H86zm0 256h810v-86H86v86z"/><glyph unicode="" glyph-name="devices_other" d="M896 170.667v342H726v-342h170zm42 426c22 0 44-20 44-42v-426c0-22-22-44-44-44H682c-22 0-42 22-42 44v426c0 22 20 42 42 42h256zm-468-404c36 0 64 28 64 64s-28 64-64 64-64-28-64-64 28-64 64-64zm84 234v-76c26-24 44-56 44-94s-18-72-44-96v-76H384v76c-26 24-42 58-42 96s16 70 42 94v76h170zm-426 256v-512h170v-86H128c-46 0-86 40-86 86v512c0 46 40 86 86 86h768v-86H128z"/><glyph unicode="" glyph-name="videogame_asset" d="M832 426.667c36 0 64 28 64 64s-28 64-64 64-64-28-64-64 28-64 64-64zm-170-128c36 0 64 28 64 64s-28 64-64 64-64-28-64-64 28-64 64-64zm-192 86v84H342v128h-86v-128H128v-84h128v-128h86v128h128zm426 298c46 0 86-40 86-86v-340c0-46-40-86-86-86H128c-46 0-86 40-86 86v340c0 46 40 86 86 86h768z"/><glyph unicode="" glyph-name="adjust2" d="M640 426.667c0-70-58-128-128-128s-128 58-128 128 58 128 128 128 128-58 128-128zm-128-342c188 0 342 154 342 342s-154 342-342 342-342-154-342-342 154-342 342-342zm0 768c236 0 426-190 426-426s-190-426-426-426-426 190-426 426 190 426 426 426z"/><glyph unicode="" glyph-name="assistant" d="M592 388.667l176 80-176 80-80 176-80-176-176-80 176-80 80-176zm218 464c46 0 86-38 86-84v-598c0-46-40-86-86-86H640l-128-128-128 128H214c-46 0-86 40-86 86v598c0 46 40 84 86 84h596z"/><glyph unicode="" glyph-name="audiotrack" d="M512 810.667h298v-128H640v-470h-2c-10-96-92-170-190-170-106 0-192 86-192 192s86 192 192 192c22 0 44-4 64-12v396z"/><glyph unicode="" glyph-name="blur_circular" d="M598 384.667c24 0 42-20 42-44s-18-42-42-42-44 18-44 42 20 44 44 44zm0-150c12 0 20-10 20-22s-8-20-20-20-22 8-22 20 10 22 22 22zm-86-150c188 0 342 154 342 342s-154 342-342 342-342-154-342-342 154-342 342-342zm0 768c236 0 426-190 426-426s-190-426-426-426-426 190-426 426 190 426 426 426zm214-320c12 0 20-8 20-20s-8-22-20-22-22 10-22 22 10 20 22 20zm0-170c12 0 20-10 20-22s-8-20-20-20-22 8-22 20 10 22 22 22zm-128 256c-12 0-22 10-22 22s10 20 22 20 20-8 20-20-8-22-20-22zm0-64c24 0 42-18 42-42s-18-44-42-44-44 20-44 44 20 42 44 42zm-172 64c-12 0-20 10-20 22s8 20 20 20 22-8 22-20-10-22-22-22zm-128-256c12 0 22-10 22-22s-10-20-22-20-20 8-20 20 8 22 20 22zm128-128c12 0 22-10 22-22s-10-20-22-20-20 8-20 20 8 22 20 22zm-128 298c12 0 22-8 22-20s-10-22-22-22-20 10-20 22 8 20 20 20zm128-148c24 0 44-20 44-44s-20-42-44-42-42 18-42 42 18 44 42 44zm0 170c24 0 44-18 44-42s-20-44-44-44-42 20-42 44 18 42 42 42z"/><glyph unicode="" glyph-name="blur_linear" d="M554 212.667c-24 0-42 20-42 44s18 42 42 42 44-18 44-42-20-44-44-44zm0 172c-24 0-42 18-42 42s18 42 42 42 44-18 44-42-20-42-44-42zm0 170c-24 0-42 18-42 42s18 44 42 44 44-20 44-44-20-42-44-42zm172-150c-12 0-22 10-22 22s10 22 22 22 20-10 20-22-8-22-20-22zm0 172c-12 0-22 8-22 20s10 22 22 22 20-10 20-22-8-20-20-20zm-598 234h768v-86H128v86zm598-576c-12 0-22 10-22 22s10 20 22 20 20-8 20-20-8-22-20-22zm-342-22c-24 0-42 20-42 44s18 42 42 42 42-18 42-42-18-44-42-44zm-170 150c-36 0-64 28-64 64s28 64 64 64 64-28 64-64-28-64-64-64zm0 170c-36 0-64 28-64 64s28 64 64 64 64-28 64-64-28-64-64-64zm-86-490v86h768v-86H128zm256 512c-24 0-42 18-42 42s18 44 42 44 42-20 42-44-18-42-42-42zm0-170c-24 0-42 18-42 42s18 42 42 42 42-18 42-42-18-42-42-42zm-170-192c-36 0-64 28-64 64s28 64 64 64 64-28 64-64-28-64-64-64z"/><glyph unicode="" glyph-name="blur_off" d="M128 362.667c12 0 22-10 22-22s-10-20-22-20-22 8-22 20 10 22 22 22zm128-150c24 0 42-18 42-42s-18-42-42-42-42 18-42 42 18 42 42 42zm170-148c12 0 22-10 22-22s-10-22-22-22-20 10-20 22 8 22 20 22zm-298 468c12 0 22-8 22-20s-10-22-22-22-22 10-22 22 10 20 22 20zm128-148c24 0 42-20 42-44s-18-42-42-42-42 18-42 42 18 44 42 44zm640-22c12 0 22-10 22-22s-10-20-22-20-22 8-22 20 10 22 22 22zm-470-150c24 0 44-18 44-42s-20-42-44-42-42 18-42 42 18 42 42 42zm-320 502l54 54 694-694-56-54-160 162c2-4 2-8 2-12 0-24-18-42-42-42s-44 18-44 42 20 42 44 42c4 0 8 0 12-2l-120 120c-4-30-32-54-64-54-36 0-64 28-64 64 0 32 24 60 54 64l-120 120c2-4 2-8 2-12 0-24-18-44-42-44s-42 20-42 44 18 42 42 42l12-2zm492-650c12 0 20-10 20-22s-8-22-20-22-22 10-22 22 10 22 22 22zm170 576c-24 0-42 18-42 42s18 42 42 42 42-18 42-42-18-42-42-42zm0-172c-24 0-42 20-42 44s18 42 42 42 42-18 42-42-18-44-42-44zm0-170c-24 0-42 18-42 42s18 44 42 44 42-20 42-44-18-42-42-42zm-342 342c-24 0-42 18-42 42s18 42 42 42 44-18 44-42-20-42-44-42zm470-150c-12 0-22 10-22 22s10 20 22 20 22-8 22-20-10-22-22-22zm-470 298c-12 0-20 10-20 22s8 22 20 22 22-10 22-22-10-22-22-22zm172 0c-12 0-22 10-22 22s10 22 22 22 20-10 20-22-8-22-20-22zm-10-340c-28 4-50 26-54 54v10c0 36 28 64 64 64s64-28 64-64-28-64-64-64h-10zm10 192c-24 0-44 18-44 42s20 42 44 42 42-18 42-42-18-42-42-42z"/><glyph unicode="" glyph-name="blur_on" d="M598 576.667c36 0 64-28 64-64s-28-64-64-64-64 28-64 64 28 64 64 64zm0-172c36 0 64-28 64-64s-28-64-64-64-64 28-64 64 28 64 64 64zm-172-192c24 0 44-18 44-42s-20-42-44-42-42 18-42 42 18 42 42 42zm0 364c36 0 64-28 64-64s-28-64-64-64-64 28-64 64 28 64 64 64zm172-512c12 0 20-10 20-22s-8-22-20-22-22 10-22 22 10 22 22 22zm0 148c24 0 42-18 42-42s-18-42-42-42-44 18-44 42 20 42 44 42zm298 150c12 0 22-10 22-22s-10-20-22-20-22 8-22 20 10 22 22 22zm-128 362c24 0 42-18 42-42s-18-42-42-42-42 18-42 42 18 42 42 42zm0-170c24 0 42-18 42-42s-18-44-42-44-42 20-42 44 18 42 42 42zm0-342c24 0 42-18 42-42s-18-42-42-42-42 18-42 42 18 42 42 42zm0 172c24 0 42-20 42-44s-18-42-42-42-42 18-42 42 18 44 42 44zm-342 20c36 0 64-28 64-64s-28-64-64-64-64 28-64 64 28 64 64 64zm0 236c-24 0-42 18-42 42s18 42 42 42 44-18 44-42-20-42-44-42zm0 148c-12 0-20 10-20 22s8 22 20 22 22-10 22-22-10-22-22-22zm0-724c12 0 22-10 22-22s-10-22-22-22-20 10-20 22 8 22 20 22zm-298 298c12 0 22-10 22-22s-10-20-22-20-22 8-22 20 10 22 22 22zm470 426c-12 0-22 10-22 22s10 22 22 22 20-10 20-22-8-22-20-22zm0-148c-24 0-44 18-44 42s20 42 44 42 42-18 42-42-18-42-42-42zm298-150c-12 0-22 10-22 22s10 20 22 20 22-8 22-20-10-22-22-22zm-640 234c24 0 42-18 42-42s-18-42-42-42-42 18-42 42 18 42 42 42zm-128-192c12 0 22-8 22-20s-10-22-22-22-22 10-22 22 10 20 22 20zm128 22c24 0 42-18 42-42s-18-44-42-44-42 20-42 44 18 42 42 42zm0-342c24 0 42-18 42-42s-18-42-42-42-42 18-42 42 18 42 42 42zm0 172c24 0 42-20 42-44s-18-42-42-42-42 18-42 42 18 44 42 44z"/><glyph unicode="" glyph-name="brightness_1" d="M86 426.667c0 236 190 426 426 426s426-190 426-426-190-426-426-426-426 190-426 426z"/><glyph unicode="" glyph-name="brightness_2" d="M426 852.667c236 0 428-190 428-426s-192-426-428-426c-78 0-150 20-212 56 128 74 212 212 212 370s-84 296-212 370c62 36 134 56 212 56z"/><glyph unicode="" glyph-name="brightness_3" d="M384 852.667c236 0 426-190 426-426s-190-426-426-426c-44 0-88 6-128 18 174 54 298 216 298 408s-124 354-298 408c40 12 84 18 128 18z"/><glyph unicode="" glyph-name="brightness_4" d="M512 170.667c142 0 256 114 256 256s-114 256-256 256c-38 0-74-10-106-24 88-40 148-128 148-232s-60-192-148-232c32-14 68-24 106-24zm342 398l140-142-140-142v-200H654l-142-140-142 140H170v200l-140 142 140 142v200h200l142 140 142-140h200v-200z"/><glyph unicode="" glyph-name="broken_image" d="M768 450.667l128-128v-194c0-46-40-86-86-86H214c-46 0-86 40-86 86v280l128-128 170 172 172-172zm128 274v-280l-128 128-170-172-172 172-170-172-128 130v194c0 46 40 86 86 86h596c46 0 86-40 86-86z"/><glyph unicode="" glyph-name="brush" d="M884 740.667c16-16 16-44 0-60l-382-382-118 118 382 382c16 16 44 16 60 0zm-586-400c70 0 128-58 128-128 0-94-76-170-170-170-64 0-130 34-170 86 36 0 84 28 84 84 0 70 58 128 128 128z"/><glyph unicode="" glyph-name="camera2" d="M420 10.667c68.709 118.625 136.494 238.172 206 356l156-270c-74-60-168-96-270-96-32 0-62 4-92 10zm-316 288h414l-158-270c-122 46-216 146-256 270zm94 416c71.999-124.667 143.587-249.746 216-374H94c-6 28-8 56-8 86 0 112 42 212 112 288zm732-202c6-28 8-56 8-86 0-112-42-212-112-288l-204 352-12 22h320zm-10 42H506l158 270c122-46 216-146 256-270zm-518-64l-4-4-156 270c74 60 168 96 270 96 32 0 62-4 92-10z"/><glyph unicode="" glyph-name="camera_front" d="M298 852.667v-448c0 72 142 108 214 108s214-36 214-108v448H298zm428 86c46 0 84-40 84-86v-596c0-46-38-86-84-86H426l128-128-128-128v86H214v84h212v86H298c-46 0-84 40-84 86v596c0 46 38 86 84 86h428zm-214-342c-46 0-84 40-84 86s38 86 84 86 86-40 86-86-40-86-86-86zm86-512h212v-84H598v84z"/><glyph unicode="" glyph-name="camera_rear" d="M512 682.667c46 0 84 40 84 86s-38 84-84 84-86-38-86-84 38-86 86-86zm214 256c46 0 84-40 84-86v-596c0-46-38-86-84-86H426l128-128-128-128v86H214v84h212v86H298c-46 0-84 40-84 86v596c0 46 38 86 84 86h428zm-128-854h212v-84H598v84z"/><glyph unicode="" glyph-name="camera_roll" d="M854 554.667v86h-86v-86h86zm0-384v86h-86v-86h86zm-172 384v86h-84v-86h84zm0-384v86h-84v-86h84zm-170 384v86h-86v-86h86zm0-384v86h-86v-86h86zm86 554h340v-640H598c0-46-40-84-86-84H170c-46 0-84 38-84 84v640c0 46 38 86 84 86h44v42c0 24 18 44 42 44h170c24 0 44-20 44-44v-42h42c46 0 86-40 86-86z"/><glyph unicode="" glyph-name="center_focus_strong" d="M810 128.667v170h86v-170c0-46-40-86-86-86H640v86h170zm0 682c46 0 86-40 86-86v-170h-86v170H640v86h170zm-596-86v-170h-86v170c0 46 40 86 86 86h170v-86H214zm0-426v-170h170v-86H214c-46 0-86 40-86 86v170h86zm298 298c94 0 170-76 170-170s-76-170-170-170-170 76-170 170 76 170 170 170z"/><glyph unicode="" glyph-name="center_focus_weak" d="M512 340.667c46 0 86 40 86 86s-40 86-86 86-86-40-86-86 40-86 86-86zm0 256c94 0 170-76 170-170s-76-170-170-170-170 76-170 170 76 170 170 170zm298-468v170h86v-170c0-46-40-86-86-86H640v86h170zm0 682c46 0 86-40 86-86v-170h-86v170H640v86h170zm-596-86v-170h-86v170c0 46 40 86 86 86h170v-86H214zm0-426v-170h170v-86H214c-46 0-86 40-86 86v170h86z"/><glyph unicode="" glyph-name="colorize" d="M296 128.667l344 344-82 82-344-344zm588 570c16-16 18-42 0-60l-134-134 82-82-60-60-60 60-382-380H128v202l380 382-60 60 60 60 82-82 134 134c16 16 44 16 60 0z"/><glyph unicode="" glyph-name="compare" d="M810 810.667c46 0 86-40 86-86v-596c0-46-40-86-86-86H598v384l212-256v554H598v86h212zm-384-640v256l-212-256h212zm0 640v86h86v-940h-86v86H214c-46 0-86 40-86 86v596c0 46 40 86 86 86h212z"/><glyph unicode="" glyph-name="control_point" d="M512 84.667c188 0 342 154 342 342s-154 342-342 342-342-154-342-342 154-342 342-342zm0 768c236 0 426-190 426-426s-190-426-426-426-426 190-426 426 190 426 426 426zm42-212v-172h172v-84H554v-172h-84v172H298v84h172v172h84z"/><glyph unicode="" glyph-name="control_point_duplicate" d="M640 128.667c164 0 298 134 298 298s-134 298-298 298-298-134-298-298 134-298 298-298zm0 682c212 0 384-172 384-384s-172-384-384-384-384 172-384 384 172 384 384 384zm-554-384c0-120 68-222 170-270v-92c-148 52-256 196-256 362s108 310 256 362v-92c-102-48-170-150-170-270zm596 170v-128h128v-84H682v-128h-84v128H470v84h128v128h84z"/><glyph unicode="" glyph-name="crop_16_9" d="M810 256.667v340H214v-340h596zm0 426c46 0 86-40 86-86v-340c0-46-40-86-86-86H214c-46 0-86 40-86 86v340c0 46 40 86 86 86h596z"/><glyph unicode="" glyph-name="crop_3_2" d="M810 170.667v512H214v-512h596zm0 598c46 0 86-40 86-86v-512c0-46-40-86-86-86H214c-46 0-86 40-86 86v512c0 46 40 86 86 86h596z"/><glyph unicode="" glyph-name="crop2" d="M298 212.667h684v-84H810v-172h-84v172H298c-46 0-84 38-84 84v428H42v84h172v172h84v-684zm428 86v342H384v84h342c46 0 84-38 84-84v-342h-84z"/><glyph unicode="" glyph-name="crop_7_5" d="M810 298.667v256H214v-256h596zm0 342c46 0 86-40 86-86v-256c0-46-40-86-86-86H214c-46 0-86 40-86 86v256c0 46 40 86 86 86h596z"/><glyph unicode="" glyph-name="crop_din" d="M810 128.667v596H214v-596h596zm0 682c46 0 86-40 86-86v-596c0-46-40-86-86-86H214c-46 0-86 40-86 86v596c0 46 40 86 86 86h596z"/><glyph unicode="" glyph-name="crop_free" d="M810 810.667c46 0 86-40 86-86v-170h-86v170H640v86h170zm0-682v170h86v-170c0-46-40-86-86-86H640v86h170zm-596 170v-170h170v-86H214c-46 0-86 40-86 86v170h86zm-86 426c0 46 40 86 86 86h170v-86H214v-170h-86v170z"/><glyph unicode="" glyph-name="crop_landscape" d="M810 212.667v428H214v-428h596zm0 512c46 0 86-38 86-84v-428c0-46-40-84-86-84H214c-46 0-86 38-86 84v428c0 46 40 84 86 84h596z"/><glyph unicode="" glyph-name="crop_original" d="M596 414.667l150-202H278l116 152 84-102zm214-286v596H214v-596h596zm0 682c46 0 86-40 86-86v-596c0-46-40-86-86-86H214c-46 0-86 40-86 86v596c0 46 40 86 86 86h596z"/><glyph unicode="" glyph-name="crop_portrait" d="M726 128.667v596H298v-596h428zm0 682c46 0 84-40 84-86v-596c0-46-38-86-84-86H298c-46 0-84 40-84 86v596c0 46 38 86 84 86h428z"/><glyph unicode="" glyph-name="crop_square" d="M768 170.667v512H256v-512h512zm0 598c46 0 86-40 86-86v-512c0-46-40-86-86-86H256c-46 0-86 40-86 86v512c0 46 40 86 86 86h512z"/><glyph unicode="" glyph-name="dehaze" d="M86 704.667h852v-86H86v86zm0-214h852v-86H86v86zm0-214h852v-84H86v84z"/><glyph unicode="" glyph-name="details" d="M272 682.667l240-426 240 426H272zm-144 86h768l-384-684z"/><glyph unicode="" glyph-name="exposure" d="M854 84.667v684l-684-684h684zm-640 640v-84h256v84H214zm640 128c46 0 84-38 84-84v-684c0-46-38-84-84-84H170c-46 0-84 38-84 84v684c0 46 38 84 84 84h684zm-214-640h-86v86h86v86h86v-86h84v-86h-84v-84h-86v84z"/><glyph unicode="" glyph-name="exposure_neg_1" d="M810 170.667h-84v454l-128-44v72l200 72h12v-554zm-640 298h342v-84H170v84z"/><glyph unicode="" glyph-name="exposure_neg_2" d="M86 468.667h340v-84H86v84zm616 256c103.361 0 172-46.875 172-150 0-16-2-34-8-50s-12-34-22-50c-21.913-35.061-50.22-70.22-80-100l-122-132h254v-72H528v64l178 194c27.051 27.051 44.466 50.776 62 80 10.155 16.925 14 31.054 14 56 0 12 0 26-4 36-11.918 29.795-34.301 52-76 52-60.876 0-92-36.935-92-98h-92c0 51.336 20.69 92.69 48 120 31.385 31.385 73.692 50 136 50z"/><glyph unicode="" glyph-name="exposure_plus_1" d="M854 170.667h-86v454l-128-44v72l200 72h14v-554zm-428 470v-172h172v-84H426v-172h-84v172H170v84h172v172h84z"/><glyph unicode="" glyph-name="exposure_plus_2" d="M342 640.667v-172h170v-84H342v-172h-86v172H86v84h170v172h86zm342-398h254v-72H570v64l178 194c27.051 27.051 44.466 50.776 62 80 9.657 16.095 16 33.377 16 56 0 27.976-9.972 45.963-22 62-12.776 17.035-30.076 26-60 26-30.802 0-54.673-12.673-70-28-13.992-13.992-22-43.42-22-70h-92c0 51.336 20.69 92.69 48 120 16 16 34 30 58 38s50 12 80 12c28 0 50-4 72-10 20-8 40-16 54-30 26.805-22.976 46-61.985 46-110 0-40.444-14.717-72.348-32-100-10-16-20-34-34-50s-30-34-46-50z"/><glyph unicode="" glyph-name="exposure_zero" d="M598 506.667c0 51.604-2.887 85.33-22 114-8 12-18 18-28 24s-22 8-36 8-26-2-36-8-20-12-28-24c-19.07-28.606-22-62.453-22-114v-114c0-68.64 9.322-117.593 50-142 10-6 22-8 36-8 33.536 0 49.61 12.416 64 34 17.74 26.61 24 68.817 24 116v114h-2zm-262-14c0 137.059 42.756 232 176 232 93.018 0 143.69-47.837 164-124 8-30 14-64 14-108v-88h-2c0-79.48-15.373-138.051-48-180-16-18-34-34-56-42s-46-12-72-12-50 4-72 12-40 24-56 42c-34.893 39.254-48 102.511-48 180v88z"/><glyph unicode="" glyph-name="filter_1" d="M896 212.667v598H298v-598h598zm0 684c46 0 86-40 86-86v-598c0-46-40-84-86-84H298c-46 0-84 38-84 84v598c0 46 38 86 84 86h598zm-298-598v342h-86v84h170v-426h-84zm-470 426v-682h682v-86H128c-46 0-86 40-86 86v682h86z"/><glyph unicode="" glyph-name="filter_2" d="M726 384.667v-86H470v170c0 48 38 86 84 86h86v86H470v84h170c46 0 86-36 86-84v-86c0-48-40-86-86-86h-86v-84h172zm170-172v598H298v-598h598zm0 684c46 0 86-40 86-86v-598c0-46-40-84-86-84H298c-46 0-84 38-84 84v598c0 46 38 86 84 86h598zm-768-172v-682h682v-86H128c-46 0-86 40-86 86v682h86z"/><glyph unicode="" glyph-name="filter_3" d="M726 384.667c0-48-40-86-86-86H470v86h170v84h-86v86h86v86H470v84h170c46 0 86-36 86-84v-64c0-36-28-64-64-64 36 0 64-28 64-64v-64zm-598 340v-682h682v-86H128c-46 0-86 40-86 86v682h86zm768-512v598H298v-598h598zm0 684c46 0 86-40 86-86v-598c0-46-40-84-86-84H298c-46 0-84 38-84 84v598c0 46 38 86 84 86h598z"/><glyph unicode="" glyph-name="filter2" d="M896 212.667v598H298v-598h598zm0 684c46 0 86-40 86-86v-598c0-46-40-84-86-84H298c-46 0-84 38-84 84v598c0 46 38 86 84 86h598zm-768-172v-682h682v-86H128c-46 0-86 40-86 86v682h86zm552-226l152-200H362l118 150 84-100z"/><glyph unicode="" glyph-name="filter_4" d="M896 212.667v598H298v-598h598zm0 684c46 0 86-40 86-86v-598c0-46-40-84-86-84H298c-46 0-84 38-84 84v598c0 46 38 86 84 86h598zm-256-598v170H470v256h84v-170h86v170h86v-426h-86zm-512 426v-682h682v-86H128c-46 0-86 40-86 86v682h86z"/><glyph unicode="" glyph-name="filter_5" d="M726 384.667c0-48-40-86-86-86H470v86h170v84H470v256h256v-84H554v-86h86c46 0 86-38 86-86v-84zm-598 340v-682h682v-86H128c-46 0-86 40-86 86v682h86zm768-512v598H298v-598h598zm0 684c46 0 86-40 86-86v-598c0-46-40-84-86-84H298c-46 0-84 38-84 84v598c0 46 38 86 84 86h598z"/><glyph unicode="" glyph-name="filter_6" d="M554 468.667v-84h86v84h-86zm0-170c-46 0-84 38-84 86v256c0 48 38 84 84 84h172v-84H554v-86h86c46 0 86-38 86-86v-84c0-48-40-86-86-86h-86zm342-86v598H298v-598h598zm0 684c46 0 86-40 86-86v-598c0-46-40-84-86-84H298c-46 0-84 38-84 84v598c0 46 38 86 84 86h598zm-768-172v-682h682v-86H128c-46 0-86 40-86 86v682h86z"/><glyph unicode="" glyph-name="filter_7" d="M554 298.667h-84l170 342H470v84h256v-84zm342-86v598H298v-598h598zm0 684c46 0 86-40 86-86v-598c0-46-40-84-86-84H298c-46 0-84 38-84 84v598c0 46 38 86 84 86h598zm-768-172v-682h682v-86H128c-46 0-86 40-86 86v682h86z"/><glyph unicode="" glyph-name="filter_8" d="M554 468.667v-84h86v84h-86zm0 172v-86h86v86h-86zm0-342c-46 0-84 38-84 86v64c0 36 28 64 64 64-36 0-64 28-64 64v64c0 48 38 84 84 84h86c46 0 86-36 86-84v-64c0-36-28-64-64-64 36 0 64-28 64-64v-64c0-48-40-86-86-86h-86zm342-86v598H298v-598h598zm0 684c46 0 86-40 86-86v-598c0-46-40-84-86-84H298c-46 0-84 38-84 84v598c0 46 38 86 84 86h598zm-768-172v-682h682v-86H128c-46 0-86 40-86 86v682h86z"/><glyph unicode="" glyph-name="filter_9" d="M640 554.667v86h-86v-86h86zm0 170c46 0 86-36 86-84v-256c0-48-40-86-86-86H470v86h170v84h-86c-46 0-84 38-84 86v86c0 48 38 84 84 84h86zm256-512v598H298v-598h598zm0 684c46 0 86-40 86-86v-598c0-46-40-84-86-84H298c-46 0-84 38-84 84v598c0 46 38 86 84 86h598zm-768-172v-682h682v-86H128c-46 0-86 40-86 86v682h86z"/><glyph unicode="" glyph-name="filter_9_plus" d="M896 554.667v256H298v-598h598v256h-86v-84h-84v84h-86v86h86v86h84v-86h86zm0 342c46 0 86-40 86-86v-598c0-46-40-84-86-84H298c-46 0-84 38-84 84v598c0 46 38 86 84 86h598zm-426-342h42v42h-42v-42zm128-128c0-48-40-86-86-86H384v86h128v42h-42c-46 0-86 38-86 86v42c0 48 40 86 86 86h42c46 0 86-38 86-86v-170zm-470 298v-682h682v-86H128c-46 0-86 40-86 86v682h86z"/><glyph unicode="" glyph-name="filter_b_and_w" d="M810 128.667v596H512v-256zm0 682c46 0 86-40 86-86v-596c0-46-40-86-86-86H214c-46 0-86 40-86 86v596c0 46 40 86 86 86h596zm-298-342l-298-340h298v340z"/><glyph unicode="" glyph-name="filter_center_focus" d="M512 554.667c70 0 128-58 128-128s-58-128-128-128-128 58-128 128 58 128 128 128zm298-426v170h86v-170c0-46-40-86-86-86H640v86h170zm0 682c46 0 86-40 86-86v-170h-86v170H640v86h170zm-596-86v-170h-86v170c0 46 40 86 86 86h170v-86H214zm0-426v-170h170v-86H214c-46 0-86 40-86 86v170h86z"/><glyph unicode="" glyph-name="filter_drama" d="M810 170.667c70 0 128 58 128 128s-58 128-128 128h-64v22c0 130-104 234-234 234-76 0-144-36-188-94 108-30 188-130 188-248h-86c0 94-76 172-170 172s-170-78-170-172 76-170 170-170h554zm16 340c110-8 198-100 198-212 0-118-96-214-214-214H256c-142 0-256 114-256 256 0 132 100 240 228 254 54 102 160 174 284 174 156 0 284-110 314-258z"/><glyph unicode="" glyph-name="filter_frames" d="M768 596.667H256v-426h512zm86-512v598H662l-148 150-150-150H170v-598h684zm0 684c46 0 84-40 84-86v-598c0-46-38-84-84-84H170c-46 0-84 38-84 84v598c0 46 38 86 84 86h172l170 170 170-170h172z"/><glyph unicode="" glyph-name="filter_none" d="M896 212.667v598H298v-598h598zm0 684c46 0 86-40 86-86v-598c0-46-40-84-86-84H298c-46 0-84 38-84 84v598c0 46 38 86 84 86h598zm-768-172v-682h682v-86H128c-46 0-86 40-86 86v682h86z"/><glyph unicode="" glyph-name="filter_tilt_shift" d="M242 96.667l60 60c48-36 106-60 168-68v-86c-86 8-164 42-228 94zm312-8c62 8 120 32 166 68l62-60c-64-52-142-86-228-94v86zm228 128c36 48 60 104 68 166h86c-8-86-42-162-94-226zm-142 210c0-70-58-128-128-128s-128 58-128 128 58 128 128 128 128-58 128-128zm-466-42c8-62 32-120 68-166l-60-62c-52 64-86 142-94 228h86zm68 252c-36-48-60-106-68-168H88c8 86 42 164 94 228zm608-168c-8 62-32 120-68 168l60 60c52-64 86-142 94-228h-86zm-68 288l-60-60c-48 36-106 60-168 68v86c86-8 164-42 228-94zm-312 8c-62-8-120-32-168-68l-60 60c64 52 142 86 228 94v-86z"/></font>
</defs>
</svg>
