<svg xmlns="http://www.w3.org/2000/svg" width="800" height="800" viewBox="0 0 200 200"><path fill="#fff" d="M0 0h200v200H0z"/><defs><linearGradient id="a" gradientUnits="userSpaceOnUse" x1="88" y1="88" x2="0" y2="0"><stop offset="0" stop-color="#005092"/><stop offset="1" stop-color="#007cc4"/></linearGradient><linearGradient id="c" gradientUnits="userSpaceOnUse" x1="75" y1="76" x2="168" y2="160"><stop offset="0" stop-color="#868686"/><stop offset=".09" stop-color="#ababab"/><stop offset=".18" stop-color="#c4c4c4"/><stop offset=".31" stop-color="#d7d7d7"/><stop offset=".44" stop-color="#e5e5e5"/><stop offset=".59" stop-color="#f1f1f1"/><stop offset=".75" stop-color="#f9f9f9"/><stop offset="1" stop-color="#FFF"/></linearGradient><filter id="b" x="0" y="0" width="200%" height="200%"><feGaussianBlur in="SourceGraphic" stdDeviation="12"/></filter></defs><path fill="url(#a)" d="M0 174V0h174z"/><path fill-opacity=".5" filter="url(#b)" d="M121.8 174C59.2 153.1 0 174 0 174s63.5-73.8 87-94c24.4-20.9 87-80 87-80s-66.1 104.4-52.2 174z"/><path fill="url(#c)" d="M142.7 142.7C59.2 142.7 0 174 0 174s42-66.3 74.9-99.3S174 0 174 0s-31.3 62.6-31.3 142.7z"/></svg>