<svg xmlns="http://www.w3.org/2000/svg" width="1920.183" height="1075.636"><defs><linearGradient id="a" x1=".5" x2=".5" y2="1" gradientUnits="objectBoundingBox"><stop offset="0" stop-color="#361cc1"/><stop offset="1" stop-color="#2e82ef"/></linearGradient><clipPath id="b"><path data-name="Path 199" d="M-533.031 278.516s95.269 204.193 401.21 161.147 419.656-32.1 544.188 96.892 343.977 107.54 572.909 67.066 360.19 68.158 401.79 142.968c.041-2.4-.074-1075.621-.074-1075.621l-1920 .011z" transform="translate(533 329)" fill="url(#a)"/></clipPath></defs><g data-name="Group 112"><path data-name="Path 195" d="M-533.089 278.364s100.43 239.944 401.206 191.477 442.068 9.577 537.63 114.941 352.091 94.329 580.987 52.374 363.166 41.794 400.36 109.438c.016.016-.373-1075.609-.373-1075.609l-1919.766-.027z" transform="translate(533.089 329.042)" opacity=".11" fill="url(#a)"/><path data-name="Path 194" d="M-533.031 278.516s95.269 204.193 401.21 161.147 419.656-32.1 544.188 96.892 343.977 107.54 572.909 67.066 360.19 68.158 401.79 142.968c.041-2.4-.074-1075.621-.074-1075.621l-1920 .011z" transform="translate(533.089 329.042)" fill="url(#a)"/><g data-name="Mask Group 6" clip-path="url(#b)" transform="translate(.089 .042)"><path data-name="Path 4" d="M25.632 687.701s174.242-392.046 817.433-255.032 869.415 77.467 1056.161-463.982" fill="none" stroke="#361cc1" stroke-width="128" opacity=".14"/></g></g></svg>