<svg width="200" height="52" fill="none" xmlns="http://www.w3.org/2000/svg"><path d="M184.095 31.755l15.808-19.064h-7.76l-14.174 17.09v-.11l-6.422 7.787-1.398 1.694c-.04.067-.078.137-.12.204l-2.408 2.903c-.446.406-.918.782-1.416 1.124a12.983 12.983 0 01-7.382 2.289v.099a13.003 13.003 0 01-5.126-1.053 13.33 13.33 0 01-5.814-4.862 13.484 13.484 0 01-2.255-7.497c0-1.861.369-3.618 1.036-5.22a13.431 13.431 0 014.791-5.905 12.992 12.992 0 017.384-2.288c2.902.001 5.562.94 7.744 2.543l3.482-4.88a18.876 18.876 0 00-11.226-3.692c-2.636 0-5.162.545-7.455 1.53a19.286 19.286 0 00-8.423 7.04 19.573 19.573 0 00-3.27 10.872c0 .066.005.134.005.2h-.104a13.448 13.448 0 01-5.825 11.123 13.004 13.004 0 01-7.384 2.29 12.982 12.982 0 01-5.142-1.054 13.32 13.32 0 01-5.816-4.862 13.514 13.514 0 01-1.584-3.271c-.245-.122-.511-.26-.792-.412-1.353-.735-3.049-1.81-4.439-3.218a27.376 27.376 0 01-1.574-1.742 13.495 13.495 0 01-.988 6.366 13.43 13.43 0 01-4.789 5.904 13 13 0 01-7.384 2.289 12.987 12.987 0 01-5.142-1.054 13.309 13.309 0 01-5.814-4.862 13.469 13.469 0 01-2.254-7.496 13.438 13.438 0 015.826-11.125 12.991 12.991 0 017.384-2.288c1.832 0 3.562.375 5.141 1.053a13.322 13.322 0 015.815 4.862c.032.048.062.098.094.147l.009-.003v.004l.009.022.005.014c.055.085.106.175.159.26a19.273 19.273 0 00.951 1.867c.034.084.072.165.105.25a23.26 23.26 0 001.498 2.178c.034.044.064.087.098.13a21.174 21.174 0 001.9 2.158c.006.006.012.01.017.017.114.113.23.224.349.336l.14.129c.756.697 1.603 1.37 2.564 1.976a15.357 15.357 0 008.045 2.407h.002l.402.003c2.544 0 4.826-.403 6.829-1.122a16.952 16.952 0 004.024-2.078 17.774 17.774 0 004.249-4.255 21.35 21.35 0 002.44-4.54c.436-1.106.66-2.205.66-3.257a7.08 7.08 0 00-.211-1.735 6.857 6.857 0 00-1.14-2.41 7.725 7.725 0 00-2.144-1.96 6.972 6.972 0 00-1.24-.619l-.01.034a18.862 18.862 0 00-8.252-1.896c-2.636 0-5.163.543-7.455 1.529a19.161 19.161 0 00-5.972 4.054V.032h-5.936v16.262c.363.353.739.735 1.131 1.152 1.501 1.603 2.474 3.152 3.328 4.577.855 1.428 1.594 2.723 2.632 3.904.157.181.325.36.499.536a13.434 13.434 0 014.388-5.028 12.989 12.989 0 017.385-2.288c2.408 0 4.644.647 6.586 1.783l.023-.042c.127.1.243.217.308.318a.74.74 0 01.101.202.91.91 0 01.042.297c0 .193-.038.513-.236 1.019a15.517 15.517 0 01-1.497 2.893 12.586 12.586 0 01-1.659 2.018 10.908 10.908 0 01-3.532 2.327c-1.432.587-3.167.966-5.341.967-.102 0-.203 0-.305-.002h-.001a9.6 9.6 0 01-2.458-.355c-1.31-.37-2.448-.999-3.448-1.772-.349-.27-.679-.56-.991-.859 0-.001 0-.005.002-.008-.15-.14-.293-.282-.434-.424a16.39 16.39 0 01-1.983-2.551c-.376-.596-.762-1.092-.937-1.446-.087-.177-.261-.452-.261-.452-.888-1.487-1.811-2.998-3.286-4.575-.019-.02-.039-.038-.056-.059v.001a19.288 19.288 0 00-2.438-1.987 18.874 18.874 0 00-10.707-3.321c-2.636 0-5.161.543-7.454 1.529a19.28 19.28 0 00-8.422 7.04 19.58 19.58 0 00-3.272 10.872 19.623 19.623 0 001.506 7.567 19.433 19.433 0 006.934 8.55A18.874 18.874 0 0093.875 52c2.635 0 5.162-.544 7.454-1.53a19.28 19.28 0 008.801-7.633 19.408 19.408 0 005.543 5.84A18.88 18.88 0 00126.383 52c2.634 0 5.16-.544 7.453-1.53a19.28 19.28 0 008.836-7.694 19.392 19.392 0 005.46 5.7 18.877 18.877 0 0010.707 3.323 18.84 18.84 0 007.453-1.53 19.11 19.11 0 005.74-3.823v5.428h5.937V39.139l2.228-2.684 12.19 15.419H200l-15.905-20.119zM177.969.032h-5.937v32.234c0 .874-.084 1.724-.243 2.55l6.18-7.493V.034z" fill="#252F3F"/><path d="M34.019 13.86v15.797c0 7.36-4.45 11.805-11.196 11.805-6.747 0-11.483-4.446-11.483-11.805V0H0v29.657c0 13.48 8.899 21.86 22.823 21.86 13.851 0 22.536-8.38 22.536-21.86V0h-.2c-5.98 1.95-10.44 7.33-11.14 13.86z" fill="url(#paint0_linear)"/><path d="M55.066 0h-.194v51.008h11.34V13.87C66.105 8.202 61.05 1.95 55.066 0z" fill="url(#paint1_linear)"/><path d="M34.019 13.86v15.827c.002.157.01.313.01.471 0 10.64-7.892 19.402-18.055 20.596 2.115.5 4.403.764 6.849.764 13.851 0 22.536-8.38 22.536-21.86V0h-.2c-5.98 1.95-10.441 7.33-11.14 13.86z" fill="url(#paint2_linear)"/><path d="M11.34 13.886V0H0v.002c6.029 1.953 10.547 7.332 11.34 13.884z" fill="url(#paint3_linear)"/><path d="M54.872 35.893v15.115h11.201c-6.246-2.238-10.802-8.11-11.201-15.115z" fill="url(#paint4_linear)"/><defs><linearGradient id="paint0_linear" x1="38.808" y1="46.538" x2="8.58" y2="-5.03" gradientUnits="userSpaceOnUse"><stop stop-color="#2535C5"/><stop offset=".17" stop-color="#36409B"/><stop offset=".576" stop-color="#475BC6"/><stop offset="1" stop-color="#7075E4"/></linearGradient><linearGradient id="paint1_linear" x1="60.542" y1="0" x2="60.542" y2="51.008" gradientUnits="userSpaceOnUse"><stop stop-color="#375AD8"/><stop offset=".473" stop-color="#3C56DD"/><stop offset="1" stop-color="#2A1A8F"/></linearGradient><linearGradient id="paint2_linear" x1="30.666" y1="0" x2="30.666" y2="51.518" gradientUnits="userSpaceOnUse"><stop stop-color="#233593"/><stop offset=".473" stop-color="#4957D7"/><stop offset=".891" stop-color="#5465FF"/><stop offset="1" stop-color="#6A67FF"/></linearGradient><linearGradient id="paint3_linear" x1="4.286" y1="8.729" x2="11.426" y2="-.208" gradientUnits="userSpaceOnUse"><stop stop-color="#3A4A9C"/><stop offset=".327" stop-color="#475BC6"/><stop offset="1" stop-color="#7090E4"/></linearGradient><linearGradient id="paint4_linear" x1="60.899" y1="42.928" x2="53.996" y2="51.133" gradientUnits="userSpaceOnUse"><stop stop-color="#2D3792"/><stop offset=".194" stop-color="#3F2BB8"/><stop offset="1" stop-color="#3C38FF"/></linearGradient></defs></svg>