<svg><defs><font id="SamarkanNormal" horiz-adv-x="297"><font-face font-family="Samarkan" font-weight="400" units-per-em="2048" panose-1="2 11 5 0 0 0 0 0 0 0" ascent="1638" descent="-410" x-height="1085" cap-height="1622" bbox="-283 -674 1579 1855" underline-thickness="20" underline-position="-123" unicode-range="U+0020-201D"/><glyph glyph-name="space" horiz-adv-x="666"/><glyph glyph-name="exclam" unicode="!" horiz-adv-x="451" d="M365 1636q-5-69-16-251.5t-23-420T307 473l-164-98q-2 120-11 394t-15.5 416.5-11.5 250-7 153.5zm34-1460q-9-15-47.5-62T246 0Q203 33 66 170q17 19 55 62.5t71.5 79.5 40.5 36q2 0 63.5-64.5z"/><glyph glyph-name="quotedbl" unicode="&quot;" horiz-adv-x="584" d="M530 1325q-38 0-84.5 27t-80 68-33.5 77q0 33 34 70t54 37l104-97q-20-16-33-27t-23.5-25.5T457 1423q0-22 35-58t38-40zm-292 0q-38 0-85 27t-80.5 68-33.5 77q0 33 34 70t54 37l104-97q-20-16-33-27t-23.5-25.5T164 1423q0-16 11.5-31.5T207 1357t31-32zm356-360H-12v120h606V965z"/><glyph glyph-name="dollar" unicode="$" horiz-adv-x="770" d="M778 965H438V795q72 0 125-15t82.5-31.5T688 725q-32-28-64.5-55.5T559 614q-31 16-62.5 31.5T434 676V469q30-4 89.5-19t119-53.5T702 295q0-53-45.5-108.5T546 89 436 43v-90h-84v80Q181 33 88 98l109 111q23-16 73.5-31.5T350 162v188q-36 8-82 20.5T182.5 402t-69 55T84 545q0 38 31.5 77.5t79 75 90 57T344 778v187H-18l-2 120h798V965zM352 492v202q-54 0-109-20t-55-56q0-60 61.5-89.5T352 492zm252-297q0 54-35.5 90T436 332V145q90 6 127 14.5t41 35.5z"/><glyph glyph-name="ampersand" unicode="&amp;" horiz-adv-x="823" d="M844 1085l-2-120H641q0-47-.5-88t-1.5-80l-117-76q-16 14-66 35.5T317 778q-40 0-76-19.5T205 692q0-67 72-98t176-41.5T627 535l-74-93q-80 0-164-21t-138-58-54-82q0-30 39-73.5t114-75T522 100q107 0 107 47 0 22-53 63.5T473 252H299l2 27q12 2 17 5t13 10 15 11h260q51 0 109 20t82 37q-15-36-31.5-59T734 267t-35.5-24-22.5-12q14-10 14-45 0-38-27.5-82t-96-74T383 0q-64 0-144 21T101 90.5 43 213q0 44 28 83t69.5 71 78.5 52 49 27q8 10 8 13 0 5-10 10-48 5-116 43T82 612q0 32 29.5 73t87 78T337 823t185 23v70.5l-2 48.5H-16v120h860z"/><glyph glyph-name="quotesingle" unicode="'" d="M250 1497q0-36-33.5-77t-80.5-68-85-27q11 13 31 32t31.5 34.5T125 1423q0 24-14 38t-54 46l105 97q20 0 54-36.5t34-70.5zm51-532H-12v120h313V965z"/><glyph glyph-name="parenleft" unicode="(" horiz-adv-x="698" d="M803-242q-56-26-131-26-146 0-294 103T131.5 145 33 643q0 148 24 274.5t86.5 245.5 179 237T623 1636q2-6 3-8.5t2-4 1-7.5q0-15-73.5-73t-143-136.5-125.5-219T231 850q2-182 32.5-326t98-274.5T536.5-1 803-242z"/><glyph glyph-name="parenright" unicode=")" horiz-adv-x="698" d="M680 717q0-205-44.5-364.5t-173-315T92-276q-1 7-3.5 12t-2.5 8q0 15 72 72T300-48t125.5 220.5T481 510q0 181-31 326.5T352 1112t-175 249.5T-90 1602q56 26 131 26 106 0 219-57.5t208.5-173 153.5-287T680 717z"/><glyph glyph-name="comma" unicode="," horiz-adv-x="293" d="M301 965H-12v120h313V965zM250-20q0-35-33-76t-80-69-86-28q11 13 30.5 31.5T113-126t12 32q0 23-15 38.5T57-10l105 96q20 0 54-35.5T250-20z"/><glyph glyph-name="hyphen" unicode="-" horiz-adv-x="666" d="M678 965H-10v120h688V965zm-70-371q-8-10-51-35t-70-41H82l119 76h407z"/><glyph glyph-name="period" unicode="." horiz-adv-x="358" d="M375 965H-10v120h385V965zM305 68q-6-6-60.5-42T176-10q-6 0-52.5 36.5T70 70q1 0 54 44t56 44q6 0 51-33.5T305 68z"/><glyph glyph-name="slash" unicode="/" horiz-adv-x="1184" d="M1141 1636L182-268H51l959 1904h131z"/><glyph glyph-name="zero" unicode="0" horiz-adv-x="1059" d="M1075 965H408V801q10 9 44.5 23T561 838q115 0 215.5-47.5t159.5-134T995 461q0-56-30.5-135.5t-92-154-156-123T496 0 271 45 117.5 173.5 63 362q0 110 48.5 199T274 725v240H-10v120h1085V965zM842 379q0 104-52.5 186.5T643 693.5 428 739q-43 0-94-40t-86-106.5T213 451t31.5-141 87-114T458 122t146-26q66 0 120.5 33.5t86 98T842 379z"/><glyph glyph-name="one" unicode="1" horiz-adv-x="393" d="M403 965H-14v120h417V965zM272-100L117 2v709q0 42-15 80v30l170 35v-956z"/><glyph glyph-name="two" unicode="2" horiz-adv-x="983" d="M997 965H371q2-4 2-46.5V848q7 1 24.5 2.5T442 852q146 0 269-65t123-246q0-118-91.5-219T463 113q92 0 161.5 3.5t143 20T893 184L807 0H82l41 90q116 8 241.5 55t210 132.5T659 477t-99 185-263 71q-89 0-197-24 29 34 68.5 58t60.5 34v164H-12v120H997V965z"/><glyph glyph-name="three" unicode="3" horiz-adv-x="829" d="M846 965H369V850q28 8 80 8 62 0 119-15.5t97-56T705 678q0-63-37-111.5T543 473q99-39 154-85t55-128q0-67-49.5-126.5T556.5 37 326 0q-48 0-122.5 17T86 70l164 129q14-24 67-59.5T473 104q65 0 90 15.5t25 70.5q-3 103-125 146t-262 43q-47 0-62-2l164 112q27 7 66 7t63.5-3.5T469 487q53 58 53 115 0 58-48 99.5T383 748q-29 4-84 4-97-3-180-27 24 24 38.5 39t28.5 25.5 47 25.5v150H-10v120h856V965z"/><glyph glyph-name="four" unicode="4" horiz-adv-x="991" d="M997 965H766V358h168l-76-98h-94V0H588v264H66q49 51 152.5 158T447 653t180 164v148H-14v120H997V965zM590 358q0 38-.5 106t-1 135.5T588 705q-1 4-5.5 10t-9.5 6q-4 0-8-4-278-271-329-359h354z"/><glyph glyph-name="five" unicode="5" horiz-adv-x="836" d="M850 965H659V834l70-5-76-147q-155 33-442 33V504q28 10 91 24.5T438 543q48 0 112-14t116-40.5 86-68 34-96.5q0-68-52-144.5t-158.5-128T319 0q-21 0-91 11.5T119 31l164 139q38-26 106-41.5T510 113q67 0 95 23t28 91q0 113-104 162t-220 49q-113 0-188-45v438h418v134H-16v120h866V965z"/><glyph glyph-name="six" unicode="6" horiz-adv-x="920" d="M928 965H348V805q18 12 65.5 30.5T535 854q79 0 137.5-16.5t96.5-40 71-54.5l-158-88q-5 11-25.5 32.5t-76.5 43T434 752q-22 0-76-4-24-3-56-48t-57-122-26-172q27 37 107 93t209 56q77 0 150-29t121-81 48-123q0-80-52.5-154t-154-121T410 0Q263 0 187.5 65T92 213.5 72 385q0 102 32 177t65.5 114 49.5 51l2 238H-18v120h946V965zM717 240q0 101-86.5 149.5T442 438q-89 0-144.5-25T223 371q0-90 58.5-152T418 126.5 549 96q87 0 127.5 39T717 240z"/><glyph glyph-name="seven" unicode="7" horiz-adv-x="829" d="M842 965H260V831l514 3L391 0H223q9 17 56 79.5T380 224t115 209 113 288q-110 0-216.5-17.5t-193.5-41T72 623l55 217v125H-10v120h852V965z"/><glyph glyph-name="eight" unicode="8" horiz-adv-x="795" d="M803 965H313V823q11 6 44 15.5t98 9.5q57 0 110.5-11.5t93-43.5 39.5-88q0-99-66-160t-110-82q23-3 70.5-18t94-53T733 291q0-86-68.5-152.5T497.5 36 311 0q-93 0-176.5 49T51 176q0 55 43.5 102.5T219 379q-15 10-55.5 34.5t-66 48.5-40 54.5T43 588q0 57 53 109.5t88 76.5v191H-10v120h813V965zM539 627q0 40-33 66t-81 38-95 12q-63 0-108.5-20.5T176 655q0-57 59-98t129.5-64.5T446 469q22 0 43.5 28.5t35.5 66 14 63.5zm45-430q0 41-37 73t-85 50.5-100.5 30T287 362q-28 0-59-31t-31-63q0-70 80-119t155-49q152 0 152 97z"/><glyph glyph-name="nine" unicode="9" horiz-adv-x="930" d="M934 965H340V797q90 41 160 41 177 0 263.5-93.5T850 467q0-135-66.5-242.5t-174-166T383 0Q238 0 92 90l137 94q37-19 117.5-48.5T500 106q117 0 159.5 103.5T702 440q-27-36-105-90.5T397 295q-142 0-232 64T74 535q0 95 129 188v242H-12v120h946V965zM694 489q0 54-44.5 111.5t-117 95T389 733q-190 0-190-117 0-61 41.5-110.5t104-77T469 401q106 0 165.5 31t59.5 57z"/><glyph glyph-name="colon" unicode=":" horiz-adv-x="358" d="M375 965H-10v120h385V965zm-70-271q-3-6-59-42t-70-36q-6 0-51.5 34.5T70 696q1 0 54 44t56 44q6 0 51-33.5t74-56.5zm0-573q-6-6-60.5-42T176 43q-8 0-51 34t-55 46q1 0 54 44t56 44q6 0 51-33.5t74-56.5z"/><glyph glyph-name="semicolon" unicode=";" horiz-adv-x="358" d="M375 965H-10v120h385V965zm-70-271q-3-6-59-42t-70-36q-6 0-51.5 34.5T70 696q1 0 54 44t56 44q6 0 51-33.5t74-56.5zm-55-561q0-36-33.5-77T136-12 51-39q4 5 27.5 27.5t35 38T125 59q0 24-14 38t-54 46l105 95q20 0 54-35.5t34-69.5z"/><glyph glyph-name="equal" unicode="=" horiz-adv-x="666" d="M678 965H-10v120h688V965zm-70-252q-7-8-50.5-34.5T487 637H82l119 76h407zm0-160q-8-10-51-35t-70-41H82l119 76h407z"/><glyph glyph-name="question" unicode="?" horiz-adv-x="782" d="M795 965H-14q-1 0-1 57.5t-1 62.5h811V965zm-68-326q0-59-54.5-113T537 418.5 451 356q-13-26-13-108l-162-47q-22 8-22 67 0 40 34 74t102 85 102 90.5 34 90.5q0 82-80 108.5T297 743q-79 0-118.5-10T49 678q48 63 141.5 113.5T399 842q99 0 213.5-56.5T727 639zM492 76q-29-23-70.5-49.5T369 0q-9 0-22 6.5t-42.5 25T242 68q21 25 67.5 59.5T367 162q3 0 125-86z"/><glyph glyph-name="A" unicode="A" horiz-adv-x="973" d="M977 965H311V805q5 0 8-4t7-4q-2 0 41 11.5t99 21.5 109 10q120 0 189-33t99.5-93 37-134.5T907 375V-10q-77 30-109.5 44T748 55q0 32-13 41-33-19-74-41.5T554 15 397-2q-87 0-170 32T92.5 121.5 41 256q0 70 65 146.5t174 127T518 580q70 0 133.5-20.5T748 514v92q-42 54-80 73t-119 19q-105-4-165.5-17.5t-130-42T137 594v74q7 6 20 17t17.5 16 5.5 6v258H-25v120H977V965zM748 332q0 46-103.5 77T498 440q-109 0-198-45.5T160 288t-51-100q12-41 61-57t104-16q102 0 188.5 27t151 66 99.5 75 35 49z"/><glyph glyph-name="B" unicode="B" horiz-adv-x="1087" d="M1096 965H336V592q20 25 69.5 76t128 102T690 821q81 0 149-33.5t116.5-88 74-118.5 25.5-122q0-86-45-169.5t-115.5-148-147-103T616 0q-69 0-124.5 41.5T328 193V-12L154 63v902H-10v120h164q0 129-39.5 251.5T21 1552t-111.5 165-89.5 100H39q39-33 80-77.5t93-135.5 88-221 36-298h760V965zM944 356q0 41-27.5 95.5T840 557t-119.5 86T571 678q-48 0-97.5-29T391 582.5 358 526q0-69 60.5-170.5T572 179t182-75q51 0 94.5 38t69.5 97 26 117z"/><glyph glyph-name="C" unicode="C" horiz-adv-x="1044" d="M1059 965H850V686q65-60 85-85.5t46-92.5H848q0 115-65 173t-167 58q-118 0-214.5-64T250 513.5 195 326q0-56 25.5-104.5t83-78.5T451 113q115 0 177.5 38.5T709 215h213q-12-49-67-99T722.5 33 580 0Q454 0 325 70.5T114.5 250 33 465q0 60 54.5 155.5T241 787t226 71q82 0 140-20.5t83-38.5v166H-16v120h1075V965z"/><glyph glyph-name="D" unicode="D" horiz-adv-x="1135" d="M1151 965h-131l-2-977-182 78v143Q756 106 682.5 53T518 0q-88 0-197 70T135.5 249 59 467q2 41 28.5 101.5t78 123T290 795t163 41q104 0 179-62.5T836 571v394H-20v120h856q0 105-5.5 173.5t-30 150T720 1593t-151 230q-4 0-4 16 0 12 6 16h191q95-105 176.5-279t81.5-491h131V965zM788 510q0 63-72 123.5T545 694q-37 0-122-40T268.5 536 199 350q0-103 58-168t132-65q86 0 179.5 72.5T725 357t63 153z"/><glyph glyph-name="E" unicode="E" horiz-adv-x="1040" d="M1053 965H780V768q27-6 45-14.5t23-12.5V623q-119 41-248 41-88 0-191-36T303 516q0-80 227-80 19 0 65 2.5t60 3.5v-92q-72-2-166-7.5T320.5 306 246 205q0-58 68.5-94.5T469 74q173 0 304.5 79.5T995 362V109Q889 42 790 21T588 0Q487 0 360.5 30.5t-217 88T53 252q0 77 58.5 122T246 455q-40 23-66.5 38T137 529t-16 55q0 66 53.5 110.5T308 762t163 32 156 9v162H-14v120h1067V965z"/><glyph glyph-name="F" unicode="F" horiz-adv-x="647" d="M664 965H332V-8q-10 0-174 78v895H-12v120h162q0 27-44.5 84.5t-65 92T20 1352q0 44 35.5 105T158 1561t157 43 159-34 108-93.5 47-137.5q-46 71-104 104.5T408 1477q-50 0-95-23t-71.5-62.5T215 1309q0-27 30.5-75.5T324 1141q5-14 6.5-31t1.5-25h332V965z"/><glyph glyph-name="G" unicode="G" horiz-adv-x="997" d="M1040-162q0-110-50.5-148T860-348q-59 0-103.5 17T628-272t-147 63-135 21q-108 0-232.5-50t-229-143T-279-600q-4 16-4 51 0 101 63 220.5T-39.5-126 229-43q112 0 175.5-32.5T568-176t153-68q61 0 118 30.5t91.5 78.5T965-43q0 48-21.5 91t-61 69-91.5 26q-43 0-99.5-19t-139-54T415 16.5 317-2q-47 0-114.5 43.5T84 147 33 258q0 45 53.5 91T201 401l2 11q-30 42-49 69t-30 56-11 69q1 126 108.5 178T489 836q5 1 9.5 7.5T504 854v111H-14v120h1028V965H659V797q1-12 6.5-32t20.5-26q18 0 42 31t39 46 54 20q30 0 62-19.5t58-52.5 34-66L870 578q-2 46-22.5 90.5T791 713q-9 0-30.5-12T739 674q0-1 11-22t18.5-45 7.5-58q0-133-91-174t-249-41q-108 0-176.5-27.5T163 245t-28-57q3-39 37.5-57t52.5-18q42 0 86.5 18T444 192t162 67.5T752 287q113 0 177.5-92T1017-4t23-158zM651 641q0 121-129 121-74 0-142-38.5t-111.5-98T225 510q0-37 36-84.5T365 377q44 0 114 33.5T600 504t51 137z"/><glyph glyph-name="H" unicode="H" horiz-adv-x="1087" d="M1098 965H291V664q22 24 50 53t64 55 88 45 117 19q123 0 217.5-67.5T975 596t53-207q0-106-51-196T875 53t-76-69L635 82q14 20 60 67t81 93 62 115 28 155q0 105-50 170.5T678 748q-82-3-174.5-59T348 549t-63-162V-10L98 90v875H-12v120H98q0 162-46 290.5T-55 1587t-105.5 123-64.5 53l202 2q73-40 146.5-146.5t120.5-251 47-282.5h807V965z"/><glyph glyph-name="I" unicode="I" horiz-adv-x="389" d="M338 1190q-4-4-23-4-16 0-28 4-72 141-92 172-22 30-55.5 39t-63 17.5T29 1458q-4 6-15 46.5t-43 94.5v23h39q117-36 166-65.5t62.5-57 38.5-113 59-153.5q1-9 1.5-16.5t.5-26.5zm59-225H-10v120h407V965zM283-23L115 70v772h168V-23z"/><glyph glyph-name="J" unicode="J" horiz-adv-x="500" d="M406 1190q-6-4-23-4-15 0-31 4-80 156-92 172-20 29-55 39t-64 18-47 39q-5 10-9 30.5T67.5 1540 37 1599v23h41q115-35 164-64.5t64.5-61 38.5-113 56-150.5q5-30 5-43zm141-225H-55v120h602V965zM410-385q0-41-35-88.5t-96.5-81T147-588q-80 0-165.5 59T-135-401L20-281q7-96 39-175t103-79q32 0 51.5 24t19.5 60V842h177V-385z"/><glyph glyph-name="K" unicode="K" horiz-adv-x="920" d="M932 965H276V707q26 12 81.5 43t111 46T602 811q99 0 192-60.5T887 584q0-70-47-123t-112.5-79T614 356L846 74 719-18 362 406l66 137q53-15 111-15 89 0 144.5 44T739 694q0 80-114 80-75 0-157-66.5T330 551t-56-148V-16L102 61v904H-25v120H96q0 159-30.5 279t-73 198-95.5 147-57 77H43q14-13 47-55.5t74.5-125.5 74.5-219.5 33-300.5h660V965z"/><glyph glyph-name="L" unicode="L" horiz-adv-x="426" d="M442 965H336v120h106V965zm-342 0H-14v120h114V965zm203 241V-25q-4 0-26.5 11.5T225 13t-60 30.5T131 59v1145q-5 119-41 223T9.5 1600t-96 127-63.5 71H63q85-85 140-194.5t77.5-213T303 1206z"/><glyph glyph-name="M" unicode="M" horiz-adv-x="1511" d="M1524 965h-330l2-140q133-49 195.5-129.5T1454 467q0-111-49.5-203t-116-151.5-126.5-94-68-34.5q-15 0-82.5 66T901 160q94 5 209 62t197 147.5 82 191.5q0 52-31 86.5t-80.5 52T1171 717q-173-10-268.5-111.5T774 340q-7 2-83 33.5T569 424q0 49 19.5 98t45 90 25.5 43q0 27-49 37t-86 10q-82 0-154.5-43T255 549.5 213 416q0-75 41-145t88-120.5 116.5-112T532-33q-64 22-150.5 65T209 140.5 66.5 289 10 467q0 109 62 194.5t159.5 133T432 842q82 0 146-23.5T695.5 763t58.5-32q1 0 55 25t111.5 46 97.5 27l2 136H-20v120h1544V965z"/><glyph glyph-name="N" unicode="N" horiz-adv-x="1049" d="M1065 965H-10v120h1075V965zM850 526q0 240-227 240-66 0-135.5-39t-124-108-88-164T242 258V-33L78 53v752h172V686q21 16 69.5 54t118 70T588 842q79 0 152-34t130-95 90-143.5T993 393q0-106-46-216.5T801-43L608 78q18 24 67 70t86 93.5 63 118T850 526z"/><glyph glyph-name="O" unicode="O" horiz-adv-x="1049" d="M1067 965H842V690q0-9 28.5-35.5t51-53.5 42-80.5T983 389q0-106-54-197T780 49.5 571-2q-75 0-166 38.5T232.5 143 101 296.5 51 473q0 66 48 152t138.5 148.5T455 836q70 0 207-37 6 0 6 8v158H-18v120h1085V965zM836 522q0 76-38.5 123t-86 65.5T633 729q-48 0-121.5-27.5T366 618 246.5 477.5 199 287q0-44 30-86t78-68.5 99-26.5 127 32 144.5 87.5T791 357t45 165z"/><glyph glyph-name="P" unicode="P" horiz-adv-x="1116" d="M1135 965H-12v120h1147V965zm-80-553q0-109-66-205.5T825.5 54 643-2q-77 0-165.5 63T260 246v-848l-160 84V805h156V561q18 19 60.5 64t97.5 94.5 121 88T659 846q55 0 123.5-37.5t131-99.5 102-140.5T1055 412zm-99 116q0 24-19.5 67T877 673.5 778 709q-66 0-148-44T474 554.5t-121.5-136T305 305q0-31 35-63.5t90-55T539 164q90 0 168.5 38.5t133 95.5 85 119.5T956 528z"/><glyph glyph-name="Q" unicode="Q" horiz-adv-x="1151" d="M1167 1085l-2-120H-12v120h1179zM1059-535l-180-94v889q-59-66-182-165T461-4q-48 0-112.5 31t-126 90.5T122 257 80 434q0 68 54 168.5t136.5 173T428 848q44 0 122-29.5t168-94T879 563v215h180V-535zM834 295q0 85-90.5 177t-206 157T379 694q-81 0-144-51t-63-104q0-46 44-138t134.5-164.5T573 164q74 0 133 23.5t93.5 55.5 34.5 52z"/><glyph glyph-name="R" unicode="R" horiz-adv-x="983" d="M1001 965H-10v120h1011V965zm-83-359q0-65-73.5-134T721 379L571 549q84 8 141.5 60.5T770 713q0 21-33 50.5T651 793q-65 0-147-60T364.5 578 307 387V-37L115 63v740h194v-76q8 8 59 37t118.5 52.5T623 840q58 0 127.5-28.5T869 729t49-123z"/><glyph glyph-name="S" unicode="S" horiz-adv-x="1006" d="M1016 965H907V586q-58 34-166 59t-184 25q-63 0-150.5-14.5t-157-51T180 508q0-25 20.5-52.5T264 428q47 0 136.5 32.5t132 45T657 518q77 0 146.5-27.5t111-79.5T956 291q0-81-59-147T755.5 40.5 598-2q72-72 137-72 21 0 45 6l101-165q-8-7-38.5-17T754-260q-83 0-126 47T539.5-86 465-6Q390-3 316.5 9.5T180 61t-63 107q0 45 30.5 64.5T217 252q48 0 77-14t71.5-42.5 85-43.5T565 137q51 0 135.5 18T850 208.5t65 86.5q0 28-20 45.5t-46 24-54 6.5q-37 0-78.5-11T556 317t-146-32q-69 0-141.5 39.5T147.5 435 98 590q0 91 68 147.5T329 818t179 24q56 0 141.5-17.5T780 795v170H-16v120h1032V965z"/><glyph glyph-name="T" unicode="T" horiz-adv-x="872" d="M885 965H379V160q0-35 24.5-68T457 59q149 0 149 308l201-115Q758 143 673.5 70.5T451-2q-69 1-126.5 36.5t-91.5 91T199 236v729H-10v120h209v336l180-125v-211h506V965z"/><glyph glyph-name="U" unicode="U" horiz-adv-x="1112" d="M1120 965H283V324q2-70 26.5-132.5T381 91t111-38q93 0 158 41.5t102 101 53 116 16 91.5v398h203V-51q-21 12-90.5 43T819 43v80q-52-38-101-66.5T617 14 496 0Q396 0 301.5 52t-152 142T92 389v576H-29v120h1149V965z"/><glyph glyph-name="V" unicode="V" horiz-adv-x="1274" d="M1282 1085l-2-120h-102V774q0-3-84.5-152.5T898 277.5 739-2q-33 0-98.5 36.5T506 138.5t-113.5 155T348 481q0 65 17 103t45 75.5 28 57.5q0 35-59 35-37 0-63.5-19T229 645L100 762q37 31 68.5 47t60 21.5T309 838q161 0 216-81.5T580 549q0-10-8.5-91.5T563 315q0-158 55-172 30 0 74 76l305 551v195H-16v120h1298z"/><glyph glyph-name="W" unicode="W" horiz-adv-x="1565" d="M1579 1085l-2-120h-92V350q-1-112-76-191.5t-170.5-119T1090 0q-73 0-135 26T848 84.5 805 117q-32-29-114.5-73T494 0q-79 0-171.5 51T167 191t-63 192q1 182 99.5 303T367 850q17-19 50.5-55.5T518 690q-10-11-64-56t-99-92-79-112-34-133q0-98 38-154.5T393 86q145 0 227.5 88.5T730 352t32 133l192-98q-3-41-18-83t-34-74.5-30-45.5q7-11 37-28t95-17q83 0 154.5 33t113 89 41.5 118l-2 586H-14v120h1593z"/><glyph glyph-name="X" unicode="X" horiz-adv-x="963" d="M969 965H850q0-97-.5-133.5T848 760q-2-27-4-33.5T831 705L524 326q0-26 25-59t63-58 76-25q54 0 115 45t98 105V16q0-8-23-21T778-20q-87 0-138.5 35.5t-75 81-43 109T489 283L250 0H6l373 424q-1 86-39 115.5T233 569q-20 0-30-.5t-26.5-1.5-34-2.5T111 563v283q90 0 147.5-38.5t89-96.5 56-139 26.5-87l215 273q10 16 14 35v172H-16v120h985V965z"/><glyph glyph-name="Y" unicode="Y" horiz-adv-x="1135" d="M1149 1085l-2-120H303l2-590q0-122 40.5-185T528 115q86 0 162.5 53.5t123 135T860 459l-2 377 209-72V-260q0-94-46.5-172.5T895-565t-176-81.5T522-674q-192 0-323 59T6.5-477-55-340q1 58 35.5 109.5t90 90 128.5 62T340-55l127-170q-44-3-132-18t-176.5-54.5T70-401q3-24 32.5-71.5t104-89T401-604q124 0 234.5 46t177 131T879-231v407q-16-26-94.5-66T532 70q-109 0-204.5 41.5T172.5 232 113 412v553H-29v120h1178z"/><glyph glyph-name="Z" unicode="Z" horiz-adv-x="1145" d="M1167 965H289V848h772L522 219q9-9 64-37t127-50.5T860 109q80 0 128 25t71 108q10-32 10-58 0-52-26-102T963-.5 836-33Q736-33 658-9T520.5 47.5 426 100q-18-26-75-65T197-4Q145-2 91 28.5T37 111q0 78 86 127t186 49q29 0 58-6l376 454q-88 0-279.5-19T82 635l82 196v134H-14v122h1181V965z"/><glyph glyph-name="backslash" unicode="\" horiz-adv-x="1184" d="M1143-268h-133L51 1636h133z"/><glyph glyph-name="grave" unicode="`" horiz-adv-x="389" d="M338 1190q-4-4-23-4-16 0-28 4-72 141-92 172-22 30-55.5 39t-63 17.5T29 1458q-4 6-15 46.5t-43 94.5v23h39q117-36 166-65.5t62.5-57 38.5-113 59-153.5q1-9 1.5-16.5t.5-26.5z"/><glyph glyph-name="a" unicode="a" horiz-adv-x="961" d="M973 965H307V805q5 0 8-4t7-4q-2 0 41.5 12t99.5 21.5 108 9.5q120 0 189-33t99.5-93 37-134.5T903 375V-20q-55 22-99 43.5T743 55q0 33-12 41-33-19-74-41.5T550 15 393-2q-87 0-170 32T88.5 121.5 37 256q0 70 65 146.5t174 127T514 580q70 0 133-20.5t96-45.5v92q-39 52-78 72t-120 20q-105-4-165.5-17.5t-130-42T133 594v74q7 6 20 17t17.5 16 5.5 6v258H-29v120H973V965zM743 332q0 46-103 77t-146 31q-109 0-198.5-46T155 287.5 104 188q14-42 62.5-57.5T270 115q102 0 189.5 27T611 208.5t98 75.5 34 48z"/><glyph glyph-name="b" unicode="b" horiz-adv-x="1087" d="M1096 965H336V592q20 25 69.5 76t128 102T690 821q81 0 149-33.5t116.5-88 74-118.5 25.5-122q0-86-45-169.5t-115.5-148-147-103T616 0q-69 0-124.5 41.5T328 193V-12L154 63v902H-10v120h164q0 129-39.5 251.5T21 1552t-111.5 165-89.5 100H39q39-33 80-77.5t93-135.5 88-221 36-298h760V965zM944 356q0 41-27.5 95.5T840 557t-119.5 86T571 678q-48 0-97.5-29T391 582.5 358 526q0-69 60.5-170.5T572 179t182-75q51 0 94.5 38t69.5 97 26 117z"/><glyph glyph-name="c" unicode="c" horiz-adv-x="1044" d="M1059 965H850V686q65-60 85-85.5t46-92.5H848q0 115-65 173t-167 58q-118 0-214.5-64T250 513.5 195 326q0-56 25.5-104.5t83-78.5T451 113q115 0 177.5 38.5T709 215h213q-12-49-67-99T722.5 33 580 0Q454 0 325 70.5T114.5 250 33 465q0 60 54.5 155.5T241 787t226 71q82 0 140-20.5t83-38.5v166H-16v120h1075V965z"/><glyph glyph-name="d" unicode="d" horiz-adv-x="1135" d="M1151 965h-131l-2-977-182 78v143Q756 106 682.5 53T518 0q-88 0-197 70T135.5 249 59 467q2 41 28.5 101.5t78 123T290 795t163 41q104 0 179-62.5T836 571v394H-20v120h856q0 105-5.5 173.5t-30 150T720 1593t-151 230q-4 0-4 16 0 12 6 16h191q95-105 176.5-279t81.5-491h131V965zM788 510q0 63-72 123.5T545 694q-37 0-122-40T268.5 536 199 350q0-103 58-168t132-65q86 0 179.5 72.5T725 357t63 153z"/><glyph glyph-name="e" unicode="e" horiz-adv-x="1040" d="M1053 965H780V768q27-6 45-14.5t23-12.5V623q-119 41-248 41-88 0-191-36T303 516q0-80 227-80 19 0 65 2.5t60 3.5v-92q-72-2-166-7.5T320.5 306 246 205q0-58 68.5-94.5T469 74q173 0 304.5 79.5T995 362V109Q889 42 790 21T588 0Q487 0 360.5 30.5t-217 88T53 252q0 77 58.5 122T246 455q-40 23-66.5 38T137 529t-16 55q0 66 53.5 110.5T308 762t163 32 156 9v162H-14v120h1067V965z"/><glyph glyph-name="f" unicode="f" horiz-adv-x="647" d="M664 965H332V-8q-10 0-174 78v895H-12v120h162q0 27-44.5 84.5t-65 92T20 1352q0 44 35.5 105T158 1561t157 43 159-34 108-93.5 47-137.5q-46 71-104 104.5T408 1477q-50 0-95-23t-71.5-62.5T215 1309q0-27 30.5-75.5T324 1141q5-14 6.5-31t1.5-25h332V965z"/><glyph glyph-name="g" unicode="g" horiz-adv-x="997" d="M1055-162q0-110-51-148t-130-38q-59 0-97.5 15T648-274t-153 65-135 21q-108 0-232-50t-228.5-143T-264-600q-4 16-4 51 0 73 35.5 161.5t102.5 167 163.5 128T244-43q112 0 173.5-31.5T581-175t154-69q61 0 118 30.5t91.5 78.5T979-43q0 48-21.5 91T897 117t-92 26q-51 0-143.5-36T476 34.5 332-2q-47 0-115 43.5t-119 105T47 258q0 45 53.5 91T215 401l4 11q-30 42-50 69.5t-31 55-11 69.5q1 126 108.5 178T504 836q7 1 10 7.5t4 10.5v111H0v120h1028V965H676V797q0-12 4.5-32t19.5-26q17 0 40.5 29.5t40.5 46 55 21.5q29 0 61.5-19.5t58-52.5 33.5-66L885 578q0 42-21.5 88.5T805 713q-9 0-30-12t-21-27q0-1 11-22t18.5-45 7.5-58q0-133-91-174t-249-41q-156 0-228.5-52T150 188q3-38 37-56.5t53-18.5q42 0 86.5 18T459 192t161 67.5T766 287q114 0 179-93t87.5-199 22.5-157zM668 641q0 121-129 121-75 0-144-39t-112-98-43-115q0-37 35.5-84.5T379 377q43 0 114 33.5t123 93T668 641z"/><glyph glyph-name="h" unicode="h" horiz-adv-x="1087" d="M1098 965H291V664q22 24 50 53t64 55 88 45 117 19q123 0 217.5-67.5T975 596t53-207q0-106-51-196T875 53t-76-69L635 82q14 20 60 67t81 93 62 115 28 155q0 105-50 170.5T678 748q-82-3-174.5-59T348 549t-63-162V-10L98 90v875H-12v120H98q0 162-46 290.5T-55 1587t-105.5 123-64.5 53l202 2q73-40 146.5-146.5t120.5-251 47-282.5h807V965z"/><glyph glyph-name="i" unicode="i" horiz-adv-x="389" d="M338 1190q-4-4-23-4-16 0-28 4-72 141-92 172-22 30-55.5 39t-63 17.5T29 1458q-4 6-15 46.5t-43 94.5v23h39q117-36 166-65.5t62.5-57 38.5-113 59-153.5q1-9 1.5-16.5t.5-26.5zm59-225H-10v120h407V965zM283-23L115 70v772h168V-23z"/><glyph glyph-name="j" unicode="j" horiz-adv-x="500" d="M406 1190q-6-4-23-4-15 0-31 4-80 156-92 172-20 29-55 39t-64 18-47 39q-5 10-9 30.5T67.5 1540 37 1599v23h41q115-35 164-64.5t64.5-61 38.5-113 56-150.5q5-30 5-43zm141-225H-55v120h602V965zM410-385q0-41-35-88.5t-96.5-81T147-588q-80 0-165.5 59T-135-401L20-281q7-96 39-175t103-79q32 0 51.5 24t19.5 60V842h177V-385z"/><glyph glyph-name="k" unicode="k" horiz-adv-x="920" d="M932 965H276V707q26 12 81.5 43t111 46T602 811q99 0 192-60.5T887 584q0-70-47-123t-112.5-79T614 356L846 74 719-18 362 406l66 137q53-15 111-15 89 0 144.5 44T739 694q0 80-114 80-75 0-157-66.5T330 551t-56-148V-16L102 61v904H-25v120H96q0 159-30.5 279t-73 198-95.5 147-57 77H43q14-13 47-55.5t74.5-125.5 74.5-219.5 33-300.5h660V965z"/><glyph glyph-name="l" unicode="l" horiz-adv-x="426" d="M442 965H336v120h106V965zm-342 0H-14v120h114V965zm203 241V-25q-4 0-26.5 11.5T225 13t-60 30.5T131 59v1145q-5 119-41 223T9.5 1600t-96 127-63.5 71H63q85-85 140-194.5t77.5-213T303 1206z"/><glyph glyph-name="m" unicode="m" horiz-adv-x="1511" d="M1524 965h-330l2-140q133-49 195.5-129.5T1454 467q0-111-49.5-203t-116-151.5-126.5-94-68-34.5q-15 0-82.5 66T901 160q94 5 209 62t197 147.5 82 191.5q0 52-31 86.5t-80.5 52T1171 717q-173-10-268.5-111.5T774 340q-7 2-83 33.5T569 424q0 49 19.5 98t45 90 25.5 43q0 27-49 37t-86 10q-82 0-154.5-43T255 549.5 213 416q0-75 41-145t88-120.5 116.5-112T532-33q-64 22-150.5 65T209 140.5 66.5 289 10 467q0 109 62 194.5t159.5 133T432 842q82 0 146-23.5T695.5 763t58.5-32q1 0 55 25t111.5 46 97.5 27l2 136H-20v120h1544V965z"/><glyph glyph-name="n" unicode="n" horiz-adv-x="1049" d="M1065 965H-10v120h1075V965zM850 526q0 240-227 240-66 0-135.5-39t-124-108-88-164T242 258V-33L78 53v752h172V686q21 16 69.5 54t118 70T588 842q79 0 152-34t130-95 90-143.5T993 393q0-106-46-216.5T801-43L608 78q18 24 67 70t86 93.5 63 118T850 526z"/><glyph glyph-name="o" unicode="o" horiz-adv-x="1049" d="M1067 965H842V690q0-9 28.5-35.5t51-53.5 42-80.5T983 389q0-106-54-197T780 49.5 571-2q-75 0-166 38.5T232.5 143 101 296.5 51 473q0 66 48 152t138.5 148.5T455 836q70 0 207-37 6 0 6 8v158H-18v120h1085V965zM836 522q0 76-38.5 123t-86 65.5T633 729q-48 0-121.5-27.5T366 618 246.5 477.5 199 287q0-44 30-86t78-68.5 99-26.5 127 32 144.5 87.5T791 357t45 165z"/><glyph glyph-name="p" unicode="p" horiz-adv-x="1116" d="M1135 965H-12v120h1147V965zm-80-553q0-109-66-205.5T825.5 54 643-2q-77 0-165.5 63T260 246v-848l-160 84V805h156V561q18 19 60.5 64t97.5 94.5 121 88T659 846q55 0 123.5-37.5t131-99.5 102-140.5T1055 412zm-99 116q0 24-19.5 67T877 673.5 778 709q-66 0-148-44T474 554.5t-121.5-136T305 305q0-31 35-63.5t90-55T539 164q90 0 168.5 38.5t133 95.5 85 119.5T956 528z"/><glyph glyph-name="q" unicode="q" horiz-adv-x="1151" d="M1167 1085l-2-120H-12v120h1179zM1059-535l-180-94v889q-59-66-182-165T461-4q-48 0-112.5 31t-126 90.5T122 257 80 434q0 68 54 168.5t136.5 173T428 848q44 0 122-29.5t168-94T879 563v215h180V-535zM834 295q0 85-90.5 177t-206 157T379 694q-81 0-144-51t-63-104q0-46 44-138t134.5-164.5T573 164q74 0 133 23.5t93.5 55.5 34.5 52z"/><glyph glyph-name="r" unicode="r" horiz-adv-x="983" d="M1001 965H-10v120h1011V965zm-83-359q0-65-73.5-134T721 379L571 549q84 8 141.5 60.5T770 713q0 21-33 50.5T651 793q-65 0-147-60T364.5 578 307 387V-37L115 63v740h194v-76q8 8 59 37t118.5 52.5T623 840q58 0 127.5-28.5T869 729t49-123z"/><glyph glyph-name="s" unicode="s" horiz-adv-x="1006" d="M1016 965H907V586q-58 34-166 59t-184 25q-63 0-150.5-14.5t-157-51T180 508q0-25 20.5-52.5T264 428q47 0 136.5 32.5t132 45T657 518q77 0 146.5-27.5t111-79.5T956 291q0-81-59-147T755.5 40.5 598-2q72-72 137-72 21 0 45 6l101-165q-8-7-38.5-17T754-260q-83 0-126 47T539.5-86 465-6Q390-3 316.5 9.5T180 61t-63 107q0 45 30.5 64.5T217 252q48 0 77-14t71.5-42.5 85-43.5T565 137q51 0 135.5 18T850 208.5t65 86.5q0 28-20 45.5t-46 24-54 6.5q-37 0-78.5-11T556 317t-146-32q-69 0-141.5 39.5T147.5 435 98 590q0 91 68 147.5T329 818t179 24q56 0 141.5-17.5T780 795v170H-16v120h1032V965z"/><glyph glyph-name="t" unicode="t" horiz-adv-x="872" d="M885 965H379V160q0-35 24.5-68T457 59q149 0 149 308l201-115Q758 143 673.5 70.5T451-2q-69 1-126.5 36.5t-91.5 91T199 236v729H-10v120h209v336l180-125v-211h506V965z"/><glyph glyph-name="u" unicode="u" horiz-adv-x="1112" d="M1120 965H283V324q2-70 26.5-132.5T381 91t111-38q93 0 158 41.5t102 101 53 116 16 91.5v398h203V-51q-21 12-90.5 43T819 43v80q-52-38-101-66.5T617 14 496 0Q396 0 301.5 52t-152 142T92 389v576H-29v120h1149V965z"/><glyph glyph-name="v" unicode="v" horiz-adv-x="1274" d="M1282 1085l-2-120h-102V774q0-3-84.5-152.5T898 277.5 739-2q-33 0-98.5 36.5T506 138.5t-113.5 155T348 481q0 65 17 103t45 75.5 28 57.5q0 35-59 35-37 0-63.5-19T229 645L100 762q37 31 68.5 47t60 21.5T309 838q161 0 216-81.5T580 549q0-10-8.5-91.5T563 315q0-158 55-172 30 0 74 76l305 551v195H-16v120h1298z"/><glyph glyph-name="w" unicode="w" horiz-adv-x="1565" d="M1579 1085l-2-120h-92V350q-1-112-76-191.5t-170.5-119T1090 0q-73 0-135 26T848 84.5 805 117q-32-29-114.5-73T494 0q-79 0-171.5 51T167 191t-63 192q1 182 99.5 303T367 850q17-19 50.5-55.5T518 690q-10-11-64-56t-99-92-79-112-34-133q0-98 38-154.5T393 86q145 0 227.5 88.5T730 352t32 133l192-98q-3-41-18-83t-34-74.5-30-45.5q7-11 37-28t95-17q83 0 154.5 33t113 89 41.5 118l-2 586H-14v120h1593z"/><glyph glyph-name="x" unicode="x" horiz-adv-x="963" d="M969 965H850q0-97-.5-133.5T848 760q-2-27-4-33.5T831 705L524 326q0-26 25-59t63-58 76-25q54 0 115 45t98 105V16q0-8-23-21T778-20q-87 0-138.5 35.5t-75 81-43 109T489 283L250 0H6l373 424q-1 86-39 115.5T233 569q-20 0-30-.5t-26.5-1.5-34-2.5T111 563v283q90 0 147.5-38.5t89-96.5 56-139 26.5-87l215 273q10 16 14 35v172H-16v120h985V965z"/><glyph glyph-name="y" unicode="y" horiz-adv-x="1135" d="M1149 1085l-2-120H303l2-590q0-122 40.5-185T528 115q86 0 162.5 53.5t123 135T860 459l-2 377 209-72V-260q0-94-46.5-172.5T895-565t-176-81.5T522-674q-192 0-323 59T6.5-477-55-340q1 58 35.5 109.5t90 90 128.5 62T340-55l127-170q-44-3-132-18t-176.5-54.5T70-401q3-24 32.5-71.5t104-89T401-604q124 0 234.5 46t177 131T879-231v407q-16-26-94.5-66T532 70q-109 0-204.5 41.5T172.5 232 113 412v553H-29v120h1178z"/><glyph glyph-name="z" unicode="z" horiz-adv-x="1145" d="M1167 965H289V848h772L522 219q9-9 64-37t127-50.5T860 109q80 0 128 25t71 108q10-32 10-58 0-52-26-102T963-.5 836-33Q736-33 658-9T520.5 47.5 426 100q-18-26-75-65T197-4Q145-2 91 28.5T37 111q0 78 86 127t186 49q29 0 58-6l376 454q-88 0-279.5-19T82 635l82 196v134H-14v122h1181V965z"/><glyph glyph-name="bar" unicode="|" horiz-adv-x="358" d="M240-266l-121 73v1829h121V-266z"/><glyph glyph-name="circumflex" unicode="ˆ" horiz-adv-x="1073" d="M1090 965H299V-10q-79 38-121 62.5T133 82v883H-16v120h133q12 0 12 19 0 13-40 58.5t-64.5 88T0 1354q0 66 47.5 119.5t120 89 152 54.5 143.5 19q103 0 196-30t165-78.5T947 1418t67-118q-39 27-87 61.5T816.5 1432 687 1492t-138 24q-92 0-175-26t-134.5-72-51.5-101q0-43 30.5-92.5T287 1137q12-15 12-52h791V965z"/><glyph glyph-name="quoteleft" unicode="‘" d="M258 1618q-5-7-39.5-41.5T184 1520q0-18 10.5-33t29-29.5T252 1436l-105-97q-19 0-53.5 36.5T59 1444q0 36 33 76.5t80 68.5 86 29zm43-653H-12v120h313V965z"/><glyph glyph-name="quoteright" unicode="’" d="M250 1497q0-36-33.5-77t-80.5-68-85-27q11 13 31 32t31.5 34.5T125 1423q0 24-14 38t-54 46l105 97q20 0 54-36.5t34-70.5zm51-532H-12v120h313V965z"/><glyph glyph-name="quotedblleft" unicode="“" d="M541 1618q-7-9-41.5-42.5T465 1520q0-17 11-32.5t26-27 33-24.5l-105-97q-18 0-54 36t-36 69q0 53 70 112.5t131 61.5zm-293 0q-7-9-41.5-42.5T172 1520q0-17 11-32.5t26-27 33-24.5l-105-97q-18 0-54 36t-36 69q0 53 70 112.5t131 61.5zm354-653H-2v120h604V965z"/><glyph glyph-name="quotedblright" unicode="”" d="M584 1497q0-54-70-113t-131-59q8 10 31 31.5t34 36 11 30.5-10.5 31-27 28-32.5 25l105 97q21 0 55.5-37t34.5-70zm-293 0q0-54-70-113t-131-59q8 10 31 31.5t34 36 11 30.5-10.5 31-27 28-32.5 25l105 97q21 0 55.5-37t34.5-70zm311-532H-2v120h604V965z"/><glyph glyph-name="oe" unicode="œ" horiz-adv-x="829" d="M797 1257q0-85-23-146t-57.5-103.5T610 893Q453 738 453 602q0-25 4.5-41t7.5-22L193 399q-6 18-14.5 52.5T170 504q0 108 56 190t169.5 185 163 163.5T608 1186q0 97-49 155.5T430.5 1425 250 1452q-90 0-127-7.5T54 1419t-52-26q68 138 190.5 192.5T424 1640q49 0 111.5-19t121-60.5T756 1442t41-185zM557 197q-13-15-53.5-60T375 2q-1 0-51 43.5T230 136t-44 61q0 18 85 105t91 87q15 0 105-92t90-100z"/><glyph glyph-name="acute" unicode="´" horiz-adv-x="389" d="M418 1599q-29-51-42-93.5t-16-47.5q-18-31-47.5-39.5t-63-17.5-54.5-39q-15-20-93-172-12-4-28-4-19 0-23 4-4 12-4 14 3 14 6 29 34 68 56.5 148.5T148 1495t65 62 166 65h39v-23z"/><glyph glyph-name="nonbreakingspace" horiz-adv-x="1024"/></font>
</defs>
</svg>
