<svg width="200" height="52" fill="none" xmlns="http://www.w3.org/2000/svg"><g clip-path="url(#clip0)"><path opacity=".64" d="M20.363 38.462a4.273 4.273 0 100 8.546 4.273 4.273 0 000-8.547zm17.116 0a4.273 4.273 0 100 8.546 4.273 4.273 0 000-8.547z" fill="#542DED"/><path d="M41.667 8.547H13.76a1.066 1.066 0 00-.705.299l4.274 18.632c0 .15 0 .278.15.428a5.28 5.28 0 004.102 1.923h15.897a9.636 9.636 0 009.53-9.552v-6.41a5.342 5.342 0 00-5.341-5.32z" fill="#542DED"/><path opacity=".8" d="M38.76 35.876H24.23a9.873 9.873 0 01-9.679-7.735L10.278 9.274A2.906 2.906 0 007.5 7.008H5.64a1.368 1.368 0 010-2.736H7.5a5.62 5.62 0 015.513 4.402l4.273 18.868a7.158 7.158 0 007.009 5.598h14.53a1.367 1.367 0 110 2.735h-.064z" fill="#542DED"/><path d="M73.872 23.333c-1.744 0-3.137-.538-4.18-1.615-1.042-1.094-1.615-2.581-1.718-4.462l-.025-.871.025-.847c.103-1.846.676-3.316 1.718-4.41 1.043-1.094 2.436-1.64 4.18-1.64 1.88 0 3.333.598 4.359 1.794 1.043 1.197 1.564 2.82 1.564 4.872v.461c0 .171-.06.317-.18.436a.555.555 0 01-.41.154h-8.897v.23c.051 1.112.393 2.06 1.025 2.847.633.786 1.47 1.18 2.513 1.18.804 0 1.453-.154 1.949-.462.513-.325.897-.658 1.154-1 .154-.205.273-.325.359-.359.085-.051.23-.077.436-.077h1.128a.58.58 0 01.384.128c.12.086.18.197.18.334 0 .376-.23.829-.692 1.359-.462.53-1.12.991-1.975 1.384-.837.376-1.803.564-2.897.564zm3.59-7.871v-.077c0-1.197-.325-2.171-.975-2.924-.65-.752-1.521-1.128-2.615-1.128-1.111 0-1.983.376-2.616 1.128-.632.753-.948 1.727-.948 2.924v.076h7.153zm9.758 7.871c-1.829 0-3.256-.512-4.282-1.538-1.025-1.043-1.564-2.496-1.615-4.36l-.026-1.025.026-1.025c.051-1.864.59-3.308 1.615-4.334 1.026-1.042 2.453-1.564 4.282-1.564 1.231 0 2.265.222 3.103.667.855.427 1.487.966 1.897 1.615.428.65.659 1.3.693 1.949.017.154-.043.29-.18.41a.565.565 0 01-.41.18h-1.128c-.171 0-.3-.034-.385-.103-.085-.085-.17-.23-.256-.436-.308-.837-.735-1.427-1.282-1.769-.53-.359-1.205-.539-2.026-.539-1.077 0-1.932.334-2.564 1-.633.667-.974 1.684-1.026 3.052l-.025.897.025.898c.052 1.367.393 2.384 1.026 3.051.632.667 1.487 1 2.564 1 .838 0 1.521-.17 2.051-.513.53-.359.949-.957 1.257-1.795.085-.205.17-.342.256-.41.085-.085.214-.128.385-.128h1.128c.154 0 .29.06.41.18.137.119.197.256.18.41-.034.632-.265 1.273-.693 1.923-.41.65-1.042 1.196-1.897 1.64-.838.445-1.872.667-3.103.667zm13.149 0c-1.88 0-3.333-.53-4.359-1.59-1.008-1.06-1.547-2.47-1.615-4.23l-.026-1.103.026-1.102c.068-1.76.615-3.171 1.64-4.231 1.044-1.06 2.488-1.59 4.334-1.59 1.846 0 3.282.53 4.308 1.59 1.043 1.06 1.598 2.47 1.667 4.23a12.244 12.244 0 010 2.205c-.069 1.761-.616 3.172-1.641 4.232-1.009 1.06-2.453 1.59-4.334 1.59zm0-1.923c1.094 0 1.957-.342 2.59-1.025.649-.701 1-1.701 1.051-3 .017-.171.026-.496.026-.975 0-.478-.009-.803-.026-.974-.051-1.3-.402-2.29-1.051-2.975-.633-.7-1.496-1.05-2.59-1.05-1.094 0-1.966.35-2.615 1.05-.633.684-.975 1.676-1.026 2.975l-.025.974.025.975c.052 1.299.393 2.299 1.026 3 .65.683 1.521 1.025 2.615 1.025zm8.828 1.667a.646.646 0 01-.436-.154.645.645 0 01-.154-.436V10.333c0-.17.051-.307.154-.41a.593.593 0 01.436-.18h1.076c.171 0 .308.06.411.18.102.103.154.24.154.41v.872c.923-1.145 2.17-1.718 3.743-1.718 1.88 0 3.214.787 4 2.36a4.552 4.552 0 011.744-1.719c.769-.427 1.624-.64 2.564-.64 1.402 0 2.547.478 3.436 1.435.889.957 1.333 2.342 1.333 4.154v7.41c0 .171-.06.317-.179.436a.557.557 0 01-.411.154h-1.102a.646.646 0 01-.436-.154.645.645 0 01-.154-.436v-7.18c0-1.367-.282-2.341-.846-2.922-.564-.599-1.308-.898-2.231-.898-.82 0-1.53.308-2.128.923-.581.599-.872 1.564-.872 2.898v7.18c0 .17-.06.316-.179.435a.557.557 0 01-.411.154h-1.128a.648.648 0 01-.436-.154.65.65 0 01-.154-.436v-7.18c0-1.35-.299-2.324-.897-2.922-.581-.599-1.308-.898-2.18-.898-.82 0-1.53.3-2.128.898-.581.598-.872 1.564-.872 2.897v7.205a.59.59 0 01-.179.436.555.555 0 01-.41.154h-1.128zm21.735 0a.652.652 0 01-.436-.154.65.65 0 01-.154-.436V10.333c0-.17.052-.307.154-.41a.597.597 0 01.436-.18h1.077a.51.51 0 01.41.18c.103.103.154.24.154.41v.872c.923-1.145 2.172-1.718 3.744-1.718 1.88 0 3.214.787 4 2.36a4.556 4.556 0 011.743-1.719c.769-.427 1.625-.64 2.564-.64 1.403 0 2.548.478 3.436 1.435.89.957 1.334 2.342 1.334 4.154v7.41a.588.588 0 01-.18.436.552.552 0 01-.41.154h-1.103a.652.652 0 01-.436-.154.65.65 0 01-.153-.436v-7.18c0-1.367-.283-2.341-.847-2.922-.564-.599-1.307-.898-2.23-.898-.821 0-1.53.308-2.129.923-.58.599-.871 1.564-.871 2.898v7.18c0 .17-.059.316-.18.435a.552.552 0 01-.41.154h-1.128a.648.648 0 01-.436-.154.645.645 0 01-.154-.436v-7.18c0-1.35-.299-2.324-.897-2.922-.581-.599-1.308-.898-2.18-.898-.821 0-1.529.3-2.128.898-.581.598-.872 1.564-.872 2.897v7.205a.59.59 0 01-.179.436.555.555 0 01-.411.154h-1.128zm26.428.256c-1.743 0-3.137-.538-4.179-1.615-1.043-1.094-1.616-2.581-1.718-4.462l-.026-.871.026-.847c.102-1.846.675-3.316 1.718-4.41 1.042-1.094 2.436-1.64 4.179-1.64 1.881 0 3.334.598 4.359 1.794 1.043 1.197 1.564 2.82 1.564 4.872v.461c0 .171-.06.317-.179.436a.556.556 0 01-.41.154h-8.898v.23c.051 1.112.394 2.06 1.026 2.847.632.786 1.47 1.18 2.513 1.18.803 0 1.452-.154 1.948-.462.513-.325.898-.658 1.154-1 .154-.205.273-.325.359-.359.086-.051.231-.077.436-.077h1.128c.154 0 .282.043.385.128a.394.394 0 01.179.334c0 .376-.23.829-.692 1.359-.461.53-1.119.991-1.974 1.384-.837.376-1.804.564-2.898.564zm3.59-7.871v-.077c0-1.197-.324-2.171-.974-2.924-.65-.752-1.522-1.128-2.616-1.128-1.111 0-1.983.376-2.615 1.128-.632.753-.949 1.727-.949 2.924v.076h7.154zm5.015 7.615a.645.645 0 01-.435-.154.645.645 0 01-.154-.436V10.36c0-.171.051-.316.154-.436a.592.592 0 01.435-.18h1.077c.189 0 .334.06.436.18.119.103.18.248.18.436v1.128c.701-1.162 1.888-1.743 3.564-1.743h1c.188 0 .333.05.436.153.102.103.154.248.154.436v.95a.65.65 0 01-.154.435c-.103.102-.248.154-.436.154h-1.462c-.939 0-1.683.273-2.231.82-.529.547-.794 1.291-.794 2.231v7.564a.596.596 0 01-.18.436.646.646 0 01-.436.154h-1.154zm13.108.256c-1.828 0-3.256-.512-4.282-1.538-1.026-1.043-1.564-2.496-1.615-4.36l-.026-1.025.026-1.025c.051-1.864.589-3.308 1.615-4.334 1.026-1.042 2.454-1.564 4.282-1.564 1.231 0 2.265.222 3.103.667.855.427 1.487.966 1.897 1.615.428.65.659 1.3.692 1.949.018.154-.042.29-.179.41a.565.565 0 01-.41.18h-1.129c-.17 0-.298-.034-.384-.103-.085-.085-.171-.23-.257-.436-.307-.837-.734-1.427-1.282-1.769-.529-.359-1.205-.539-2.025-.539-1.077 0-1.931.334-2.564 1-.632.667-.975 1.684-1.026 3.052l-.026.897.026.898c.051 1.367.394 2.384 1.026 3.051.633.667 1.487 1 2.564 1 .838 0 1.522-.17 2.051-.513.531-.359.949-.957 1.256-1.795.086-.205.172-.342.257-.41.086-.085.214-.128.384-.128h1.129c.153 0 .291.06.41.18.137.119.197.256.179.41-.033.632-.264 1.273-.692 1.923-.41.65-1.042 1.196-1.897 1.64-.838.445-1.872.667-3.103.667zm13.021 0c-1.744 0-3.136-.538-4.18-1.615-1.042-1.094-1.615-2.581-1.718-4.462l-.025-.871.025-.847c.103-1.846.676-3.316 1.718-4.41 1.044-1.094 2.436-1.64 4.18-1.64 1.88 0 3.333.598 4.359 1.794 1.043 1.197 1.564 2.82 1.564 4.872v.461a.588.588 0 01-.18.436.552.552 0 01-.41.154h-8.898v.23c.052 1.112.394 2.06 1.026 2.847.633.786 1.471 1.18 2.513 1.18.804 0 1.454-.154 1.949-.462.512-.325.897-.658 1.154-1 .153-.205.274-.325.358-.359.086-.051.231-.077.436-.077h1.129a.58.58 0 01.384.128.39.39 0 01.18.334c0 .376-.231.829-.693 1.359-.461.53-1.119.991-1.974 1.384-.837.376-1.803.564-2.897.564zm3.589-7.871v-.077c0-1.197-.324-2.171-.974-2.924-.649-.752-1.521-1.128-2.615-1.128-1.111 0-1.982.376-2.616 1.128-.632.753-.949 1.727-.949 2.924v.076h7.154z" fill="#542DED"/><path fill-rule="evenodd" clip-rule="evenodd" d="M121.795 28.205H75.321l-8.654 11.538 8.654 11.539h41.346l5.128-23.077zm2.564 0l-5.128 23.077h8.013l8.654-11.538-8.654-11.539h-2.885z" fill="#542DED"/><path d="M76.808 44.872a.356.356 0 01-.262-.108.356.356 0 01-.108-.262V34.487a.41.41 0 01.093-.277.375.375 0 01.277-.108h1.415c.113 0 .205.036.277.108a.375.375 0 01.108.277v3.954H83.1v-3.954c0-.113.036-.205.108-.277a.356.356 0 01.261-.108H84.9c.113 0 .2.036.262.108a.375.375 0 01.107.277v10.015a.36.36 0 01-.107.262.326.326 0 01-.262.108h-1.43a.356.356 0 01-.262-.108.356.356 0 01-.108-.262v-4.107h-4.492v4.107c0 .103-.036.19-.108.262a.375.375 0 01-.277.108h-1.415zm12.991 0a.356.356 0 01-.261-.108.356.356 0 01-.108-.262v-8.476h-2.846a.356.356 0 01-.261-.108.375.375 0 01-.108-.277v-1.154a.41.41 0 01.092-.277.375.375 0 01.277-.108h7.862c.112 0 .205.036.277.108a.375.375 0 01.107.277v1.154a.375.375 0 01-.107.277.375.375 0 01-.277.108h-2.831v8.476c0 .103-.036.19-.108.262a.326.326 0 01-.261.108h-1.447zm6.346 0a.356.356 0 01-.262-.108.356.356 0 01-.107-.262V34.487a.41.41 0 01.092-.277.375.375 0 01.277-.108h1.246c.195 0 .349.098.462.293l2.969 5.508 2.969-5.508c.113-.195.267-.293.462-.293h1.23c.113 0 .205.036.277.108a.374.374 0 01.108.277v10.015a.374.374 0 01-.108.277.41.41 0 01-.277.093h-1.323a.356.356 0 01-.261-.108.356.356 0 01-.108-.262v-6.615l-2.138 4.062c-.113.225-.282.338-.508.338h-.646c-.216 0-.39-.113-.523-.338l-2.139-4.062v6.615c0 .103-.036.19-.108.262a.326.326 0 01-.261.108h-1.323zm11.869 0a.356.356 0 01-.261-.108.356.356 0 01-.108-.262v-10.03c0-.113.036-.2.108-.262a.356.356 0 01.261-.108h1.447c.112 0 .2.036.261.108a.325.325 0 01.108.262v8.554h4.877c.112 0 .205.035.277.107a.359.359 0 01.107.262v1.107a.36.36 0 01-.107.262.377.377 0 01-.277.108h-6.693z" fill="#fff"/></g><defs><clipPath id="clip0"><path fill="#fff" d="M0 0h200v51.282H0z"/></clipPath></defs></svg>