<svg width="200" height="47" fill="none" xmlns="http://www.w3.org/2000/svg"><path d="M75.53 31.86h-3.238V14.133h6.65c.803-.012 1.6.153 2.332.483a5.61 5.61 0 011.784 1.28 5.804 5.804 0 011.15 1.811 5.58 5.58 0 01.204 3.613 5.409 5.409 0 01-.613 1.398 5.838 5.838 0 01-2.362 2.139 1036.594 1036.594 0 005.18 7.003h-2.544a1.984 1.984 0 01-.613-.113 2.998 2.998 0 01-.722-.351 5.379 5.379 0 01-.78-.613 6.048 6.048 0 01-.784-.942l-3.226-4.355H75.53v6.374zm3.512-9.637c.31-.002.615-.072.894-.204a2.34 2.34 0 00.743-.534c.213-.224.382-.486.5-.772.123-.287.186-.596.186-.907 0-.318-.062-.632-.185-.924a2.596 2.596 0 00-.5-.772 2.363 2.363 0 00-.744-.532 2.083 2.083 0 00-.894-.204H75.53v4.837l3.512.012zm16.224-8.09h2.936l7.753 17.726h-2.019a2.334 2.334 0 01-1.262-.357 2.223 2.223 0 01-.855-.991l-1.054-2.4h-8.063l-1.039 2.4c-.085.2-.203.384-.348.545a2.37 2.37 0 01-.507.425c-.19.122-.397.215-.614.278a2.22 2.22 0 01-.663.1h-2.019l7.754-17.726zm-1.127 10.724h5.19l-2.316-5.369a3.046 3.046 0 01-.217-.68 5.238 5.238 0 01-.07-.47 4.07 4.07 0 01-.073.476 3.592 3.592 0 01-.205.674l-2.31 5.369zm21.137 7.003h-3.257v-7.51a1.432 1.432 0 00-.172-.705 7.403 7.403 0 00-.458-.705l-6.508-8.807h2.487c.499-.01.993.1 1.441.321.418.216.774.535 1.034.928l3.5 4.738c.103.138.179.293.225.458.041.155.063.256.071.296.016-.098.039-.195.07-.29a1.34 1.34 0 01.241-.464l3.488-4.726a2.66 2.66 0 011.034-.946 3.155 3.155 0 011.441-.315h2.516l-6.525 8.82a7.02 7.02 0 00-.258.365 3.515 3.515 0 00-.204.327 1.438 1.438 0 00-.172.705l.006 7.51zm25.059-8.51v6.81c-.401.37-.854.68-1.343.922a8.145 8.145 0 01-1.569.581 10.96 10.96 0 01-1.732.296c-.596.053-1.203.08-1.815.08a8.893 8.893 0 01-3.55-.712 9.254 9.254 0 01-2.9-1.937 9.057 9.057 0 01-1.954-2.868 9.042 9.042 0 010-7.046 9.096 9.096 0 011.962-2.877 9.297 9.297 0 012.9-1.936 9.284 9.284 0 017.029-.037 9.178 9.178 0 012.857 1.87l-.123.112a1.73 1.73 0 01-.504.35c-.192.08-.398.12-.605.116a1.38 1.38 0 01-.798-.246 7.86 7.86 0 00-2.003-.98 7.417 7.417 0 00-2.303-.351 7.545 7.545 0 00-2.012.265 7.318 7.318 0 00-1.803.758 7.848 7.848 0 00-1.534 1.172c-.46.453-.857.963-1.183 1.519a7.735 7.735 0 00-.765 1.795 7.175 7.175 0 00-.274 1.992 7.078 7.078 0 00.28 1.993 7.545 7.545 0 002.005 3.313c.47.454.994.848 1.561 1.174a7.71 7.71 0 003.861 1.023 9.195 9.195 0 002.502-.338 8.817 8.817 0 002.291-1.02v-4.251h-1.582a1.473 1.473 0 01-1.089-.45 1.497 1.497 0 01-.404-1.044v-.05l4.597.003zm6.76 8.51h-1.567V14.133h6.291a4.988 4.988 0 011.969.388 5.093 5.093 0 011.596 1.065c.459.452.825.988 1.079 1.577.265.61.399 1.266.395 1.93a5.34 5.34 0 01-1.178 3.304 4.654 4.654 0 01-1.329 1.12 4.351 4.351 0 01-1.692.537l5.94 7.806h-.739c-.859 0-1.497-.315-1.904-.938l-5.228-6.868h-3.633v7.806zm0-16.182v6.829h4.724a3.478 3.478 0 002.451-.997c.316-.313.568-.682.745-1.087.185-.42.279-.873.276-1.33a3.206 3.206 0 00-.276-1.323 3.508 3.508 0 00-1.849-1.82 3.365 3.365 0 00-1.347-.272h-4.724zM164.15 31.86h-1.432V14.133h1.432V31.86zm6.088 0V14.132h6.522a8.722 8.722 0 014.47 1.211 9.042 9.042 0 013.189 3.186 8.823 8.823 0 010 8.944 9.131 9.131 0 01-1.392 1.794 8.842 8.842 0 01-6.267 2.591h-6.522zm6.522-1.547a7.137 7.137 0 002.862-.575 7.497 7.497 0 002.326-1.565 7.316 7.316 0 001.572-2.325 7.337 7.337 0 000-5.691 7.394 7.394 0 00-1.572-2.332 7.473 7.473 0 00-2.326-1.571 7.137 7.137 0 00-2.862-.577h-4.975v14.636h4.975zm20.103-13.839a8.475 8.475 0 01-.503-.37c-.3-.24-.65-.408-1.025-.493a3.719 3.719 0 00-.821-.074 3.916 3.916 0 00-2.502.89 3.107 3.107 0 00-.775.95 2.436 2.436 0 00-.286 1.149c-.011.387.049.772.182 1.136.131.31.344.581.615.784a4.67 4.67 0 001.13.63c.467.193 1.045.41 1.732.649.366.136.707.26 1.026.371.314.115.616.233.894.351.27.114.533.24.789.382.244.137.479.292.701.463.559.415.987.982 1.23 1.632.242.679.362 1.394.353 2.114a4.64 4.64 0 01-.459 2.087 4.771 4.771 0 01-1.241 1.575 5.536 5.536 0 01-1.832.994 7.08 7.08 0 01-2.25.344c-1.548 0-2.851-.457-3.912-1.37a6.402 6.402 0 01-1.228-1.495l.185-.111c.236-.145.506-.226.783-.235.193 0 .385.026.571.08.183.055.351.155.486.291.284.27.594.512.924.723.246.152.508.277.782.37.23.075.467.123.708.142.226.016.46.028.701.036a5.268 5.268 0 001.495-.167 4.005 4.005 0 001.354-.612c.403-.284.739-.653.982-1.081.264-.48.396-1.02.381-1.567a3.762 3.762 0 00-.298-1.632 2.655 2.655 0 00-.821-.994 4.843 4.843 0 00-1.249-.636 58.84 58.84 0 01-1.552-.576c-.704-.28-1.346-.54-1.925-.777a6.144 6.144 0 01-1.482-.847 3.346 3.346 0 01-.958-1.204 4.33 4.33 0 01-.341-1.852c-.008-.654.15-1.3.459-1.877a4.882 4.882 0 011.186-1.44 5.494 5.494 0 011.641-.927 5.445 5.445 0 011.831-.326c.483-.006.963.063 1.424.204a5.683 5.683 0 012.123 1.228c.285.264.548.524.788.78l-.386.27a1.334 1.334 0 01-.34.18c-.152.049-.31.072-.468.068a1.441 1.441 0 01-.802-.21zM67.034 22.38v7.43a6.57 6.57 0 01-1.455 1.1c-.52.29-1.072.52-1.643.689a9.82 9.82 0 01-1.786.345c-.621.063-1.246.095-1.871.094a8.916 8.916 0 01-3.542-.703 9.376 9.376 0 01-2.901-1.934 9.095 9.095 0 01-1.958-2.872 8.75 8.75 0 01-.715-3.528 8.891 8.891 0 011.233-4.567 9.34 9.34 0 011.438-1.84 9.118 9.118 0 014.027-2.32 9.017 9.017 0 012.42-.32 8.542 8.542 0 011.952.222 9.104 9.104 0 011.849.644c.594.287 1.16.63 1.69 1.022.542.4 1.046.847 1.506 1.337l-.748.755a2.179 2.179 0 01-1.676.705 2.182 2.182 0 01-1.27-.395 6.028 6.028 0 00-1.536-.756 5.636 5.636 0 00-1.759-.272 5.702 5.702 0 00-2.26.458 5.908 5.908 0 00-3.141 3.072 5.52 5.52 0 00-.467 2.249 5.43 5.43 0 00.485 2.283 6.016 6.016 0 002.229 2.566 6.06 6.06 0 003.269.956 9.132 9.132 0 002.276-.333 4.282 4.282 0 001.07-.458v-2.492l-1.026-.018a2.135 2.135 0 01-.894-.192 1.364 1.364 0 01-.629-.626 2.808 2.808 0 01-.236-1.304v-.991l6.069-.006zm-23.16 3.513c1.457-11.387-6.593-21.799-17.98-23.255C14.505 1.18 4.093 9.23 2.637 20.618c-1.457 11.387 6.593 21.8 17.98 23.256 11.387 1.457 21.8-6.593 23.256-17.98z" fill="#070707"/><path d="M24.026 22.929v1.992h4.364v3.333h-4.333v-.012c-.116 0-.236.012-.352.012a4.798 4.798 0 01-1.875-.376 4.864 4.864 0 01-2.127-1.744 4.813 4.813 0 017.041-6.413h8.51a12.138 12.138 0 10-11.551 15.856h12.054V22.924l-11.73.005zm4.364 10.636h-4.02c-.151 0-.307.017-.473.02h-.35a10.144 10.144 0 01-8.79-14.945 10.142 10.142 0 0117.314-.909h-4.675a6.808 6.808 0 10-3.695 12.528h4.688v3.306zm5.393.02h-3.399l.02-.013h-.02v-3.309h3.4v3.321zm0-5.326h-3.399v-3.333h3.4v3.333z" fill="#262626"/><path d="M23.438 22.3v1.992h4.365v3.333h-4.337v-.012c-.116 0-.236.012-.35.012a4.791 4.791 0 01-3.992-2.127 4.837 4.837 0 01-.445-4.564 4.815 4.815 0 016.309-2.572 4.83 4.83 0 011.182.71h8.51a14.249 14.249 0 00-.372-1.003 12.136 12.136 0 00-23.297 4.17 12.138 12.138 0 0012.1 12.709h12.055v-12.66l-11.728.012zm4.365 10.637h-4.018c-.154 0-.307.016-.473.018h-.343a10.142 10.142 0 118.51-15.853h-4.67a6.807 6.807 0 10-3.698 12.514H27.8l.004 3.32zm5.394.018h-3.399l.017-.011h-.017v-3.329h3.4v3.34zm0-5.325h-3.399v-3.333h3.4v3.333z" fill="#fff"/><path d="M27.803 29.618h1.995v.948h-1.994v-.948zm-1.614-5.325h1.614v.947h1.993v-.947h1.463v-.003h-5.07v.003z" fill="#999"/></svg>