<svg width="200" height="26" fill="none" xmlns="http://www.w3.org/2000/svg"><path d="M26.205 13.164c3.423 4.64 6.904 9.282 13.75 9.282 5.22 0 9.455-4.177 9.455-9.283" stroke="url(#paint0_linear)" stroke-width="6" stroke-miterlimit="10"/><path d="M3 13.163c0-5.105 4.235-9.282 9.456-9.282 6.846 0 10.326 4.641 13.75 9.282" stroke="url(#paint1_linear)" stroke-width="6" stroke-miterlimit="10"/><path d="M49.41 13.163c0-5.105-4.235-9.282-9.456-9.282-6.845 0-10.326 4.641-13.749 9.282-3.423 4.642-6.903 9.282-13.749 9.282C7.235 22.445 3 18.268 3 13.163" stroke="url(#paint2_linear)" stroke-width="6" stroke-miterlimit="10"/><path d="M64.975 25.293V.981h3.186v21.141h9.958v3.171H64.975zM81.318 6.055V2.672h3.186v3.383h-3.186zm0 19.238V7.746h3.186v17.547h-3.186zM124.37 6.055V2.672h3.187v3.383h-3.187zm0 19.238V7.746h3.187v17.547h-3.187zm-21.98-11.152a12.368 12.368 0 00-.497-2.167c-.249-.74-.648-1.427-1.096-2.061-.498-.634-1.096-1.163-1.892-1.533-.797-.37-1.743-.581-2.888-.581-1.493 0-2.739.317-3.784 1.004-.497.317-.896.687-1.294 1.11V7.799h-3.187v17.547h3.187v-8.72h.05c0-1.058.1-1.903.348-2.643.2-.74.498-1.322.896-1.745a3.97 3.97 0 011.345-.95 4.161 4.161 0 011.643-.318c.896 0 1.593.211 2.14.581.549.37.946.899 1.295 1.48.299.634.498 1.269.597 2.009.1.74.15 1.427.15 2.114v8.192h3.236v-9.355c-.099-.528-.149-1.163-.249-1.85zm80.47 0a12.284 12.284 0 00-.498-2.167c-.249-.74-.647-1.427-1.095-2.061-.498-.634-1.095-1.163-1.892-1.533-.797-.37-1.742-.581-2.888-.581-1.494 0-2.738.317-3.784 1.004-.498.317-.896.687-1.295 1.11V7.799h-3.187v17.547h3.187v-8.72h.051c0-1.058.099-1.903.348-2.643.199-.74.497-1.322.896-1.745.398-.422.847-.74 1.344-.95a4.162 4.162 0 011.643-.318c.897 0 1.594.211 2.141.581.548.37.947.899 1.245 1.48.299.634.498 1.269.597 2.009.1.74.15 1.427.15 2.114v8.192h3.236v-9.355c-.049-.528-.099-1.163-.199-1.85zm-62.981 3.277h1.593c.099-2.008-.1-3.7-.697-5.18-.598-1.426-1.494-2.59-2.639-3.33-1.195-.792-2.639-1.162-4.282-1.162-1.593 0-3.038.37-4.232 1.11-1.195.74-2.141 1.744-2.838 3.118-.697 1.322-.996 2.907-.996 4.704 0 1.691.349 3.224 1.046 4.546.697 1.32 1.642 2.325 2.888 3.012 1.244.74 2.688 1.11 4.331 1.11 1.593 0 3.038-.423 4.382-1.215 1.294-.793 2.29-1.956 2.937-3.436l-3.136-1.004c-.399.846-.997 1.533-1.694 1.955-.746.476-1.593.688-2.589.688-1.543 0-2.688-.476-3.485-1.48-.647-.846-1.046-1.956-1.145-3.33h10.556v-.106zm-9.56-5.285c.797-1.004 1.992-1.533 3.585-1.533 1.444 0 2.539.476 3.236 1.374.498.634.847 1.586.996 2.749h-8.913a6.34 6.34 0 011.096-2.59zm28.105 13.16c-1.693 0-3.137-.37-4.332-1.162-1.195-.74-2.092-1.797-2.738-3.119-.648-1.321-.946-2.854-.946-4.492 0-1.692.348-3.224.996-4.546.647-1.321 1.543-2.378 2.738-3.118 1.195-.74 2.638-1.11 4.282-1.11 1.792 0 3.336.476 4.631 1.374 1.294.899 2.14 2.167 2.539 3.7l-3.187.898c-.298-.95-.847-1.638-1.544-2.167-.697-.528-1.542-.792-2.489-.792-1.045 0-1.892.264-2.589.74-.697.475-1.195 1.162-1.493 2.06-.349.847-.499 1.85-.499 2.96 0 1.692.399 3.119 1.196 4.176.746 1.057 1.892 1.586 3.435 1.586 1.045 0 1.842-.265 2.489-.74.647-.476 1.145-1.163 1.445-2.062l3.236.793c-.548 1.639-1.444 2.854-2.689 3.753-1.195.846-2.739 1.268-4.481 1.268zm18.484 0c-1.644 0-3.087-.37-4.282-1.11-1.195-.74-2.141-1.797-2.788-3.118-.648-1.321-.997-2.854-.997-4.545 0-1.745.349-3.277.997-4.599.697-1.321 1.593-2.325 2.837-3.065 1.195-.74 2.64-1.11 4.233-1.11 1.643 0 3.087.37 4.281 1.11 1.196.74 2.142 1.797 2.839 3.118.647 1.322.995 2.854.995 4.546 0 1.744-.348 3.277-.995 4.598-.647 1.321-1.593 2.326-2.839 3.118-1.244.687-2.638 1.057-4.281 1.057zm0-3.012c1.593 0 2.739-.529 3.535-1.586.797-1.057 1.195-2.431 1.195-4.175 0-1.745-.398-3.119-1.195-4.176-.796-1.057-1.942-1.585-3.535-1.585-1.096 0-1.942.264-2.639.74-.697.475-1.195 1.162-1.544 2.008-.348.846-.498 1.85-.498 2.96 0 1.744.399 3.118 1.195 4.175.748 1.11 1.942 1.639 3.486 1.639zm36.47 3.012c-1.992 0-3.635-.422-4.93-1.321-1.244-.899-2.041-2.167-2.34-3.753l3.286-.528c.199.846.697 1.533 1.394 2.061.748.476 1.644.74 2.739.74.996 0 1.792-.211 2.34-.634.548-.423.846-.951.846-1.692 0-.422-.099-.74-.298-1.004-.199-.264-.598-.528-1.245-.74-.647-.211-1.593-.528-2.888-.898-1.394-.37-2.539-.793-3.386-1.216-.846-.423-1.443-.951-1.792-1.48a3.945 3.945 0 01-.548-2.06c0-1.005.249-1.904.797-2.644.548-.74 1.294-1.32 2.24-1.744.946-.423 2.091-.634 3.386-.634 1.245 0 2.39.211 3.386.581.996.423 1.793.952 2.39 1.692.598.74.996 1.585 1.095 2.59l-3.285.58c-.101-.792-.499-1.426-1.096-1.902-.647-.476-1.444-.74-2.44-.74-.946-.053-1.742.106-2.34.476-.598.37-.896.845-.896 1.48 0 .37.099.687.349.951.248.264.697.529 1.343.74.648.211 1.644.529 2.938.846 1.394.37 2.49.74 3.287 1.215.796.423 1.394.952 1.742 1.533.349.581.548 1.322.548 2.167 0 1.639-.598 2.96-1.793 3.858-1.095 1.005-2.738 1.48-4.829 1.48z" fill="#000"/><defs><linearGradient id="paint0_linear" x1="26.205" y1="17.819" x2="49.41" y2="17.819" gradientUnits="userSpaceOnUse"><stop stop-color="#003FFF"/><stop offset=".688" stop-color="#690AFF"/></linearGradient><linearGradient id="paint1_linear" x1="3" y1="8.522" x2="26.223" y2="8.522" gradientUnits="userSpaceOnUse"><stop offset=".286" stop-color="#E843A1"/><stop offset="1" stop-color="#003FFF"/></linearGradient><linearGradient id="paint2_linear" x1="3" y1="13.163" x2="49.428" y2="13.163" gradientUnits="userSpaceOnUse"><stop offset=".16" stop-color="#E843A1"/><stop offset=".84" stop-color="#690AFF"/></linearGradient></defs></svg>